<?xml version="1.0" encoding="UTF-8" standalone="no"?>
<svg width="14px" height="29px" viewBox="0 0 14 29" version="1.1" xmlns="http://www.w3.org/2000/svg" xmlns:xlink="http://www.w3.org/1999/xlink">
    <!-- Generator: Sketch 39.1 (31720) - http://www.bohemiancoding.com/sketch -->
    <title>facebook</title>
    <desc>Created with Sketch.</desc>
    <defs></defs>
    <g id="Symbols" stroke="none" stroke-width="1" fill="none" fill-rule="evenodd">
        <g id="footer" transform="translate(-102.000000, -101.000000)" fill="#AC9E94">
            <g id="ICONS" transform="translate(102.000000, 101.000000)">
                <path d="M-0.000333333333,9.48133333 L2.96466667,9.48133333 L2.96466667,8.13466667 L2.96466667,6.818 L2.96466667,6.59966667 C2.96466667,5.33133333 2.99633333,3.37133333 3.91966667,2.15633333 C4.89133333,0.873 6.22466667,0.00133333333 8.51966667,0.00133333333 C12.258,0.00133333333 13.8346667,0.533 13.8346667,0.533 L13.093,4.92466667 C13.093,4.92466667 11.858,4.568 10.7046667,4.568 C9.55133333,4.568 8.51966667,4.97966667 8.51966667,6.13133333 L8.51966667,6.59966667 L8.51966667,8.13466667 L8.51966667,9.48133333 L13.2463333,9.48133333 L12.9163333,13.768 L8.51966667,13.768 L8.51966667,28.668 L2.96466667,28.668 L2.96466667,13.768 L-0.000333333333,13.768 L-0.000333333333,9.48133333 Z" id="facebook"></path>
            </g>
        </g>
    </g>
</svg>