<?xml version="1.0" encoding="UTF-8" standalone="no"?>
<svg width="149px" height="99px" viewBox="0 0 149 99" version="1.1" xmlns="http://www.w3.org/2000/svg" xmlns:xlink="http://www.w3.org/1999/xlink">
    <!-- Generator: Sketch 43.1 (39012) - http://www.bohemiancoding.com/sketch -->
    <title>Fill 6</title>
    <desc>Created with Sketch.</desc>
    <defs/>
    <g id="Symbols" stroke="none" stroke-width="1" fill="none" fill-rule="evenodd">
        <g id="Leeu-logo" fill="#BE9330">
            <path d="M43.567708,18.3502703 C43.534237,17.8951351 43.5137225,17.1140541 44.0589761,16.9994595 C44.420679,16.9232432 45.1154725,17.2124324 45.5252225,17.2162162 C46.1924833,17.2221622 46.7166826,17.1172973 47.2970268,16.787027 C47.5475196,16.6448649 47.6344362,17.5708108 47.1804181,17.8037838 C45.5586935,18.6275676 43.8738058,19.3124324 42.1322333,19.3124324 C41.4509362,19.3124324 40.6055232,19.7745946 40.05865,20.132973 C39.6467406,20.4043243 39.4361971,20.6632432 39.0539797,20.1275676 C38.9227949,19.9497297 40.5790703,18.9362162 41.4250232,18.467027 C42.0534145,18.1183784 41.7478565,17.1075676 42.692063,16.8713514 C43.0024797,16.7918919 43.6735196,16.7843243 43.0559254,17.1075676 C42.5857116,17.3491892 42.7125775,18.4572973 43.567708,18.3502703 L43.567708,18.3502703 Z M4.26733841,43.3702703 C4.75860652,43.5454054 5.17807391,43.5816216 5.56946884,43.5113514 C5.95222609,43.4405405 6.62596522,43.2643243 6.94178043,43.052973 C7.25921522,42.8421622 7.11723333,42.9481081 7.43520797,42.6297297 C7.74886377,42.3135135 7.82066449,42.1351351 7.82066449,42.1351351 L7.96102681,41.9951351 L8.10354855,41.9951351 C8.10354855,41.9951351 9.79329493,41.9254054 11.1315957,40.5502703 C12.4671971,39.1756757 12.7149906,38.9291892 12.9978746,37.7664865 C13.2785993,36.6027027 13.417342,35.8275676 13.417342,35.8275676 C13.417342,35.8275676 13.6608167,34.9221622 14.0478928,34.7816216 C14.434429,34.6405405 14.8717116,34.8691892 14.8717116,34.8691892 C14.8717116,34.8691892 15.2458312,34.9816216 15.6701572,35.3 C16.0944833,35.6151351 16.375208,36.0383784 16.5857514,36.4627027 C16.7973746,36.8859459 16.9015667,37.2724324 16.9722877,37.8378378 C17.0446283,38.4 17.2179217,39.7027027 17.2179217,39.7027027 C17.2179217,39.7027027 17.2902623,40.5145946 17.4673348,40.9037838 C17.6444072,41.2908108 17.8549507,41.467027 18.0660341,41.607027 C18.2744181,41.7502703 18.5567623,41.8578378 18.7343746,41.8940541 C18.9114471,41.9286486 19.1565413,41.9243243 19.1565413,41.9243243 C19.1565413,41.9243243 19.2958239,41.8940541 19.3681645,41.8194595 C19.526342,41.6589189 19.5101464,41.5021622 19.5101464,41.5021622 C19.5101464,41.5021622 19.5020486,40.7859459 19.6780413,40.0340541 C19.8297406,39.3864865 20.0899507,39.1497297 20.3836319,39.0016216 C20.8581645,38.7648649 21.6814435,39.12 21.8315232,39.2681081 C21.9897007,39.4248649 22.3006572,39.6508108 22.3006572,39.6508108 L23.0964036,40.5940541 L26.2950449,46.3167568 C26.2950449,46.3167568 27.397429,48.1551351 28.7351899,50.1281081 C30.8649181,53.28 32.7355159,53.2524324 32.973592,53.2524324 C33.2116681,53.2524324 33.3131609,53.2524324 33.4481246,53.0145946 C33.5852478,52.7756757 33.5166862,52.2972973 33.5166862,52.2972973 C33.5166862,52.2972973 33.5755304,50.9048649 34.0187514,49.3740541 C34.4587333,47.8410811 34.6271681,47.3967568 35.2064326,46.3762162 C35.786237,45.3540541 36.7703928,43.9924324 36.7703928,43.9924324 L37.4857007,43.0735135 C37.4857007,43.0735135 37.6557551,42.9702703 37.5871935,42.8 C37.5186319,42.6297297 37.3485775,42.5956757 37.3485775,42.5956757 L36.7363819,42.4594595 L36.3628022,42.4248649 C36.3628022,42.4248649 35.6847442,42.8 34.5947768,43.8216216 C33.7353275,44.6297297 33.6419326,44.8443243 32.9973457,45.6610811 C32.522813,46.2616216 32.3128094,46.58 32.3128094,46.58 C32.3128094,46.58 30.8190304,45.4572973 29.252371,43.6502703 C28.0220413,42.2291892 27.0767551,40.552973 27.0767551,40.552973 C27.0767551,40.552973 29.0175341,41.4372973 31.0565667,42.0508108 C33.0972188,42.6637838 34.1871862,42.7664865 34.1871862,42.7664865 C34.1871862,42.7664865 34.5272949,42.4935135 34.5607659,42.1194595 C34.5947768,41.7443243 34.4236428,41.4718919 34.4236428,41.4718919 C34.4236428,41.4718919 32.7889616,41.4021622 29.7976246,39.0875676 C26.8068275,36.7713514 24.7640159,34.4221622 24.7640159,34.4221622 C24.7640159,34.4221622 24.6954543,34.3535135 24.4913891,34.3535135 C24.2878638,34.3535135 24.186371,34.4908108 24.186371,34.4908108 L24.1529,34.627027 C24.1529,34.627027 24.424987,35.207027 24.8676681,35.8189189 C25.3092696,36.4324324 25.3092696,36.4664865 25.5106355,36.7037838 C25.7152406,36.9405405 25.9873275,37.3167568 25.9873275,37.3167568 L26.4321681,37.8605405 C26.4321681,37.8605405 24.2527732,38.067027 22.860487,37.3167568 C21.4655014,36.5675676 20.0715957,34.8994595 20.0715957,34.8994595 C20.0715957,34.8994595 19.2213239,33.6043243 18.1988384,33.1627027 C17.1785123,32.72 16.3277007,32.6497297 16.2278275,32.6497297 L15.2728239,32.6497297 C15.2728239,32.6497297 14.9051826,32.1340541 14.8279833,32.007027 C14.7507841,31.8783784 14.6174399,31.7248649 14.5197261,31.6486486 C14.4160739,31.5691892 14.1331899,31.5443243 14.1331899,31.5443243 C14.1331899,31.5443243 13.4594507,31.5945946 12.6626246,32.0659459 C12.1589399,32.3643243 12.050429,32.5172973 11.9284217,32.8275676 C11.8657986,32.9794595 11.7697043,33.3416216 11.7697043,33.3416216 C11.7697043,33.3416216 11.6018094,34.2502703 11.3372804,35.7562162 C11.1154,37.0216216 11.1315957,36.8756757 10.7758312,37.5848649 C10.4243855,38.2924324 9.68586377,38.8832432 8.94734203,39.2378378 C7.18525507,40.0843243 6.07531304,39.8410811 5.84803406,39.3551351 C5.61535652,38.8664865 5.53815725,38.6340541 5.53815725,38.6340541 C5.53815725,38.6340541 5.46095797,38.5335135 5.48471159,38.3778378 C5.51386377,38.2248649 5.64018986,37.9416216 5.64018986,37.9416216 L5.74438188,37.6589189 C5.74438188,37.6589189 5.79458841,37.5048649 5.69471522,37.0935135 C5.58782391,36.6821622 5.38267899,36.5535135 5.38267899,36.5535135 L5.25527319,36.5281081 L5.12840725,36.6048649 C5.12840725,36.6048649 4.85470072,36.5810811 4.52754855,37.4654054 C4.52754855,37.4654054 4.35047609,38.1308108 4.23440725,38.2627027 C3.62059203,38.9702703 2.49553406,38.8232432 2.56139638,38.3778378 C2.57219348,38.3010811 3.02405217,37.2724324 3.20004493,36.6578378 C3.3830558,36.0394595 3.4311029,35.7318919 3.63948696,35.3735135 C3.84787101,35.012973 3.99957029,34.4459459 5.66502319,33.1881081 C7.33317536,31.9297297 9.57357391,30.6189189 11.778342,29.8227027 C13.9858094,29.0259459 14.1499254,29.0605405 14.8279833,28.9751351 C15.8159181,28.8497297 17.2638094,28.8881081 18.4698457,29.1437838 C19.6742623,29.4021622 20.0419036,29.5697297 20.7080848,29.8518919 C21.3753457,30.1351351 21.4730594,30.1567568 21.4730594,30.1567568 L22.2952587,30.5681081 C22.2952587,30.5681081 22.4723312,30.6708108 22.6013565,30.5681081 C22.7325413,30.4654054 22.6051355,30.3291892 22.6051355,30.3291892 C22.6051355,30.3291892 20.1757877,28.3708108 16.2278275,28.0524324 C14.7448457,27.9313514 12.5125449,28.2308108 9.83594348,29.38 C5.58998333,31.2016216 4.05895435,32.5189189 3.29020072,33.187027 C2.29092899,34.052973 2.25799783,34.6027027 2.04583478,35.1664865 C1.83637101,35.7297297 1.62636739,36.2502703 1.38019348,36.8859459 C1.13509928,37.5194595 0.606581159,38.5762162 0.606581159,38.5762162 L0.145005072,39.2837838 C0.145005072,39.2837838 -0.54385,40.2994595 1.08111377,41.5091892 C1.40664638,41.7551351 2.34491449,41.9508108 2.34491449,41.9508108 C2.34491449,41.9508108 2.50741087,41.9594595 2.71957391,42.1724324 C2.92795797,42.3827027 3.42138551,42.8421622 3.42138551,42.8421622 C3.42138551,42.8421622 3.7722913,43.1940541 4.26733841,43.3702703 L4.26733841,43.3702703 Z M28.4307116,30.7021622 C28.6704072,31.0783784 29.2318565,31.6983784 29.658342,31.9708108 C30.0848275,32.2448649 31.0587261,33.1302703 33.2586355,33.047027 C34.6233891,32.9951351 35.5870304,32.8383784 36.5436536,32.4362162 C37.4565486,32.0518919 38.4925304,31.3594595 38.4925304,31.3594595 L39.2828783,30.7313514 L39.5695413,30.5383784 L39.8405486,30.3740541 C39.8405486,30.3740541 40.0478529,30.2767568 40.2081899,30.2643243 C40.6643674,30.2281081 40.8198457,30.5681081 40.8344217,30.6518919 C40.8549362,30.7372973 40.5477587,30.96 40.2913275,31.1956757 C40.1838964,31.2967568 39.8902152,31.5427027 39.8902152,31.5427027 L39.4194616,31.9254054 C39.4194616,31.9254054 38.6771609,32.4475676 38.1950703,32.7383784 C37.9532152,32.8843243 37.4230775,33.1556757 37.2487043,33.2232432 C37.0797297,33.2918919 37.0678529,33.3291892 36.9366681,33.3940541 C36.7450196,33.4886486 36.5366355,33.6751351 36.6014181,33.8843243 C36.7120884,34.2372973 37.0365413,34.24 37.3194254,34.3448649 C37.4565486,34.3978378 37.641179,34.4821622 37.641179,34.4821622 C37.641179,34.4821622 37.864679,34.5848649 38.0179978,34.6859459 C38.3629652,34.9178378 38.4466428,35.0540541 38.684179,35.4037838 C38.684179,35.4037838 38.9541065,35.7621622 39.1441355,35.8994595 C39.3325449,36.0356757 39.4156826,36.1043243 39.6240667,36.1383784 C39.827592,36.172973 39.7925014,36.1902703 40.0127623,36.172973 C40.233563,36.1551351 40.2875486,36.1043243 40.4392478,36.0189189 C40.5925667,35.9345946 40.7658601,35.8308108 41.0190522,35.4389189 C41.2776428,35.0454054 41.429342,34.6524324 41.5173384,34.2264865 C41.6004761,33.7972973 41.5805014,33.5081081 41.6004761,33.3037838 C41.6188312,33.0989189 41.6004761,33.0124324 41.6836138,32.8248649 C41.7705304,32.6367568 41.9789145,32.4821622 41.9789145,32.4821622 L42.4858384,32.1583784 C42.4858384,32.1583784 42.8788529,31.9578378 43.2038457,31.9081081 C43.526679,31.8567568 43.6465268,31.8167568 43.9385884,31.8675676 C44.2252514,31.9189189 44.2786971,31.9021622 44.5016572,32.0216216 C44.7219181,32.1421622 44.7202986,32.1762162 44.8239507,32.2956757 C44.9254435,32.4145946 44.908708,32.432973 44.942179,32.62 C44.9805087,32.8081081 44.942179,33.047027 44.942179,33.047027 L44.8239507,33.4740541 C44.8239507,33.4740541 44.5119145,34.532973 43.526679,35.9432432 C42.5441428,37.3562162 40.8803094,38.98 40.8803094,38.98 L39.6839906,40.0497297 C39.6839906,40.0497297 39.4264797,40.5210811 39.5139362,40.6059459 C39.5986935,40.6924324 39.7698275,40.6924324 39.7698275,40.6924324 L40.0273384,40.5627027 C40.0273384,40.5627027 43.0580848,38.4248649 44.4687261,36.7994595 C45.8761283,35.1756757 46.6923891,34.2762162 47.3742261,32.9513514 C48.056063,31.6259459 48.3124942,31.0254054 48.4393601,29.8702703 C48.5705449,28.7156757 48.3994109,27.132973 47.4611428,26.4048649 C46.5190957,25.6794595 45.5106464,25.6567568 44.6868275,25.8502703 C43.6173746,26.1032432 42.9727877,26.5772973 42.6315993,26.7897297 C42.2882514,27.0032432 40.9634471,28.0308108 40.9634471,28.0308108 L40.0273384,28.7594595 C40.0273384,28.7594595 39.3411826,29.272973 38.743563,29.4005405 C38.1454036,29.5297297 37.7167587,29.5756757 37.2028167,29.3189189 C36.6915739,29.0610811 36.3725196,28.3886486 36.3314906,27.7897297 C36.2856029,27.1913514 36.2920812,26.4724324 36.3795377,26.0432432 C36.4621355,25.6151351 36.5199,25.1745946 36.475092,24.8308108 C36.4292043,24.4891892 36.2580703,24.4421622 36.2580703,24.4421622 L36.065342,24.3951351 L35.5821717,24.3962162 L34.9834725,24.4383784 L34.6028746,24.4605405 C34.6028746,24.4605405 34.3885522,24.4605405 34.3010957,24.4383784 C34.1261826,24.3951351 34.1742297,24.1962162 34.1909652,23.8972973 C34.2130993,23.3616216 34.3010957,23.2843243 34.3010957,23.2843243 L34.5586065,23.0264865 C34.5586065,23.0264865 34.8895377,22.6778378 34.8895377,22.0362162 C34.8895377,21.3945946 34.772929,21.1891892 34.772929,21.1891892 C34.772929,21.1891892 34.698429,21.1362162 34.6028746,21.1891892 C34.4258022,21.2751351 34.2595268,21.4459459 33.9269761,21.8237838 C33.4794362,22.3362162 33.275371,22.2135135 33.275371,22.2135135 L33.2419,21.5740541 C33.2419,21.5740541 33.4427261,21.2605405 34.3885522,20.5124324 C34.9958891,20.032973 35.8844906,19.612973 35.8844906,19.612973 C35.8844906,19.612973 35.6512732,19.5697297 35.2895703,19.612973 C34.9224688,19.6562162 34.6654978,19.712973 34.6654978,19.712973 L34.3010957,19.807027 C34.3010957,19.807027 32.2350703,21.232973 31.669842,21.6497297 C31.297342,21.9237838 31.4328457,22.207027 31.4328457,22.207027 C31.4328457,22.207027 31.5224616,22.6124324 31.6952152,22.9983784 C31.8652696,23.3843243 31.8382768,23.3859459 32.1837841,23.9427027 C32.3959471,24.2913514 33.3174797,25.2491892 33.3174797,25.2491892 C33.3174797,25.2491892 33.6165594,25.4832432 33.6996971,25.6989189 C33.7866138,25.9135135 33.808208,26.107027 33.808208,26.107027 L33.808208,26.4264865 L33.7866138,26.8351351 C33.7866138,26.8351351 33.7250703,27.6118919 33.8513964,28.1681081 C33.9890594,28.7616216 34.0743565,28.8118919 34.1305014,28.9794595 C34.1947442,29.1713514 34.4511754,29.6210811 34.4511754,29.6210811 L34.6028746,29.8567568 L34.6860123,30.0064865 L34.6449833,30.1145946 L34.538092,30.18 C34.538092,30.18 34.3804543,30.2994595 33.2543167,30.5562162 C32.31065,30.7708108 31.6050594,30.9059459 30.4762225,30.5178378 C29.8305558,30.2967568 29.5735848,30.1594595 29.2318565,29.9535135 C28.8906681,29.7497297 28.8404616,29.7 28.7038783,29.6297297 C28.6596101,29.6081081 28.5667551,29.5778378 28.5170884,29.5778378 C28.4647225,29.5778378 28.3459543,29.5983784 28.3124833,29.6491892 C28.2752333,29.6989189 28.2255667,29.7243243 28.2088312,29.7843243 C28.1937152,29.8275676 28.1607841,29.9027027 28.164563,29.9491892 C28.1732007,30.0275676 28.2001935,30.1713514 28.2255667,30.2454054 C28.2477007,30.3102703 28.395621,30.6443243 28.4307116,30.7021622 L28.4307116,30.7021622 Z M17.567208,82.4140541 C17.567208,82.4140541 16.7228746,82.7843243 15.5724435,83.6664865 C14.695179,84.3378378 11.819371,86.3751351 10.9399471,86.9843243 C10.0626826,87.5945946 8.94356304,88.0686486 8.94356304,88.0686486 L7.20576957,88.82 C7.20576957,88.82 6.21783478,89.2594595 5.83399783,89.5248649 C4.98264638,90.1059459 4.38016812,91.0827027 4.38016812,91.0827027 C4.38016812,91.0827027 4.14209203,91.4205405 3.87000507,91.9610811 C3.60223696,92.5021622 3.47915,93.0405405 3.47915,93.0405405 C3.47915,93.0405405 3.50236377,93.2491892 3.60223696,93.2151351 C3.70211014,93.18 3.90347609,92.9108108 3.90347609,92.9108108 C3.90347609,92.9108108 5.31627681,90.9875676 6.1660087,90.4097297 C7.05461014,89.807027 7.20253043,89.7405405 7.78233478,89.5994595 C8.2050413,89.4989189 8.93276594,89.4702703 9.27017536,89.4702703 C9.60866449,89.4702703 10.7720522,89.5583784 10.7720522,89.5583784 C10.7720522,89.5583784 11.0403601,89.5918919 11.2433457,89.5248649 C11.4479507,89.4545946 11.7178783,89.1518919 11.7178783,89.1518919 C11.7178783,89.1518919 12.6998746,88.1351351 14.054371,86.5113514 C15.4040087,84.8848649 16.214871,83.9702703 16.214871,83.9702703 C16.214871,83.9702703 16.5231283,83.6097297 16.9647297,83.2378378 C17.4025522,82.8643243 17.567208,82.7183784 17.567208,82.7183784 L17.7189072,82.5989189 C17.7189072,82.5989189 17.8333565,82.5437838 17.775592,82.4421622 C17.7253855,82.3551351 17.567208,82.4140541 17.567208,82.4140541 L17.567208,82.4140541 Z M37.4651862,18.8772973 C37.4651862,18.8772973 38.725208,18.5648649 40.0937406,17.6589189 C40.8047297,17.1875676 41.6954906,16.5540541 41.6954906,16.5540541 L42.6148638,15.8594595 L43.2427152,15.4410811 C43.2427152,15.4410811 43.7042913,15.1659459 44.0422406,15.2524324 C44.3769507,15.3345946 44.5702188,15.5097297 44.5702188,15.5097297 L44.8773964,15.8027027 C44.8773964,15.8027027 45.042592,16.0583784 45.3314145,16.0437838 C45.5662514,16.0318919 45.8394181,15.7605405 45.8394181,15.7605405 C45.8394181,15.7605405 46.6227478,15.1210811 47.6365957,13.9043243 C48.5473312,12.8118919 49.1357732,11.6551351 49.1357732,11.6551351 C49.1357732,11.6551351 49.2394254,11.3751351 49.307987,11.3227027 C49.4208167,11.2362162 49.6864254,11.24 49.8705159,11.3902703 C50.0907768,11.5827027 50.2133239,11.9502703 50.2133239,11.9502703 L49.9342188,13.2059459 C49.9342188,13.2059459 49.6561935,14.2540541 49.6561935,14.8113514 C49.6561935,15.3697297 49.7290739,15.5097297 49.9342188,15.9972973 C50.1447623,16.4886486 50.6354906,16.7675676 51.3324435,17.0464865 C52.0266971,17.3248649 53.7720486,17.7437838 53.7720486,17.7437838 C53.7720486,17.7437838 54.1909761,18.7216216 54.396121,20.5356757 C54.6082841,22.3508108 53.7574725,24.5291892 52.8634725,25.6448649 C51.8269507,26.932973 50.9270123,27.5843243 50.4173891,27.9172973 C50.3860775,27.9389189 50.406592,28.4216216 50.3531464,28.7810811 C50.2424761,29.547027 50.0762007,30.5178378 49.587092,31.7756757 C49.1006826,33.0313514 47.6365957,34.8464865 47.4946138,35.0572973 C47.3574906,35.2648649 47.2203674,35.5448649 47.1491065,36.0335135 C47.0783855,36.5227027 47.1491065,36.6616216 47.1491065,36.6616216 C47.1491065,36.6616216 52.3074217,31.2859459 53.7013275,28.9832432 C55.0957732,26.6794595 56.4221971,24.3048649 57.1882514,20.5356757 C57.9548457,16.7675676 57.3879978,13.7691892 57.1920304,12.9427027 C56.9820268,12.0610811 56.7304543,11.4318919 56.2834543,10.7805405 C55.8569688,10.1578378 55.2285775,9.77297297 54.8118094,9.63405405 C54.3901826,9.49351351 54.0549326,9.46108108 53.7072659,9.53189189 C53.3579797,9.60216216 52.8224435,9.82648649 52.6027225,10.3259459 C52.4494036,10.6816216 52.5082478,11.3324324 52.5082478,11.3324324 C52.5082478,11.3324324 52.7409254,11.4124324 52.7689978,11.3556757 C52.9503891,11.0048649 53.2435304,10.9767568 53.2435304,10.9767568 C53.2435304,10.9767568 53.6478819,10.8518919 54.0506138,11.3902703 C54.4830377,11.9767568 54.5829109,12.9054054 54.5829109,12.9054054 C54.5829109,12.9054054 54.7286717,14.1394595 54.4501065,14.2783784 C54.1710014,14.4189189 54.1213348,14.3940541 54.1213348,14.3940541 C54.1213348,14.3940541 53.6262877,14.2054054 53.3525812,13.9751351 C52.9406717,13.6281081 52.8224435,13.4794595 52.6842406,13.2697297 C52.5433384,13.0589189 52.3722043,12.6518919 52.2518167,12.347027 C52.1816355,12.1567568 52.0169797,11.5978378 51.9252043,11.4135135 C51.8566428,11.2789189 51.8048167,11.0589189 51.6299036,10.7994595 C51.352958,10.3886486 50.905958,10.0686486 50.6689616,9.93837838 C50.3822986,9.78540541 49.8246283,9.54918919 49.5185304,9.43567568 C49.0958239,9.28108108 48.2730848,9.08108108 47.8320232,8.99621622 C47.482737,8.92864865 46.7166826,8.84216216 46.3711754,8.84216216 C46.0202696,8.84216216 45.6396717,8.90378378 45.4663783,9.04702703 C45.2320812,9.24864865 45.1948312,9.64648649 45.1948312,9.99621622 C45.1948312,10.3448649 45.3130594,10.4340541 45.4069942,10.5535135 C45.541958,10.7275676 45.9948964,10.9043243 45.9948964,10.9043243 C45.9948964,10.9043243 46.5190957,11.1313514 46.5984543,11.24 C46.7501536,11.4410811 46.7290993,11.5308108 46.5190957,11.9502703 C46.3134109,12.3697297 46.1719688,12.5075676 46.1719688,12.5075676 L45.6180775,12.5437838 C45.6180775,12.5437838 45.1986101,12.5605405 44.5702188,12.5778378 C43.8873022,12.5956757 43.5218203,13.1372973 43.5218203,13.1372973 C43.5218203,13.1372973 42.1991754,14.6027027 40.5925667,15.9291892 C38.9913565,17.2562162 37.0387007,18.5827027 37.0387007,18.5827027 C37.0387007,18.5827027 36.8578493,18.6994595 36.9280304,18.8048649 C36.9485449,18.8389189 37.4651862,18.8772973 37.4651862,18.8772973 L37.4651862,18.8772973 Z M131.140838,22.1756757 C131.140838,22.1756757 134.756788,25.5124324 134.756788,30.4091892 C134.756788,33.3086486 133.96644,35.0227027 132.855958,36.9562162 C131.457733,39.3778378 128.660204,41.1232432 128.660204,41.1232432 L127.913585,41.567027 C127.524349,41.8421622 128.137625,41.9021622 128.965222,42.6475676 C129.7939,43.3940541 130.571831,44.6448649 130.571831,44.6448649 C130.571831,44.6448649 131.611052,46.4021622 132.522328,47.6448649 C133.433603,48.8897297 134.232588,49.9978378 135.30528,50.992973 C136.383371,51.9881081 136.992867,52.3702703 137.901983,52.9497297 C138.812179,53.5286486 139.641936,53.7767568 139.641936,53.7767568 C139.88757,53.4464865 139.55502,53.2810811 139.55502,53.2810811 C139.55502,53.2810811 137.735168,52.4562162 136.414143,51.0486486 C135.089338,49.6389189 134.304929,48.492973 133.562088,46.9183784 C132.816009,45.3432432 132.593588,44.7524324 132.260498,44.007027 C131.929027,43.2616216 131.530074,42.7567568 131.530074,42.7567568 L131.199683,42.4243243 C131.199683,42.4243243 132.481299,41.2335135 134.342719,38.5297297 C135.593023,36.7135135 136.902712,32.627027 135.833799,28.7518919 C135.172476,26.3481081 134.592132,25.6016216 133.51728,24.1108108 C132.43919,22.6189189 131.576501,22.0010811 131.035027,21.7891892 C130.769418,21.6875676 130.804509,21.9308108 130.804509,21.9308108 L131.140838,22.1756757 Z M42.7644036,53.2416216 C42.9619906,54.6032432 43.5423348,56.5524324 44.7607877,58.6464865 C45.9760014,60.7410811 49.4294543,63.4210811 49.4294543,63.4210811 C49.4294543,63.4210811 50.6932551,63.1291892 50.8411754,63.1291892 C50.9847768,63.1291892 51.4722659,62.9335135 52.883987,63.0318919 C54.2924688,63.1291892 55.2696065,63.5189189 55.2696065,63.5189189 L55.4137478,63.1789189 C55.4137478,63.1789189 54.4900558,62.7864865 53.1771283,62.1545946 C51.8625812,61.5216216 50.8411754,60.4 49.8159906,59.4264865 C48.7967442,58.4508108 48.2644471,57.2832432 46.8500268,54.5556757 C45.4420848,51.8275676 45.2461174,47.7356757 45.4399254,46.1286486 C45.6358928,44.5210811 46.2675232,43.1567568 46.2675232,43.1567568 L46.4176029,42.5718919 C46.4176029,42.5718919 46.4634906,42.3291892 46.4176029,42.1821622 C46.3673964,42.0362162 46.1239217,42.1340541 46.1239217,42.1340541 C46.1239217,42.1340541 43.4975268,43.9854054 40.9175594,47.2983784 C39.4054254,49.2356757 38.3370522,51.1437838 37.8538819,53.2875676 C37.365313,55.432973 37.3361609,56.9572973 37.9494362,59.8664865 C38.486592,62.3983784 39.9442007,64.0535135 39.9442007,64.0535135 C39.9442007,64.0535135 40.0694471,64.2086486 40.0694471,64.2572973 C40.0694471,64.5010811 39.6505196,64.2983784 39.6505196,64.2983784 C39.6505196,64.2983784 38.5335594,63.6637838 36.9739181,62.3502703 C33.5852478,59.4832432 33.2321826,56.0664865 33.2321826,56.0664865 C33.2321826,56.0664865 33.1528239,55.5075676 32.9757514,55.5075676 C32.7949,55.5075676 32.7949,55.7475676 32.7949,55.7475676 L32.7355159,56.107027 C32.7355159,56.107027 32.6518384,57.1502703 32.9530775,58.4097297 C33.2526971,59.6702703 33.2877877,60.6735135 34.8064,62.9540541 C36.11015,64.9097297 37.8884326,66.1859459 37.8884326,66.1859459 L37.9386391,66.3691892 L37.7108203,66.5459459 L37.1715051,67.0254054 C37.1715051,67.0254054 36.5101826,67.6259459 36.0934145,67.9854054 C35.6723275,68.347027 33.9933783,70.1454054 33.9933783,70.1454054 L30.4011826,73.6843243 C30.4011826,73.6843243 26.7404254,76.9254054 25.2466464,77.8259459 C23.7490884,78.7237838 19.2537152,81.2443243 19.2537152,81.2443243 C19.2537152,81.2443243 19.0734036,81.34 19.1149725,81.5075676 C19.153842,81.6897297 19.4950304,81.5448649 19.4950304,81.5448649 L21.951371,80.4648649 C21.951371,80.4648649 24.406092,79.5054054 25.724958,78.8443243 C27.0416645,78.1843243 28.2477007,77.5054054 29.2048638,76.907027 C30.1641862,76.3064865 30.7612659,75.7708108 31.9009,74.812973 C33.0345957,73.8518919 35.4326319,71.2854054 36.0934145,70.6848649 C36.7493384,70.0854054 40.2249254,67.1454054 40.2249254,67.1454054 L41.4811681,66.3054054 C41.4811681,66.3054054 42.5020341,65.8259459 43.3992732,65.5859459 C44.2992116,65.3464865 44.8968312,65.4064865 44.8968312,65.4064865 L44.7807623,65.1654054 C44.6576754,64.9264865 44.5615812,64.8816216 44.5615812,64.8816216 C44.5615812,64.8816216 42.6683094,63.8108108 41.6954906,61.8135135 C41.2549688,60.9113514 40.5995848,59.3724324 40.4295304,57.1864865 C40.0397551,52.1205405 42.5716754,49.7821622 42.5716754,49.7821622 L42.7644036,49.8789189 C42.7644036,49.8789189 42.7195957,50.3178378 42.7195957,50.4637838 C42.7195957,50.6108108 42.5716754,51.8751351 42.7644036,53.2416216 L42.7644036,53.2416216 Z M76.6899761,24.0178378 C79.770929,26.8848649 81.8590884,27.6751351 85.6423928,28.6237838 C88.5819036,29.3583784 94.1602261,28.9172973 97.3907188,28.2551351 C100.623371,27.5940541 103.119121,27.08 107.378578,25.9037838 C111.634795,24.727027 115.083389,23.6259459 118.609183,23.6259459 C122.134976,23.6259459 124.410465,23.6259459 126.465693,24.727027 C128.520382,25.8297297 130.136168,27.7421622 130.136168,29.947027 C130.136168,32.1508108 129.696186,32.9616216 129.034864,34.1372973 C128.19215,35.6389189 126.465693,36.5637838 125.364929,37.0767568 C123.449523,37.9740541 122.573338,38.1810811 120.37127,38.3275676 C118.168121,38.4756757 116.774755,38.5481081 115.158969,38.6216216 C113.544802,38.6951351 112.442418,38.8427027 112.000817,38.9151351 C111.561914,38.9897297 110.754831,39.2091892 110.754831,39.2091892 C110.754831,39.2091892 110.31107,39.2848649 110.38665,39.5043243 C110.45953,39.7237838 110.975632,39.5767568 110.975632,39.5767568 C110.975632,39.5767568 114.717367,39.5767568 117.654719,39.8702703 C120.590991,40.1654054 121.619414,40.312973 122.498838,40.5324324 C123.38528,40.752973 124.410465,41.047027 124.410465,41.047027 C124.410465,41.047027 124.701987,41.1210811 124.997288,41.047027 C125.28773,40.9735135 127.051436,39.9459459 127.051436,39.9459459 C127.051436,39.9459459 132.191936,37.0767568 132.485078,31.8578378 C132.693462,28.1762162 131.602954,26.0513514 130.063828,24.5064865 C128.114951,22.5572973 125.587349,21.42 121.914715,21.42 C118.757103,21.42 116.774755,21.567027 113.321302,22.3751351 C108.795157,23.4351351 105.908012,24.2140541 102.8994,25.0216216 C99.8891681,25.8297297 96.5857949,26.6389189 94.3081464,26.8605405 C92.0326572,27.08 89.902929,27.3735135 87.6274399,27.08 C85.3519507,26.7859459 84.6900884,26.4924324 84.1016464,26.2708108 C83.5164435,26.0502703 82.8535014,25.3167568 82.8535014,25.3167568 L83.0008819,25.0216216 L83.4441029,25.0216216 L84.6150486,25.3167568 C84.6150486,25.3167568 87.4060993,25.9037838 89.0953058,25.9037838 C90.7839725,25.9037838 93.7947442,25.4627027 93.7947442,25.4627027 L99.520987,24.2859459 L107.74352,22.3016216 L112.368998,21.1994595 C112.368998,21.1994595 117.727059,19.8756757 121.545994,19.8032432 C125.364929,19.7286486 126.678396,20.1351351 126.678396,20.1351351 C126.678396,20.1351351 126.861407,20.1556757 126.906215,20.0956757 C126.952103,20.0383784 126.958581,19.9362162 126.920791,19.8713514 C126.861407,19.7713514 125.799512,19.4789189 125.799512,19.4789189 L124.809418,19.2740541 C124.809418,19.2740541 124.247969,19.1789189 122.90211,19.0486486 C120.737291,18.8389189 117.845828,18.9243243 114.349186,19.5091892 C111.268233,20.0221622 107.304078,20.9783784 107.304078,20.9783784 L98.4931029,23.2567568 C98.4931029,23.2567568 93.6387261,24.86 88.7276645,24.58 C86.1590341,24.4340541 83.8830051,23.7718919 83.0008819,23.3313514 C82.1219978,22.8891892 81.8261572,23.0362162 80.2843312,21.7140541 C78.7414254,20.3897297 78.1454254,18.8167568 77.8754978,17.0194595 C77.6282442,15.3648649 78.0822623,13.4075676 78.8909652,12.1567568 C79.7871246,10.7708108 81.767313,9.42702703 83.8085051,8.92162162 C85.5657333,8.48864865 87.448208,8.55891892 88.9274109,8.59135135 C91.3880703,8.64162162 95.408371,9.65783784 95.408371,9.65783784 L100.989393,11.2016216 C100.989393,11.2016216 106.130972,12.5978378 108.773023,13.2589189 C111.413994,13.9210811 115.083389,14.2162162 115.083389,14.2162162 C118.534143,14.4362162 120.291911,13.6016216 121.687976,13.0254054 C124.406686,11.9108108 126.120186,9.70216216 127.173443,6.67351351 C128.283386,3.48216216 128.320636,0.575135135 128.320636,0.575135135 L128.283386,0.323243243 C128.283386,0.323243243 128.283386,0.143243243 128.174875,0.0718918919 C128.071222,0 127.958933,0 127.958933,0 L124.273882,1.00540541 C124.273882,1.00540541 124.090871,1.18324324 124.052001,1.29189189 C124.01907,1.40108108 123.98236,1.5427027 123.98236,1.5427027 C123.98236,1.5427027 124.090871,2.2972973 123.911639,3.91135135 C123.732407,5.52648649 123.08782,6.81891892 123.08782,6.81891892 L122.835708,7.1772973 C122.835708,7.1772973 122.620846,7.39243243 122.296933,7.42864865 C121.976799,7.46378378 121.761936,7.46378378 121.761936,7.46378378 C121.761936,7.46378378 121.614556,7.39243243 121.614556,7.28486486 C121.614556,7.1772973 121.761936,6.9627027 121.761936,6.9627027 C121.761936,6.9627027 121.906078,6.56810811 122.049679,6.06432432 C122.190581,5.5627027 122.228911,5.27513514 122.369813,4.41405405 C122.513414,3.55351351 122.336342,2.2972973 122.336342,2.2972973 C122.336342,2.2972973 122.296933,2.08162162 122.190581,1.90216216 C122.085309,1.72216216 121.939009,1.79243243 121.939009,1.79243243 L117.962436,2.80054054 L117.853925,2.97783784 C117.746494,3.15837838 117.853925,3.26594595 117.853925,3.26594595 L117.924646,4.09189189 C117.998067,4.9172973 117.889016,5.66972973 117.783744,6.38756757 C117.675233,7.10540541 117.139157,7.67945946 117.139157,7.67945946 C117.139157,7.67945946 116.922675,7.85783784 116.529661,7.93027027 C116.132328,8.0027027 116.025436,7.89405405 116.025436,7.89405405 L116.025436,7.67945946 C116.025436,7.67945946 116.098857,7.50108108 116.132328,7.06918919 C116.169578,6.63837838 116.314799,6.17189189 116.314799,5.20216216 C116.314799,4.23459459 116.132328,3.76810811 116.132328,3.76810811 C116.132328,3.76810811 116.098857,3.51783784 115.956875,3.44432432 C115.811654,3.37297297 115.665353,3.42162162 115.665353,3.42162162 L112.379255,4.31945946 C112.379255,4.31945946 112.662139,4.88 112.368998,6.27513514 C112.075317,7.67351351 112.222697,7.52702703 111.782715,8.11405405 C111.341654,8.70216216 111.413994,8.77351351 110.900592,8.99621622 C110.38665,9.21567568 110.23927,9.21567568 109.799828,9.21567568 C109.356607,9.21567568 108.184041,9.21567568 107.522179,9.06864865 C106.863016,8.92162162 104.955168,8.55405405 101.870976,7.59891892 C98.7884036,6.64324324 97.0851609,6.12486486 95.2917623,5.73513514 C93.3601609,5.31621622 92.0429145,5.07783784 91.3124906,4.98864865 C90.759679,4.92216216 90.3774616,4.88918919 90.1129326,4.87189189 C89.4553891,4.81081081 88.342208,4.72054054 87.5626572,4.74486486 C86.9034942,4.76540541 86.0370268,4.8 86.0370268,4.8 L84.7165413,4.91027027 L84.7187007,4.92324324 C83.3463891,5.08972973 81.0914145,5.55513514 78.876929,6.84918919 C78.876929,6.84918919 73.4578638,9.43675676 73.6781246,16.127027 C73.6781246,16.127027 73.6036246,21.1497297 76.6899761,24.0178378 L76.6899761,24.0178378 Z M54.5548384,30.9291892 C54.5548384,30.9291892 53.662458,32.4972973 52.5579145,34.3897297 C51.7049435,35.8513514 51.2050377,36.8232432 51.0457804,37.2816216 C50.5269797,38.7583784 50.6560051,39.5556757 50.6560051,39.8254054 C50.6560051,40.0956757 50.7207877,40.6713514 50.7207877,40.6713514 C50.7207877,40.6713514 50.7558783,40.9421622 50.8244399,41.0416216 C50.8892225,41.1427027 51.0932877,41.1427027 51.0932877,41.1427027 L51.2617225,41.0416216 L51.3281246,40.8059459 C51.3281246,40.8059459 51.4555304,39.9410811 51.989987,39.1475676 C52.4866536,38.4086486 53.0362261,37.8097297 53.8789399,37.2010811 C54.7211138,36.5940541 54.9057442,36.4821622 55.886121,35.9405405 C56.8632587,35.4 58.0028928,34.9416216 59.8000703,33.9805405 C60.8090594,33.44 61.6469145,33.0048649 62.9695594,31.8178378 C63.9499362,30.9405405 64.1367261,30.6254054 64.9605449,29.1832432 C65.3665159,28.4740541 65.8388891,26.6162162 65.9387623,25.8054054 C66.1196138,24.352973 65.9263457,23.06 65.9263457,23.06 C65.9263457,23.06 67.2506101,27.9556757 68.5764942,30.6102703 C69.9029181,33.2654054 71.0641464,34.0118919 71.0641464,34.0118919 L73.0518928,34.1772973 C73.0518928,34.1772973 74.7227442,34.2697297 76.9485667,34.9637838 C80.3712478,36.0335135 81.5880812,37.8281081 81.5880812,37.8281081 L80.2616572,38.4935135 C80.2616572,38.4935135 78.5773094,37.6427027 77.0835304,37.1454054 C75.591371,36.6481081 73.4913348,36.2443243 71.0366138,36.4783784 C65.8820775,36.967027 63.7728638,38.7421622 64.0222768,38.2432432 C64.2700703,37.7459459 64.8509543,36.9162162 65.8448275,35.92 C66.8387007,34.9248649 67.9173312,34.0951351 67.9173312,34.0951351 L66.7701391,33.9864865 C66.7701391,33.9864865 66.3711862,33.9297297 65.7951609,34.252973 C65.396208,34.4735135 64.6220558,34.8962162 63.4386935,35.7210811 C61.9719072,36.7437838 60.0122333,38.6313514 58.992987,40.9275676 C57.3933964,44.532973 57.9197551,48.4183784 59.2612949,50.9405405 C61.1275739,54.4562162 64.0222768,54.8356757 64.0222768,54.8356757 L64.1847732,54.5043243 L63.5714978,53.9664865 C63.5714978,53.9664865 62.8680667,53.0686486 62.3714,52.3210811 C61.8763529,51.5745946 61.2479616,49.6664865 61.1729217,47.9140541 C61.0374181,44.8886486 62.4280848,42.0194595 65.5722007,40.792973 C71.3945377,38.5243243 75.528208,42.9313514 76.5328783,45.6918919 C76.5593312,45.7778378 76.7175087,45.8416216 76.869208,45.8416216 C77.0225268,45.8416216 77.1974399,45.6524324 77.1974399,45.6524324 C77.4949,45.3940541 79.3789942,43.9167568 83.331813,42.6875676 C86.5083203,41.7 88.4177877,41.38 91.3961681,41.0556757 C96.1614688,40.5405405 102.981998,40.067027 102.981998,40.067027 L103.283777,40.0243243 C103.283777,40.0243243 103.455451,39.8518919 103.412802,39.6821622 C103.368534,39.5091892 103.068914,39.467027 103.068914,39.467027 L99.6354362,39.467027 C99.6354362,39.467027 95.3878565,39.2935135 91.2714616,38.8643243 C87.1507478,38.4356757 84.9346428,37.7172973 84.9346428,37.7172973 L84.6738928,37.3502703 C83.7993275,36.1432432 82.9236826,35.3578378 81.2760449,34.6475676 C80.4387297,34.2848649 79.2818203,34.1 79.2818203,34.1 C79.2818203,34.1 78.8601935,33.9432432 77.7097623,33.4183784 C76.5571717,32.8940541 75.6172841,32.3172973 74.1483384,31.2172973 C72.6842514,30.1162162 71.5316609,28.5962162 70.4308964,26.4989189 C69.3306717,24.4027027 68.7044399,21.7805405 68.2326065,18.7405405 C67.7623928,15.7 68.3740486,11.5935135 68.3740486,11.5935135 L68.4696029,11.28 L68.4696029,11.0313514 C68.4696029,11.0313514 68.3438167,10.8454054 68.1575667,10.7827027 C67.9707768,10.72 67.999929,10.6583784 67.627429,10.5967568 C67.2527696,10.5340541 67.0989109,10.5664865 66.4748384,10.627027 C65.8529254,10.6908108 65.0749942,11.2508108 65.0749942,11.2508108 C65.0749942,11.2508108 64.3267551,11.7189189 64.1723565,11.8113514 C64.0125594,11.9054054 63.9537152,11.9054054 63.5196717,11.9054054 C63.0823891,11.9054054 60.0624399,11.6551351 59.4086754,11.5005405 C58.754371,11.3437838 58.5918746,11.0216216 58.5918746,11.0216216 C58.5918746,11.0216216 58.5314109,10.9686486 58.4704072,11.0048649 C58.4110232,11.0394595 58.4239797,11.0156757 58.4110232,11.0881081 C58.4002261,11.1589189 58.4482732,11.6659459 58.4482732,11.6659459 C58.4482732,11.6659459 58.527092,12.3794595 58.8061971,12.8740541 C59.0799036,13.3686486 58.9973058,13.4232432 59.3552297,13.6994595 C59.7109942,13.9751351 60.1515159,14.1410811 60.1515159,14.1410811 L60.8657442,14.6086486 L61.3332587,15.1583784 C61.3332587,15.1583784 64.487092,18.4767568 64.1847732,22.8648649 C63.9834072,25.8389189 63.2405667,26.8183784 62.0922949,28.2713514 C61.0115051,29.6405405 60.2373529,29.992973 59.5279833,30.467027 C58.8180739,30.9405405 57.8776464,31.3827027 57.8776464,31.3827027 C57.8776464,31.3827027 57.6600848,31.5054054 57.5764072,31.4064865 C57.499208,31.312973 57.5040667,31.2437838 57.5040667,31.2437838 C57.5040667,31.2437838 57.3329326,30.6010811 57.8403964,29.4875676 C58.3095304,28.4551351 58.7856826,27.2913514 59.4254109,25.1286486 C60.0683783,22.967027 60.1045486,21.6837838 60.0332877,20.4994595 C59.9436717,18.9432432 59.7649797,18.912973 59.5965449,18.5394595 C59.4254109,18.1681081 59.2926065,18.1005405 59.1571029,18.0686486 C59.0221391,18.0340541 58.8542442,18.0686486 58.8542442,18.0686486 L58.8180739,18.2037838 L58.8180739,18.3708108 C58.8180739,18.3708108 59.1905739,21.7162162 57.942429,24.452973 C56.6932043,27.1897297 54.5548384,30.9291892 54.5548384,30.9291892 L54.5548384,30.9291892 Z M148.892893,56.4475676 C148.892893,56.7740541 148.696925,56.9356757 148.632683,57.0675676 L148.56628,57.1983784 C148.56628,57.1983784 145.822197,62.0302703 145.044266,67.1843243 C144.262556,72.3372973 144.438549,78.5562162 144.438549,78.5562162 C144.438549,78.5562162 144.495773,78.9735135 144.443407,79.4167568 C144.391581,79.8594595 144.314382,80.1178378 144.232864,80.1718919 C144.156204,80.2237838 144.076306,80.3021622 144.000726,80.2756757 C143.922987,80.2481081 143.791802,80.1178378 143.791802,80.1178378 L143.717302,79.9113514 C143.717302,79.9113514 143.455472,78.9210811 142.857313,78.2183784 C142.256994,77.5151351 141.998943,77.4102703 141.578936,77.2821622 C141.165407,77.1518919 140.984556,77.1762162 140.801545,77.2302703 C140.620693,77.2821622 140.568328,77.3340541 140.515962,77.4378378 C140.464136,77.5405405 140.464136,77.8275676 140.464136,77.8275676 L140.515962,78.1145946 L141.736574,81.5772973 C141.736574,81.5772973 141.972491,82.1767568 142.467538,82.6978378 C142.960425,83.2189189 143.172588,83.3227027 143.791802,83.4 C144.414255,83.4772973 144.778117,83.5048649 145.352523,83.2951351 C145.92477,83.0886486 146.989364,82.3589189 146.989364,82.3589189 C146.989364,82.3589189 147.253353,82.1502703 147.407751,82.0210811 C147.56323,81.8897297 147.615056,81.7075676 147.848273,81.732973 C148.08365,81.7594595 148.160309,81.8102703 148.266661,81.9945946 C148.370313,82.1767568 148.392447,82.2805405 148.392447,82.4637838 C148.392447,82.6448649 148.422139,82.9848649 148.214835,83.452973 C148.004831,83.9205405 147.590762,84.5972973 146.887331,85.2232432 C146.1839,85.8481081 145.379516,86.3437838 145.379516,86.3437838 L144.624799,86.7589189 C144.624799,86.7589189 144.184817,86.9940541 144.026639,87.1243243 C143.869001,87.2535135 143.663317,87.4367568 143.663317,87.4367568 L143.559125,87.5913514 L143.507299,87.7756757 L143.480306,88.2162162 L143.480306,90.7681081 C143.480306,90.7681081 143.531592,92.2524324 143.42578,92.6945946 C143.324288,93.1383784 143.297295,93.3962162 143.039244,93.8664865 C142.779574,94.3351351 142.220284,95.6794595 142.070204,96.367027 C141.624824,98.3935135 139.632219,98.6054054 139.632219,98.6054054 L130.371545,98.6054054 C130.371545,98.6054054 130.113494,98.6318919 129.777164,98.1897297 C129.435976,97.7464865 128.970081,96.8594595 128.970081,96.8594595 C128.970081,96.8594595 128.994914,96.8086486 128.865349,96.7567568 C128.732005,96.7037838 128.576527,96.6783784 128.576527,96.6783784 L128.162998,96.6783784 L127.016886,96.627027 C127.016886,96.627027 126.785828,96.652973 126.575284,96.4448649 C126.36636,96.2345946 126.261088,96.0016216 126.238414,95.6367568 C126.210882,95.2713514 126.157436,94.1016216 126.62819,93.007027 C126.62819,93.007027 126.960741,92.0691892 127.753248,91.3297297 C128.547914,90.5902703 129.518574,90.2854054 129.518574,90.2854054 L130.026578,89.6259459 C130.026578,89.6259459 130.136168,89.4821622 130.392599,89.3113514 C130.648491,89.1421622 130.933534,88.9708108 130.933534,88.9708108 C130.933534,88.9708108 131.84211,88.6572973 132.43919,88.4297297 C133.031951,88.2037838 133.85577,87.9481081 134.111661,87.4367568 C134.367552,86.9254054 134.423697,86.8686486 134.482001,86.2994595 C134.536527,85.7313514 134.536527,84.8227027 134.536527,84.8227027 C134.536527,84.8227027 134.45015,84.2848649 134.423697,83.2324324 C134.396704,82.1827027 134.479842,82.2951351 134.536527,81.1864865 C134.594291,80.0778378 134.941418,77.8935135 134.769204,75.7891892 C134.59861,73.6875676 134.392925,72.1864865 134.296831,71.0464865 C134.165646,69.4686486 133.728364,68.4389189 133.728364,68.4389189 C133.728364,68.4389189 128.89882,68.2010811 126.055404,67.7751351 C123.217386,67.3486486 121.459078,66.9697297 119.564186,66.3048649 C117.675233,65.6416216 117.105686,65.3097297 115.968212,64.5032432 C114.827498,63.6972973 114.451219,63.3167568 114.213683,63.08 C113.976686,62.8437838 113.408759,62.2259459 113.408759,62.2259459 C113.408759,62.2259459 112.651342,63.3167568 111.849117,64.5983784 C111.040414,65.8772973 110.473567,66.8740541 110.284617,67.4897297 C110.093509,68.1081081 110.045462,68.2956757 110.045462,68.6762162 C110.045462,69.0562162 110.139396,70.1935135 110.139396,70.1935135 L110.756991,73.467027 L110.848226,74.0362162 C110.848226,74.0362162 110.94432,74.4632432 110.756991,74.7464865 C110.565882,75.0313514 110.159911,75.1832432 110.159911,75.1832432 L108.847523,75.8081081 C108.847523,75.8081081 104.940592,77.1891892 101.950335,78.4378378 C98.9676355,79.687027 94.961371,82.2513514 94.7637841,82.9086486 C94.5661971,83.5654054 94.6325993,83.2043243 94.6325993,83.4 C94.6325993,83.5983784 94.6990014,84.0572973 94.6990014,84.0572973 L94.8949688,84.4854054 L95.2237406,85.0124324 L95.9806174,85.6367568 L96.6997043,86.1616216 L97.0614072,86.4589189 C97.0614072,86.4589189 97.3243167,86.787027 97.2239036,87.1156757 C97.1278094,87.4454054 96.7331754,87.707027 96.1431138,87.7718919 C95.5519725,87.8383784 94.4037007,87.8708108 93.0556826,87.2810811 C91.7125232,86.6886486 90.9221754,86.2924324 90.9221754,86.2924324 C90.9221754,86.2924324 89.8899725,86.7962162 89.3026101,87.2448649 C88.7190268,87.6891892 88.1052116,88.2216216 87.8563384,88.8621622 C87.6036862,89.5043243 87.6328384,89.5610811 87.6328384,89.7837838 C87.6328384,90.0081081 87.690063,90.147027 87.690063,90.147027 L87.7440486,90.3135135 L87.9680884,90.4821622 C87.9680884,90.4821622 88.0490667,90.5086486 88.1052116,90.7054054 C88.1635159,90.9005405 88.1316645,91.3767568 88.1316645,91.3767568 L88.0490667,92.1854054 C88.0490667,92.1854054 87.8844109,92.8281081 87.690063,93.1616216 C87.4924761,93.4978378 86.4305812,94.4189189 86.4305812,94.4189189 L77.2573638,94.4189189 L76.6176355,94.4189189 C76.6176355,94.4189189 76.5344978,94.447027 76.3115377,94.1118919 C76.0864181,93.7772973 75.9476754,93.6918919 75.7560268,93.4978378 C75.5579,93.3021622 75.1961971,93.0210811 75.1961971,93.0210811 C75.1961971,93.0210811 74.8874,92.9383784 74.7227442,92.6594595 C74.5564688,92.3794595 74.444179,92.1572973 74.6099145,91.6275676 C74.7783493,91.0972973 75.2804145,89.2264865 75.2804145,89.2264865 C75.2804145,89.2264865 75.5044543,88.3318919 75.7247152,87.9410811 C75.9476754,87.5502703 75.9201428,87.4091892 76.2818457,87.0205405 C76.6440884,86.6286486 77.7588891,86.0427027 77.7588891,86.0427027 L81.551371,83.9762162 C81.551371,83.9762162 82.1684254,83.6135135 82.4432116,83.3059459 C82.7223167,82.9994595 83.1714761,82.3302703 83.1714761,82.3302703 C83.1714761,82.3302703 83.279987,81.7535135 84.0330848,81.0681081 C84.7905014,80.38 85.682342,79.7632432 85.682342,79.7632432 L92.4445667,74.9194595 L95.3603239,72.6167568 C95.3603239,72.6167568 96.2527043,71.7654054 96.5938928,71.3108108 C97.0041826,70.7610811 97.0727442,70.1421622 97.0727442,70.1421622 C97.0727442,70.1421622 97.3496899,69.147027 96.9377804,65.9167568 C96.6462587,63.6567568 96.3876681,63.3756757 96.1468928,62.7216216 C95.907737,62.0691892 95.7592768,61.9351351 95.7592768,61.9351351 C95.7592768,61.9351351 94.8361246,61.4513514 93.2473312,62.2897297 C85.842679,66.2016216 77.8242116,71.8194595 66.5455594,73.0994595 C62.0491065,73.6091892 59.0853022,72.98 59.0853022,72.98 L58.5314109,72.887027 C58.5314109,72.887027 58.3025123,72.7951351 58.0277261,72.8432432 C57.7534797,72.8859459 57.5229616,73.0713514 57.5229616,73.0713514 C57.5229616,73.0713514 56.4680848,73.8978378 55.5967587,74.5427027 C54.7248928,75.1832432 54.1710014,75.5513514 52.3387333,76.6081081 C50.5048457,77.6648649 48.5764833,78.3989189 45.1818746,79.5016216 C41.7894254,80.6043243 37.7038022,81.7075676 35.409958,82.5340541 C33.1139543,83.3616216 29.9952116,84.6010811 29.9952116,84.6010811 L26.6815812,86.092973 C26.6815812,86.092973 26.1125739,86.432973 25.8539833,86.6637838 C25.5937732,86.892973 25.654237,86.8637838 25.5106355,87.1783784 C25.3681138,87.4935135 25.654237,87.8940541 25.654237,87.8940541 C25.654237,87.8940541 26.8813275,89.0664865 26.9693239,89.2108108 C27.0524616,89.352973 27.0524616,89.44 26.9401717,89.6405405 C26.8251826,89.8405405 26.3986971,89.9540541 26.3986971,89.9540541 C26.3986971,89.9540541 25.1948203,90.3843243 24.8266391,90.4416216 C24.4519797,90.4989189 24.2527732,90.5545946 23.5952297,90.4691892 C22.9398457,90.3832432 22.338987,90.1545946 21.910342,89.9540541 C21.482237,89.7545946 20.9116101,89.44 20.9116101,89.44 L20.4257406,89.2962162 C20.4257406,89.2962162 20.1946826,89.2383784 19.9970957,89.2383784 C19.7962696,89.2383784 19.9970957,89.2383784 19.7077333,89.352973 C19.4226899,89.467027 19.3395522,89.5535135 19.023737,90.0686486 C18.7090014,90.5848649 18.4531101,92.0432432 18.4531101,92.0432432 C18.4531101,92.0432432 18.2517442,93.36 18.166987,94.0178378 C18.0789906,94.6762162 17.8252587,95.1902703 17.8252587,95.1902703 C17.8252587,95.1902703 17.3674616,96.7632432 17.2508529,97.2518919 C17.138563,97.7351351 17.0516464,97.8518919 16.7099181,98.2535135 C16.3649507,98.6524324 15.8510087,98.6816216 15.8510087,98.6816216 L5.70659203,98.6816216 C5.70659203,98.6816216 5.45124058,98.6524324 5.3367913,98.5945946 C5.22018261,98.5378378 5.13326594,98.5102703 5.13326594,98.5102703 C5.13326594,98.5102703 4.50703406,97.9378378 4.13453406,97.4513514 C3.76365362,96.9648649 3.67835652,96.7632432 3.44945797,96.2205405 C3.22163913,95.6778378 3.1919471,95.2486486 3.25187101,95.0194595 C3.30693623,94.7908108 3.3566029,94.792973 3.3566029,94.792973 C3.3566029,94.792973 3.39763188,94.7286486 3.46241449,94.7286486 L3.5271971,94.7286486 L3.63030942,94.8135135 C3.63030942,94.8135135 3.7350413,94.98 3.83869348,95.0437838 C3.94450507,95.1075676 3.98877319,95.1491892 4.13453406,95.127027 C4.28191449,95.1075676 4.2614,95.1491892 4.38772609,95.0437838 C4.51513188,94.9405405 4.76454493,94.6454054 4.76454493,94.6454054 C4.76454493,94.6454054 5.3945558,93.467027 6.13091812,92.6232432 C6.86566087,91.7843243 7.37258478,91.3616216 7.37258478,91.3616216 C7.37258478,91.3616216 7.45626232,91.3183784 7.52050507,91.2794595 C7.58096884,91.2351351 7.70783478,91.2351351 7.70783478,91.2351351 L8.33622609,91.2351351 C8.33622609,91.2351351 8.42098333,91.2578378 8.44473696,91.3183784 C8.46525145,91.3832432 8.42098333,91.4881081 8.42098333,91.4881081 L8.31571159,91.5945946 C8.31571159,91.5945946 7.55829493,92.12 7.01358116,92.8972973 C6.46832754,93.6767568 6.27667899,94.0135135 6.27667899,94.0135135 C6.27667899,94.0135135 6.11040362,94.2010811 6.08988913,94.4540541 C6.06667536,94.7081081 6.04778043,94.7713514 6.11040362,94.8967568 C6.17302681,95.0232432 6.3209471,95.127027 6.3209471,95.127027 L6.46832754,95.1913514 L6.55200507,95.2751351 C6.6130087,95.3389189 6.57036014,95.4443243 6.57036014,95.4443243 C6.57036014,95.4443243 6.46832754,95.9059459 6.67617174,96.032973 C6.88833478,96.1594595 7.07620435,96.1394595 7.07620435,96.1394595 C7.07620435,96.1394595 7.18201594,96.2227027 7.79097246,96.2 C8.40262826,96.1805405 8.7794471,95.9697297 8.7794471,95.9697297 L8.96785652,95.8221622 L9.11361739,95.6540541 L9.34629493,95.2540541 C9.34629493,95.2540541 9.55521884,93.927027 10.0831971,93.1308108 C10.6073964,92.3313514 10.5636681,92.4767568 10.8827225,92.1405405 C11.193679,91.8054054 11.5721174,91.5097297 11.5721174,91.5097297 C11.5721174,91.5097297 11.722737,91.3410811 11.8247696,91.3616216 C11.9322007,91.3832432 12.013179,91.4248649 12.013179,91.4248649 L12.0779616,91.5508108 L12.0552877,91.74 L12.013179,91.9513514 C12.013179,91.9513514 11.9926645,92.0151351 11.9322007,92.0567568 C11.8657986,92.0994595 11.4889797,92.4140541 11.3210848,92.7086486 C11.156429,93.0032432 10.9647804,93.3616216 10.8589688,93.7389189 C10.7531572,94.1178378 10.713208,94.4972973 10.713208,94.4972973 C10.713208,94.4972973 10.6910739,94.8967568 10.7299435,95.2751351 C10.7758312,95.6540541 10.8827225,95.9286486 10.8827225,95.9286486 C10.8827225,95.9286486 11.0274036,96.1394595 11.1105413,96.2 C11.193679,96.2654054 11.2374072,96.3281081 11.3210848,96.3281081 C11.4080014,96.3281081 11.4684652,96.3902703 11.6347406,96.3475676 C11.8031754,96.3064865 12.2053674,96.1805405 12.2053674,96.1805405 C12.2053674,96.1805405 13.0011138,95.7178378 13.3358239,95.4021622 C13.6732333,95.087027 13.8027986,94.9405405 14.054371,94.6454054 C14.3054036,94.3502703 14.3885413,94.0751351 14.3885413,93.9075676 C14.3885413,93.7389189 14.4101355,93.6556757 14.3680268,93.5918919 C14.3259181,93.5291892 14.2643746,93.4248649 14.2643746,93.4248649 L14.1785377,93.34 C14.0932406,93.1924324 14.1369688,92.9837838 14.1369688,92.9837838 L14.2206464,92.8145946 C14.2206464,92.8145946 14.3259181,92.6654054 14.642813,92.5183784 C14.9570087,92.3713514 15.3748565,92.2043243 15.3748565,92.2043243 L16.0928638,91.972973 C16.0928638,91.972973 16.1338928,91.9513514 16.3239217,91.8681081 C16.5123312,91.7843243 16.8243674,91.5556757 16.8243674,91.5556757 C16.8243674,91.5556757 17.0386899,91.3254054 17.1844507,90.8162162 C17.3383094,90.2697297 17.3782587,90.4335135 17.4230667,89.8972973 C17.4381826,89.7643243 17.2675884,89.5524324 17.2675884,89.5524324 L17.1952478,89.467027 C17.1952478,89.467027 17.1531391,89.3681081 16.7952152,89.4113514 C16.4362116,89.4518919 16.4049,89.44 16.1943565,89.5259459 C15.9843529,89.6091892 15.54815,89.8275676 15.3376065,89.9540541 C15.1292225,90.0794595 15.0126138,90.1772973 14.8236645,90.2394595 C14.6341754,90.3037838 14.6174399,90.3518919 14.4101355,90.3313514 C14.2017514,90.3108108 14.0727261,90.2448649 13.9895884,90.1854054 C13.9064507,90.1205405 13.6732333,90.0140541 13.6548783,89.9091892 C13.6311246,89.8054054 13.6311246,89.872973 13.6694543,89.7405405 C13.7067043,89.6086486 14.7464652,88.7767568 15.2377333,88.1902703 C15.7290014,87.6043243 16.0302406,87.1681081 16.3903239,86.6010811 C16.7471681,86.0340541 17.2384362,85.3654054 17.570987,84.9783784 C17.8382152,84.6735135 18.7343746,83.9475676 19.9215159,83.6302703 C19.9215159,83.6302703 24.4892297,82.6794595 26.7312478,82.0443243 C28.9786645,81.4108108 31.4328457,80.5902703 33.4114145,79.4005405 C33.4114145,79.4005405 35.875313,77.9140541 37.7016428,75.9437838 C39.5285123,73.9713514 40.7825957,72.4864865 42.2655775,71.0016216 C43.6341101,69.6281081 44.0168674,69.4318919 44.4638674,69.1443243 C44.8617406,68.8875676 45.0339543,68.8010811 45.4312877,68.687027 C45.8324,68.5724324 45.918237,68.6572973 46.0326862,68.687027 C46.1465957,68.7140541 46.3177297,68.8875676 46.3177297,68.8875676 L46.3177297,69.0589189 L46.230813,69.1718919 C46.230813,69.1718919 44.9783493,70.3724324 44.3494181,71.4010811 C43.7210268,72.4297297 43.6638022,72.4297297 43.3204543,73.0859459 C42.9787261,73.7432432 42.7525268,74.5443243 42.7525268,74.5443243 C42.7525268,74.5443243 42.6942225,74.6578378 42.7811391,74.8578378 C42.8642768,75.0578378 43.0062587,75.0578378 43.0062587,75.0578378 L43.1482406,75.0578378 L43.3204543,75.0291892 C43.3204543,75.0291892 45.6893384,74.8859459 48.056063,72.7427027 C50.4233275,70.6010811 52.3074217,68.2302703 52.3074217,68.2302703 L53.6478819,66.4594595 C53.6478819,66.4594595 54.1072986,66.0021622 54.3610304,65.8578378 C54.6212406,65.7156757 54.9041246,65.7156757 54.9041246,65.7156757 L55.1621754,65.7454054 C55.1621754,65.7454054 55.2766246,65.8021622 55.3030775,65.8864865 C55.3322297,65.9724324 55.3030775,66.087027 55.3030775,66.087027 L55.2177804,66.2302703 C55.2177804,66.2302703 54.7583638,67.0297297 54.5548384,67.5448649 C54.3572514,68.0578378 54.0965014,68.6194595 54.0381971,69.1891892 C53.982592,69.7621622 53.9933891,70.1162162 54.0468348,70.3443243 C54.1072986,70.5735135 54.1337514,70.687027 54.2487406,70.7437838 C54.3610304,70.8005405 54.5067913,70.887027 54.5067913,70.887027 L54.6752261,70.887027 L55.1659543,70.8859459 C55.1659543,70.8859459 56.0766899,70.74 57.1882514,70.3675676 C58.3025123,69.9972973 58.7856826,69.8016216 59.2699326,69.4567568 C59.7541826,69.1167568 59.953929,68.9140541 60.0419254,68.5724324 C60.125063,68.2302703 60.125063,67.8308108 60.0996899,67.6572973 C60.0683783,67.487027 59.953929,67.0589189 59.7838746,66.7740541 L59.8254435,66.8394595 C59.8254435,66.8394595 59.4178529,65.8410811 58.5880957,65.1156757 C57.7615775,64.3908108 57.3475087,64.2351351 57.0883783,64.1318919 L56.8303275,64.027027 L56.8303275,63.5610811 C56.8303275,63.5610811 60.2287152,63.6551351 63.3550159,62.8859459 C66.0980196,62.2124324 68.323842,61.3318919 69.5163819,60.0854054 C69.9909145,59.5897297 71.4836138,58.1156757 70.8617007,56.7162162 C70.633342,56.2027027 69.5887225,55.5610811 69.0526464,55.9902703 L68.7406101,56.2497297 L68.4804,56.5605405 C68.4804,56.5605405 68.2218094,57.0286486 67.7542949,56.8718919 C67.2889399,56.7162162 66.6686464,55.4205405 66.927237,54.4345946 C67.184208,53.4508108 67.7542949,52.9832432 68.3783674,52.6718919 C68.9975812,52.36 69.4667152,52.36 70.0875486,52.36 C70.707842,52.36 71.7978094,52.707027 72.1595123,52.7745946 C73.2457007,52.9832432 75.1611065,53.6064865 75.1611065,53.6064865 C75.1611065,53.6064865 79.1484761,54.6416216 81.4784906,54.9010811 C84.8185739,55.2735135 84.2738601,55.1616216 85.20565,55.1616216 C86.1374399,55.1616216 86.6578601,55.1075676 86.6578601,55.1075676 L87.4832986,55.0589189 C87.4832986,55.0589189 88.2094036,54.9010811 88.6277913,54.487027 C88.6277913,54.487027 92.3781645,51.3643243 93.3785159,50.6183784 C94.3810268,49.872973 95.1611174,49.3891892 96.8395268,48.7735135 C98.5222551,48.1589189 100.267607,47.8027027 101.946016,47.64 C103.626585,47.4783784 104.728969,47.5437838 105.438878,47.6086486 C106.151487,47.6745946 107.088136,47.9318919 107.088136,47.9318919 C107.088136,47.9318919 107.283563,47.9972973 107.312175,48.0951351 C107.345107,48.1902703 107.283563,48.3194595 107.283563,48.3194595 L107.150759,48.4178378 L106.925639,48.4821622 C106.925639,48.4821622 104.920078,48.6113514 102.592762,49.1945946 C100.267607,49.7772973 97.9440703,50.7832432 96.8562623,51.5616216 C95.5336174,52.5091892 95.3975739,52.5875676 94.5240884,53.6248649 C93.6533022,54.6621622 93.3137333,55.1881081 93.0869942,55.6081081 C92.8629543,56.0286486 92.5714326,56.6389189 92.6378348,56.867027 C92.6982986,57.0924324 92.9266572,57.5789189 92.9266572,57.5789189 C92.9266572,57.5789189 92.9930594,57.7410811 93.218179,57.8043243 C93.4449181,57.8691892 93.5431717,57.9 93.7385993,57.9 C93.9313275,57.9 95.0688022,57.5908108 95.0688022,57.5908108 C95.0688022,57.5908108 97.1310486,56.8540541 99.8891681,56.5027027 C102.648907,56.152973 105.094991,56.152973 105.094991,56.152973 L107.583183,56.1135135 L108.670991,56.0756757 L109.176835,56.0362162 L109.602241,55.9978378 C110.256005,55.82 110.304052,55.4340541 110.304052,55.4340541 C110.304052,55.4340541 110.562103,53.9605405 110.83203,53.5491892 C111.223425,52.9664865 111.139748,52.8724324 111.605643,52.8724324 C112.073157,52.8724324 112.945023,53.04 113.334259,53.1956757 C113.724034,53.3513514 114.11003,53.5081081 114.11003,53.5081081 L114.771353,54.1697297 L115.083389,54.9854054 C115.083389,54.9854054 115.480722,56.9524324 116.785012,58.6172973 C118.087143,60.2805405 118.935795,62.1427027 122.228911,63.0216216 C125.518788,63.9048649 127.507614,64.0686486 129.920226,64.132973 C132.333378,64.1978378 133.995052,64.3281081 133.995052,64.3281081 C133.995052,64.3281081 134.060375,64.2972973 134.482001,64.3945946 C134.906328,64.4902703 136.470288,65.047027 136.470288,65.047027 L138.592458,65.8945946 C138.592458,65.8945946 139.960991,66.3194595 140.4474,66.3859459 C140.936509,66.4497297 141.325204,66.5162162 141.49202,66.3518919 C141.651277,66.1881081 141.75169,66.2540541 141.718219,65.8945946 C141.686367,65.5367568 141.591893,65.1437838 141.525491,65.047027 C141.459088,64.9481081 141.393766,64.9481081 141.298751,64.8497297 C141.198338,64.7518919 140.741081,64.6551351 140.741081,64.6551351 C140.741081,64.6551351 139.861657,64.2643243 139.240824,63.7081081 C138.625929,63.1524324 138.001317,62.3708108 137.090041,61.5864865 C136.176607,60.8048649 135.855393,60.64 135.101755,60.0854054 C134.354596,59.5313514 133.113469,58.8459459 132.264817,58.6810811 C131.419943,58.5183784 130.996157,58.4881081 130.475737,58.5183784 C129.950998,58.5518919 129.398726,58.6486486 128.876146,58.9102703 C128.353567,59.1724324 128.242357,59.1421622 127.950835,59.5351351 C127.654994,59.9259459 127.605328,59.8572973 127.574016,60.1837838 C127.540545,60.5108108 127.574016,60.7054054 127.574016,60.7054054 L127.638799,60.8691892 C127.638799,60.8691892 124.50602,61.0545946 121.279846,57.7551351 C121.279846,57.7551351 119.382795,56.1227027 118.448846,53.8237838 C117.519755,51.5264865 117.150494,50.0605405 117.150494,50.0605405 L116.352588,47.427027 C116.352588,47.427027 116.256494,47.0945946 116.352588,47.0286486 C116.454081,46.9610811 117.122422,46.9935135 117.122422,46.9935135 L117.783744,47.06 C117.783744,47.06 117.982951,47.06 118.084983,47.1610811 C118.182697,47.26 118.384063,47.592973 118.384063,47.592973 C118.384063,47.592973 118.986001,48.827027 119.580382,49.7594595 C120.18178,50.692973 120.514871,51.1913514 121.443962,52.1918919 C122.378451,53.1897297 123.343172,54.2232432 124.572422,54.9902703 C125.804911,55.7551351 126.434922,55.9881081 127.199896,56.0556757 C127.96703,56.1227027 129.065096,56.3227027 130.326197,56.0227027 C131.594857,55.7237838 132.66053,55.4232432 133.125886,55.0237838 C133.591241,54.6232432 133.724045,54.3572973 133.888701,54.1232432 C134.053357,53.8913514 134.154849,53.6572973 134.154849,53.6572973 L134.286034,53.5237838 L134.423697,53.4583784 C134.423697,53.4583784 136.055139,53.4583784 137.946791,54.6232432 C139.844382,55.7886486 140.445241,56.2556757 140.445241,56.2556757 L140.809103,56.5221622 C140.809103,56.5221622 140.942447,56.6572973 140.975378,56.8227027 C141.012628,56.9881081 140.975378,57.1562162 140.975378,57.1562162 C140.975378,57.1562162 140.876045,57.8221622 140.942447,58.287027 C141.012628,58.7556757 141.278237,59.6881081 141.741433,60.2205405 C142.206788,60.7535135 142.673222,60.9864865 143.274621,61.0545946 C143.87278,61.1189189 144.351632,61.0259459 144.549219,60.7324324 C144.678244,60.5362162 145.011335,60.3 144.904983,59.3513514 C144.816987,58.5437838 144.447726,58.1962162 144.447726,58.1962162 L144.124353,57.9837838 C144.124353,57.9837838 144.057951,57.8848649 144.091422,57.7551351 C144.124353,57.6243243 144.491454,57.2724324 144.491454,57.2724324 C144.491454,57.2724324 146.345857,57.4281081 146.804193,57.0032432 C147.260371,56.5778378 147.324614,56.3821622 147.324614,56.3821622 C147.324614,56.3821622 147.391016,56.2508108 147.293302,56.1205405 C147.193429,55.9881081 147.030933,55.9562162 147.030933,55.9562162 C147.030933,55.9562162 146.933219,55.7913514 147.030933,55.5632432 C147.129186,55.3351351 147.454719,55.2027027 147.454719,55.2027027 L147.74786,55.1059459 L148.041541,55.1059459 L148.665614,55.7594595 C148.665614,55.7594595 148.892893,56.1205405 148.892893,56.4475676 L148.892893,56.4475676 Z M74.2940993,67.0297297 C74.1359217,66.9108108 74.019313,66.9891892 74.019313,66.9891892 C74.019313,66.9891892 73.5469399,66.8313514 73.1182949,66.752973 C72.6880304,66.6740541 72.4882841,66.5562162 72.2534471,66.5172973 C72.01915,66.48 71.2736101,66.2448649 70.6851681,66.0081081 C70.0967261,65.7718919 69.3139362,65.3789189 69.3139362,65.3789189 L68.0976428,64.7118919 C68.0976428,64.7118919 67.9022152,64.6335135 67.7084072,64.6335135 C67.5108203,64.6335135 67.396371,64.7518919 67.396371,64.7518919 C67.396371,64.7518919 66.5709326,65.1832432 65.9819507,65.3410811 C65.396208,65.4967568 65.0026536,65.5756757 65.0026536,65.5756757 C65.0026536,65.5756757 64.9232949,65.7313514 64.9654036,66.0081081 C65.0026536,66.2810811 65.3146899,66.3605405 65.3146899,66.3605405 C65.3146899,66.3605405 66.1363493,66.96 68.4118384,67.5389189 C71.1969507,68.2459459 73.6241391,67.6551351 73.6241391,67.6551351 L74.2563094,67.4594595 L74.410708,67.3037838 C74.410708,67.3037838 74.4501174,67.1454054 74.2940993,67.0297297 L74.2940993,67.0297297 Z M82.2915123,63.0232432 C82.1441319,63.0232432 81.6987514,62.9843243 81.6987514,62.9843243 C81.6987514,62.9843243 81.4288239,62.9843243 80.5634362,62.8675676 C79.703987,62.7491892 80.0160232,62.7891892 77.2719399,62.32 C74.5289362,61.847027 72.2134978,60.9448649 72.2134978,60.9448649 L72.01915,60.9448649 L71.8642116,61.0221622 C71.8642116,61.0221622 71.9025413,61.0210811 71.1969507,61.7291892 C70.8039362,62.1221622 70.3752913,62.4367568 70.3752913,62.4367568 C70.3752913,62.4367568 70.257063,62.4745946 70.2149543,62.6718919 C70.1777043,62.8675676 70.257063,62.8286486 70.3752913,62.9843243 C70.4919,63.1416216 70.7245775,63.1427027 71.5905051,63.4162162 C72.4510341,63.6913514 75.3900051,64.1232432 76.6089978,64.2016216 C77.8198928,64.2821622 78.5648928,64.3583784 80.0160232,64.3189189 C81.4660739,64.2821622 82.1333348,64.0427027 82.408121,63.9264865 C83.5455957,63.4389189 82.9177442,63.0232432 82.2915123,63.0232432 L82.2915123,63.0232432 Z M87.3461754,58.7464865 C87.3461754,58.5886486 87.0713891,58.5886486 87.0713891,58.5886486 C87.0713891,58.5886486 86.7615123,58.5886486 85.7006971,58.5497297 C84.6420413,58.5108108 83.1131717,58.4313514 79.9771536,57.7237838 C76.8416754,57.0178378 74.6066754,56.0762162 74.6066754,56.0762162 C74.6066754,56.0762162 73.8638348,55.7610811 73.7072768,55.8021622 C73.5469399,55.8416216 73.6241391,56.2713514 73.6241391,56.4302703 C73.6241391,56.9794595 73.3121029,57.7237838 73.3121029,57.7237838 C73.3121029,57.7237838 73.1954942,57.8032432 73.2327442,58.0005405 C73.2748529,58.1972973 73.3914616,58.1562162 73.3914616,58.1562162 L73.7828565,58.3145946 L75.1551681,58.7464865 C75.1551681,58.7464865 75.587592,58.9043243 78.2123674,59.5313514 C80.839842,60.16 82.642958,60.2383784 83.8187623,60.2383784 C84.4466138,60.2383784 86.0521428,59.9621622 86.4451572,59.7664865 C86.837092,59.5691892 87.1896174,59.2567568 87.1896174,59.2567568 C87.1896174,59.2567568 87.3461754,58.9043243 87.3461754,58.7464865 L87.3461754,58.7464865 Z M86.911592,85.3659459 C86.3123529,85.3118919 85.5365812,86.1135135 85.1430268,86.4632432 C84.3343239,87.187027 82.6148855,88.1724324 82.6974833,89.4318919 C82.7428312,90.1010811 84.985929,90.052973 85.0858022,89.5437838 C85.2617949,88.6281081 86.7285812,87.2448649 87.5648167,85.9854054 C87.8790123,85.5178378 87.1825993,85.3891892 86.911592,85.3659459 L86.911592,85.3659459 Z M107.782929,63.9448649 C107.699251,63.7962162 107.509762,63.6383784 107.228498,63.6383784 C106.96073,63.6383784 106.424654,63.7843243 105.815157,64.7659459 C105.702867,64.9432432 105.438878,65.7886486 105.292578,66.3054054 L104.94761,68.2843243 C104.903882,68.5908108 104.50277,71.3005405 103.90353,72.1237838 C103.187683,73.1091892 100.485708,74.7637838 100.378277,74.8281081 C100.336168,74.8578378 96.0696935,77.6335135 95.0526065,78.4416216 C94.6363783,78.7708108 94.5532406,79.0302703 94.5618783,79.0735135 C94.5618783,79.0735135 94.5867116,79.0902703 94.6601319,79.0902703 C94.7745812,79.0902703 95.0261536,79.052973 95.4709942,78.7962162 C97.6946572,77.5124324 101.316005,75.7394595 101.351636,75.7237838 L107.191788,72.8205405 L106.744788,69.6064865 C106.741009,69.4637838 106.726433,66.0735135 107.790487,64.34 C107.893059,64.1772973 107.81802,64.0108108 107.782929,63.9448649 L107.782929,63.9448649 Z M133.404991,91.6643243 L133.809882,91.4605405 L133.970219,91.2978378 L133.970219,91.0162162 C133.970219,91.0162162 133.89086,90.8535135 133.648465,90.7718919 C133.402831,90.6924324 133.200386,90.6924324 133.200386,90.6924324 L132.595748,90.7318919 C132.595748,90.7318919 132.309625,90.6924324 132.187617,90.6924324 C132.069389,90.6924324 131.823755,90.7318919 131.823755,90.7318919 C131.823755,90.7318919 131.216418,90.9356757 129.962335,91.7054054 C128.707712,92.4767568 128.543596,93.772973 128.543596,93.772973 L128.506346,94.2594595 L128.665603,94.5821622 C128.665603,94.5821622 129.477545,94.787027 129.880817,94.9475676 C130.288947,95.1091892 130.812067,94.9475676 130.976722,94.8259459 C131.13652,94.7059459 131.095491,94.5821622 131.095491,94.5821622 L131.299016,93.9751351 C131.299016,93.9751351 131.474469,93.6448649 131.823755,93.0016216 C132.309625,92.1102703 133.404991,91.6643243 133.404991,91.6643243 L133.404991,91.6643243 Z M139.194936,88.0556757 C138.54657,88.0556757 138.629168,89.2578378 138.567085,89.6172973 C138.290139,91.1924324 137.524625,91.0621622 136.187943,91.7167568 C134.78594,92.4027027 133.768313,93.3367568 133.524838,94.9075676 C133.51944,95.1389189 133.63173,96.7286486 134.090067,96.4032432 C134.309248,96.2502703 134.294672,95.9940541 134.578096,95.8816216 C135.777654,95.4021622 137.013382,96.1097297 138.222117,96.0016216 C139.063751,95.9275676 140.842574,94.7989189 140.044128,93.732973 C139.73803,93.3205405 138.839712,93.8827027 139.723454,92.8810811 C140.330791,92.1913514 141.34248,92.3751351 141.741433,91.7605405 C142.238639,90.9886486 141.830509,90.087027 141.503896,89.352973 C141.104404,88.4594595 140.099733,88.0556757 139.194936,88.0556757 L139.194936,88.0556757 Z" id="Fill-6"/>
        </g>
    </g>
<style xmlns="http://www.w3.org/1999/xhtml" charset="utf-8" type="text/css" class="firebugResetStyles">/* See license.txt for terms of usage */
/** reset styling **/
.firebugResetStyles {
    z-index: 2147483646 !important;
    top: 0 !important;
    left: 0 !important;
    display: block !important;
    border: 0 none !important;
    margin: 0 !important;
    padding: 0 !important;
    outline: 0 !important;
    min-width: 0 !important;
    max-width: none !important;
    min-height: 0 !important;
    max-height: none !important;
    position: fixed !important;
    transform: rotate(0deg) !important;
    transform-origin: 50% 50% !important;
    border-radius: 0 !important;
    box-shadow: none !important;
    background: transparent none !important;
    pointer-events: none !important;
    white-space: normal !important;
}
style.firebugResetStyles {
    display: none !important;
}

.firebugBlockBackgroundColor {
    background-color: transparent !important;
}

.firebugResetStyles:before, .firebugResetStyles:after {
    content: "" !important;
}
/**actual styling to be modified by firebug theme**/
.firebugCanvas {
    display: none !important;
}

/* * * * * * * * * * * * * * * * * * * * * * * * * * * * * * * * * * * * * * * * * * * * * * * * */
.firebugLayoutBox {
    width: auto !important;
    position: static !important;
}

.firebugLayoutBoxOffset {
    opacity: 0.8 !important;
    position: fixed !important;
}

.firebugLayoutLine {
    opacity: 0.4 !important;
    background-color: #000000 !important;
}

.firebugLayoutLineLeft, .firebugLayoutLineRight {
    width: 1px !important;
    height: 100% !important;
}

.firebugLayoutLineTop, .firebugLayoutLineBottom {
    width: 100% !important;
    height: 1px !important;
}

.firebugLayoutLineTop {
    margin-top: -1px !important;
    border-top: 1px solid #999999 !important;
}

.firebugLayoutLineRight {
    border-right: 1px solid #999999 !important;
}

.firebugLayoutLineBottom {
    border-bottom: 1px solid #999999 !important;
}

.firebugLayoutLineLeft {
    margin-left: -1px !important;
    border-left: 1px solid #999999 !important;
}

/* * * * * * * * * * * * * * * * * * * * * * * * * * * * * * * * * * * * * * * * * * * * * * * * */
.firebugLayoutBoxParent {
    border-top: 0 none !important;
    border-right: 1px dashed #E00 !important;
    border-bottom: 1px dashed #E00 !important;
    border-left: 0 none !important;
    position: fixed !important;
    width: auto !important;
}

.firebugRuler{
    position: absolute !important;
}

.firebugRulerH {
    top: -15px !important;
    left: 0 !important;
    width: 100% !important;
    height: 14px !important;
    background: url("data:image/png,%89PNG%0D%0A%1A%0A%00%00%00%0DIHDR%00%00%13%88%00%00%00%0E%08%02%00%00%00L%25a%0A%00%00%00%04gAMA%00%00%D6%D8%D4OX2%00%00%00%19tEXtSoftware%00Adobe%20ImageReadyq%C9e%3C%00%00%04%F8IDATx%DA%EC%DD%D1n%E2%3A%00E%D1%80%F8%FF%EF%E2%AF2%95%D0D4%0E%C1%14%B0%8Fa-%E9%3E%CC%9C%87n%B9%81%A6W0%1C%A6i%9A%E7y%0As8%1CT%A9R%A5J%95*U%AAT%A9R%A5J%95*U%AAT%A9R%A5J%95*U%AAT%A9R%A5J%95*U%AAT%A9R%A5J%95*U%AAT%A9R%A5J%95*U%AAT%A9R%A5J%95*U%AATE9%FE%FCw%3E%9F%AF%2B%2F%BA%97%FDT%1D~K(%5C%9D%D5%EA%1B%5C%86%B5%A9%BDU%B5y%80%ED%AB*%03%FAV9%AB%E1%CEj%E7%82%EF%FB%18%BC%AEJ8%AB%FA'%D2%BEU9%D7U%ECc0%E1%A2r%5DynwVi%CFW%7F%BB%17%7Dy%EACU%CD%0E%F0%FA%3BX%FEbV%FEM%9B%2B%AD%BE%AA%E5%95v%AB%AA%E3E5%DCu%15rV9%07%B5%7F%B5w%FCm%BA%BE%AA%FBY%3D%14%F0%EE%C7%60%0EU%AAT%A9R%A5J%95*U%AAT%A9R%A5J%95*U%AAT%A9R%A5J%95*U%AAT%A9R%A5J%95*U%AAT%A9R%A5JU%88%D3%F5%1F%AE%DF%3B%1B%F2%3E%DAUCNa%F92%D02%AC%7Dm%F9%3A%D4%F2%8B6%AE*%BF%5C%C2Ym~9g5%D0Y%95%17%7C%C8c%B0%7C%18%26%9CU%CD%13i%F7%AA%90%B3Z%7D%95%B4%C7%60%E6E%B5%BC%05%B4%FBY%95U%9E%DB%FD%1C%FC%E0%9F%83%7F%BE%17%7DkjMU%E3%03%AC%7CWj%DF%83%9An%BCG%AE%F1%95%96yQ%0Dq%5Dy%00%3Et%B5'%FC6%5DS%95pV%95%01%81%FF'%07%00%00%00%00%00%00%00%00%00%F8x%C7%F0%BE%9COp%5D%C9%7C%AD%E7%E6%EBV%FB%1E%E0(%07%E5%AC%C6%3A%ABi%9C%8F%C6%0E9%AB%C0'%D2%8E%9F%F99%D0E%B5%99%14%F5%0D%CD%7F%24%C6%DEH%B8%E9rV%DFs%DB%D0%F7%00k%FE%1D%84%84%83J%B8%E3%BA%FB%EF%20%84%1C%D7%AD%B0%8E%D7U%C8Y%05%1E%D4t%EF%AD%95Q%BF8w%BF%E9%0A%BF%EB%03%00%00%00%00%00%00%00%00%00%B8vJ%8E%BB%F5%B1u%8Cx%80%E1o%5E%CA9%AB%CB%CB%8E%03%DF%1D%B7T%25%9C%D5(%EFJM8%AB%CC'%D2%B2*%A4s%E7c6%FB%3E%FA%A2%1E%80~%0E%3E%DA%10x%5D%95Uig%15u%15%ED%7C%14%B6%87%A1%3B%FCo8%A8%D8o%D3%ADO%01%EDx%83%1A~%1B%9FpP%A3%DC%C6'%9C%95gK%00%00%00%00%00%00%00%00%00%20%D9%C9%11%D0%C0%40%AF%3F%EE%EE%92%94%D6%16X%B5%BCMH%15%2F%BF%D4%A7%C87%F1%8E%F2%81%AE%AAvzr%DA2%ABV%17%7C%E63%83%E7I%DC%C6%0Bs%1B%EF6%1E%00%00%00%00%00%00%00%00%00%80cr%9CW%FF%7F%C6%01%0E%F1%CE%A5%84%B3%CA%BC%E0%CB%AA%84%CE%F9%BF)%EC%13%08WU%AE%AB%B1%AE%2BO%EC%8E%CBYe%FE%8CN%ABr%5Dy%60~%CFA%0D%F4%AE%D4%BE%C75%CA%EDVB%EA(%B7%F1%09g%E5%D9%12%00%00%00%00%00%00%00%00%00H%F6%EB%13S%E7y%5E%5E%FB%98%F0%22%D1%B2'%A7%F0%92%B1%BC%24z3%AC%7Dm%60%D5%92%B4%7CEUO%5E%F0%AA*%3BU%B9%AE%3E%A0j%94%07%A0%C7%A0%AB%FD%B5%3F%A0%F7%03T%3Dy%D7%F7%D6%D4%C0%AAU%D2%E6%DFt%3F%A8%CC%AA%F2%86%B9%D7%F5%1F%18%E6%01%F8%CC%D5%9E%F0%F3z%88%AA%90%EF%20%00%00%00%00%00%00%00%00%00%C0%A6%D3%EA%CFi%AFb%2C%7BB%0A%2B%C3%1A%D7%06V%D5%07%A8r%5D%3D%D9%A6%CAu%F5%25%CF%A2%99%97zNX%60%95%AB%5DUZ%D5%FBR%03%AB%1C%D4k%9F%3F%BB%5C%FF%81a%AE%AB'%7F%F3%EA%FE%F3z%94%AA%D8%DF%5B%01%00%00%00%00%00%00%00%00%00%8E%FB%F3%F2%B1%1B%8DWU%AAT%A9R%A5J%95*U%AAT%A9R%A5J%95*U%AAT%A9R%A5J%95*U%AAT%A9R%A5J%95*U%AAT%A9R%A5J%95*U%AAT%A9R%A5J%95*U%AAT%A9R%A5J%95*UiU%C7%BBe%E7%F3%B9%CB%AAJ%95*U%AAT%A9R%A5J%95*U%AAT%A9R%A5J%95*U%AAT%A9R%A5J%95*U%AAT%A9R%A5J%95*U%AAT%A9R%A5J%95*U%AAT%A9R%A5J%95*U%AAT%A9R%A5*%AAj%FD%C6%D4%5Eo%90%B5Z%ADV%AB%D5j%B5Z%ADV%AB%D5j%B5Z%ADV%AB%D5j%B5Z%ADV%AB%D5j%B5Z%ADV%AB%D5j%B5Z%ADV%AB%D5j%B5Z%ADV%AB%D5j%B5%86%AF%1B%9F%98%DA%EBm%BBV%AB%D5j%B5Z%ADV%AB%D5j%B5Z%ADV%AB%D5j%B5Z%ADV%AB%D5j%B5Z%ADV%AB%D5j%B5Z%ADV%AB%D5j%B5Z%ADV%AB%D5j%B5Z%AD%D6%E4%F58%01%00%00%00%00%00%00%00%00%00%00%00%00%00%40%85%7F%02%0C%008%C2%D0H%16j%8FX%00%00%00%00IEND%AEB%60%82") repeat-x !important;
    border-top: 1px solid #BBBBBB !important;
    border-right: 1px dashed #BBBBBB !important;
    border-bottom: 1px solid #000000 !important;
}

.firebugRulerV {
    top: 0 !important;
    left: -15px !important;
    width: 14px !important;
    height: 100% !important;
    background: url("data:image/png,%89PNG%0D%0A%1A%0A%00%00%00%0DIHDR%00%00%00%0E%00%00%13%88%08%02%00%00%00%0E%F5%CB%10%00%00%00%04gAMA%00%00%D6%D8%D4OX2%00%00%00%19tEXtSoftware%00Adobe%20ImageReadyq%C9e%3C%00%00%06~IDATx%DA%EC%DD%D1v%A20%14%40Qt%F1%FF%FF%E4%97%D9%07%3BT%19%92%DC%40(%90%EEy%9A5%CB%B6%E8%F6%9Ac%A4%CC0%84%FF%DC%9E%CF%E7%E3%F1%88%DE4%F8%5D%C7%9F%2F%BA%DD%5E%7FI%7D%F18%DDn%BA%C5%FB%DF%97%BFk%F2%10%FF%FD%B4%F2M%A7%FB%FD%FD%B3%22%07p%8F%3F%AE%E3%F4S%8A%8F%40%EEq%9D%BE8D%F0%0EY%A1Uq%B7%EA%1F%81%88V%E8X%3F%B4%CEy%B7h%D1%A2E%EBohU%FC%D9%AF2fO%8BBeD%BE%F7X%0C%97%A4%D6b7%2Ck%A5%12%E3%9B%60v%B7r%C7%1AI%8C%BD%2B%23r%00c0%B2v%9B%AD%CA%26%0C%1Ek%05A%FD%93%D0%2B%A1u%8B%16-%95q%5Ce%DCSO%8E%E4M%23%8B%F7%C2%FE%40%BB%BD%8C%FC%8A%B5V%EBu%40%F9%3B%A72%FA%AE%8C%D4%01%CC%B5%DA%13%9CB%AB%E2I%18%24%B0n%A9%0CZ*Ce%9C%A22%8E%D8NJ%1E%EB%FF%8F%AE%CAP%19*%C3%BAEKe%AC%D1%AAX%8C*%DEH%8F%C5W%A1e%AD%D4%B7%5C%5B%19%C5%DB%0D%EF%9F%19%1D%7B%5E%86%BD%0C%95%A12%AC%5B*%83%96%CAP%19%F62T%86%CAP%19*%83%96%CA%B8Xe%BC%FE)T%19%A1%17xg%7F%DA%CBP%19*%C3%BA%A52T%86%CAP%19%F62T%86%CA%B0n%A9%0CZ%1DV%C6%3D%F3%FCH%DE%B4%B8~%7F%5CZc%F1%D6%1F%AF%84%F9%0F6%E6%EBVt9%0E~%BEr%AF%23%B0%97%A12T%86%CAP%19%B4T%86%CA%B8Re%D8%CBP%19*%C3%BA%A52huX%19%AE%CA%E5%BC%0C%7B%19*CeX%B7h%A9%0C%95%E1%BC%0C%7B%19*CeX%B7T%06%AD%CB%5E%95%2B%BF.%8F%C5%97%D5%E4%7B%EE%82%D6%FB%CF-%9C%FD%B9%CF%3By%7B%19%F62T%86%CA%B0n%D1R%19*%A3%D3%CA%B0%97%A12T%86uKe%D0%EA%B02*%3F1%99%5DB%2B%A4%B5%F8%3A%7C%BA%2B%8Co%7D%5C%EDe%A8%0C%95a%DDR%19%B4T%C66%82fA%B2%ED%DA%9FC%FC%17GZ%06%C9%E1%B3%E5%2C%1A%9FoiB%EB%96%CA%A0%D5qe4%7B%7D%FD%85%F7%5B%ED_%E0s%07%F0k%951%ECr%0D%B5C%D7-g%D1%A8%0C%EB%96%CA%A0%A52T%C6)*%C3%5E%86%CAP%19%D6-%95A%EB*%95q%F8%BB%E3%F9%AB%F6%E21%ACZ%B7%22%B7%9B%3F%02%85%CB%A2%5B%B7%BA%5E%B7%9C%97%E1%BC%0C%EB%16-%95%A12z%AC%0C%BFc%A22T%86uKe%D0%EA%B02V%DD%AD%8A%2B%8CWhe%5E%AF%CF%F5%3B%26%CE%CBh%5C%19%CE%CB%B0%F3%A4%095%A1%CAP%19*Ce%A8%0C%3BO*Ce%A8%0C%95%A12%3A%AD%8C%0A%82%7B%F0v%1F%2FD%A9%5B%9F%EE%EA%26%AF%03%CA%DF9%7B%19*Ce%A8%0C%95%A12T%86%CA%B8Ze%D8%CBP%19*Ce%A8%0C%95%D1ae%EC%F7%89I%E1%B4%D7M%D7P%8BjU%5C%BB%3E%F2%20%D8%CBP%19*Ce%A8%0C%95%A12T%C6%D5*%C3%5E%86%CAP%19*Ce%B4O%07%7B%F0W%7Bw%1C%7C%1A%8C%B3%3B%D1%EE%AA%5C%D6-%EBV%83%80%5E%D0%CA%10%5CU%2BD%E07YU%86%CAP%19*%E3%9A%95%91%D9%A0%C8%AD%5B%EDv%9E%82%FFKOee%E4%8FUe%A8%0C%95%A12T%C6%1F%A9%8C%C8%3D%5B%A5%15%FD%14%22r%E7B%9F%17l%F8%BF%ED%EAf%2B%7F%CF%ECe%D8%CBP%19*Ce%A8%0C%95%E1%93~%7B%19%F62T%86%CAP%19*Ce%A8%0C%E7%13%DA%CBP%19*Ce%A8%0CZf%8B%16-Z%B4h%D1R%19f%8B%16-Z%B4h%D1R%19%B4%CC%16-Z%B4h%D1R%19%B4%CC%16-Z%B4h%D1%A2%A52%CC%16-Z%B4h%D1%A2%A52h%99-Z%B4h%D1%A2%A52h%99-Z%B4h%D1%A2EKe%98-Z%B4h%D1%A2EKe%D02%5B%B4h%D1%A2EKe%D02%5B%B4h%D1%A2E%8B%96%CA0%5B%B4h%D1%A2E%8B%96%CA%A0e%B6h%D1%A2E%8B%96%CA%A0e%B6h%D1%A2E%8B%16-%95a%B6h%D1%A2E%8B%16-%95A%CBl%D1%A2E%8B%16-%95A%CBl%D1%A2E%8B%16-Z*%C3l%D1%A2E%8B%16-Z*%83%96%D9%A2E%8B%16-Z*%83%96%D9%A2E%8B%16-Z%B4T%86%D9%A2E%8B%16-Z%B4T%06-%B3E%8B%16-Z%B4T%06-%B3E%8B%16-Z%B4h%A9%0C%B3E%8B%16-Z%B4h%A9%0CZf%8B%16-Z%B4h%A9%0CZf%8B%16-Z%B4h%D1R%19f%8B%16-Z%B4h%D1R%19%B4%CC%16-Z%B4h%D1R%19%B4%CC%16-Z%B4h%D1%A2%A52%CC%16-Z%B4h%D1%A2%A52h%99-Z%B4h%D1%A2%A52h%99-Z%B4h%D1%A2EKe%98-Z%B4h%D1%A2EKe%D02%5B%B4h%D1%A2EKe%D02%5B%B4h%D1%A2E%8B%96%CA0%5B%B4h%D1%A2E%8B%96%CA%A0e%B6h%D1%A2E%8B%96%CA%A0e%B6h%D1%A2E%8B%16-%95a%B6h%D1%A2E%8B%16-%95A%CBl%D1%A2E%8B%16-%95A%CBl%D1%A2E%8B%16-Z*%C3l%D1%A2E%8B%16-Z*%83%96%D9%A2E%8B%16-Z*%83%96%D9%A2E%8B%16-Z%B4T%86%D9%A2E%8B%16-Z%B4T%06-%B3E%8B%16-Z%B4T%06-%B3E%8B%16-Z%B4h%A9%0C%B3E%8B%16-Z%B4h%A9%0CZf%8B%16-Z%B4h%A9%0CZf%8B%16-Z%B4h%D1R%19f%8B%16-Z%B4h%D1R%19%B4%CC%16-Z%B4h%D1R%19%B4%CC%16-Z%B4h%D1%A2%A52%CC%16-Z%B4h%D1%A2%A52h%99-Z%B4h%D1%A2%A52h%99-Z%B4h%D1%A2EKe%98-Z%B4h%D1%A2EKe%D02%5B%B4h%D1%A2EKe%D02%5B%B4h%D1%A2E%8B%96%CA0%5B%B4h%D1%A2E%8B%96%CA%A0e%B6h%D1%A2E%8B%96%CA%A0e%B6h%D1%A2E%8B%16-%95a%B6h%D1%A2E%8B%16-%95A%CBl%D1%A2E%8B%16-%95A%CBl%D1%A2E%8B%16-Z*%C3l%D1%A2E%8B%16-Z*%83%96%D9%A2E%8B%16-Z*%83%96%D9%A2E%8B%16-Z%B4T%86%D9%A2E%8B%16-Z%B4T%06-%B3E%8B%16-Z%B4%AE%A4%F5%25%C0%00%DE%BF%5C'%0F%DA%B8q%00%00%00%00IEND%AEB%60%82") repeat-y !important;
    border-left: 1px solid #BBBBBB !important;
    border-right: 1px solid #000000 !important;
    border-bottom: 1px dashed #BBBBBB !important;
}

.overflowRulerX &gt; .firebugRulerV {
    left: 0 !important;
}

.overflowRulerY &gt; .firebugRulerH {
    top: 0 !important;
}

/* * * * * * * * * * * * * * * * * * * * * * * * * * * * * * * * * * * * * * * * * * * * * * * * */
.fbProxyElement {
    position: fixed !important;
    pointer-events: auto !important;
}
</style></svg>