<svg id="Layer_1" data-name="Layer 1" xmlns="http://www.w3.org/2000/svg" viewBox="0 0 364.56 439.37"><defs><style>.cls-1{fill:#b89e4a;}</style></defs><title>LeeuLogo</title><path class="cls-1" d="M121.45,468.12h12v72.63H171v10.88H121.45Z" transform="translate(-115.67 -201.95)"/><path class="cls-1" d="M212.08,468.12h47.35v10.64H224v25.47h34.19v10.7H224v25.95h36.53v10.64H212.08Z" transform="translate(-115.67 -201.95)"/><path class="cls-1" d="M303.91,468.12h47.34v10.64H315.87v25.47h34.2v10.7h-34.2v25.95h36.53v10.64H303.91Z" transform="translate(-115.67 -201.95)"/><path class="cls-1" d="M453.84,468.12h12v47.41q0,9.63-1.4,14.53a31.63,31.63,0,0,1-3.47,8.16,26,26,0,0,1-5,5.83q-9.93,8.56-26,8.55-16.32,0-26.19-8.49a27.41,27.41,0,0,1-5-5.89,30.53,30.53,0,0,1-3.41-8Q394,525.52,394,515.41V468.12h12v47.41q0,11.78,2.69,16.38a19.15,19.15,0,0,0,8.19,7.38,28.45,28.45,0,0,0,13,2.78q10.63,0,17.34-5.56a17.28,17.28,0,0,0,5.08-7.05q1.55-4.06,1.55-13.93Z" transform="translate(-115.67 -201.95)"/><path class="cls-1" d="M222.34,246.83c-.08-1.11-.13-3,1.2-3.3.89-.19,2.59.52,3.59.53a8,8,0,0,0,4.34-1c.61-.35.83,1.91-.28,2.49-4,2-8.1,3.69-12.36,3.69-1.67,0-3.74,1.13-5.08,2-1,.66-1.52,1.3-2.46,0-.32-.43,3.73-2.91,5.81-4.06,1.54-.85.79-3.33,3.1-3.9.76-.19,2.4-.21.89.58a1.7,1.7,0,0,0,1.25,3M126.12,308a6.07,6.07,0,0,0,3.19.34,11.15,11.15,0,0,0,3.36-1.12,4.3,4.3,0,0,0,1.21-1,4.35,4.35,0,0,0,.94-1.21l.35-.34h.35a12,12,0,0,0,7.41-3.53c3.27-3.36,3.88-4,4.57-6.81s1-4.74,1-4.74.6-2.22,1.54-2.56a2.86,2.86,0,0,1,2,.21,7,7,0,0,1,2,1.05,7.68,7.68,0,0,1,2.24,2.84,9.58,9.58,0,0,1,.95,3.36c.18,1.38.6,4.56.6,4.56a12.2,12.2,0,0,0,.61,2.94,3.75,3.75,0,0,0,1.47,1.72,5.07,5.07,0,0,0,1.63.7,6.08,6.08,0,0,0,1,.07,1.22,1.22,0,0,0,.52-.25,1,1,0,0,0,.35-.78,16.83,16.83,0,0,1,.41-3.59,3.27,3.27,0,0,1,1.73-2.53c1.16-.58,3.18.29,3.54.65a12.65,12.65,0,0,0,1.15.94l1.95,2.31,7.83,14s2.7,4.5,6,9.32c5.22,7.71,9.79,7.64,10.38,7.64s.83,0,1.16-.58a3.51,3.51,0,0,0,.17-1.75,33.92,33.92,0,0,1,1.23-7.15,26.68,26.68,0,0,1,2.91-7.33c1.42-2.5,3.83-5.83,3.83-5.83l1.75-2.25a.56.56,0,0,0,.25-.67.86.86,0,0,0-.59-.5l-1.5-.33-.92-.08a24.89,24.89,0,0,0-4.33,3.41,28.86,28.86,0,0,0-3.91,4.5c-1.16,1.47-1.68,2.25-1.68,2.25a54.35,54.35,0,0,1-7.49-7.16,52.9,52.9,0,0,1-5.33-7.58,88,88,0,0,0,9.74,3.66,44.38,44.38,0,0,0,7.67,1.75,2.63,2.63,0,0,0,.92-1.58,2.75,2.75,0,0,0-.34-1.58s-4-.17-11.33-5.83a95.56,95.56,0,0,1-12.32-11.41,1,1,0,0,0-.67-.17,1,1,0,0,0-.75.34l-.08.33a20.43,20.43,0,0,0,1.75,2.91c1.08,1.5,1.08,1.58,1.57,2.16s1.17,1.5,1.17,1.5l1.09,1.33s-5.34.5-8.74-1.33-6.83-5.91-6.83-5.91-2.08-3.17-4.58-4.25a15,15,0,0,0-4.83-1.25h-2.34s-.9-1.26-1.09-1.57a3.67,3.67,0,0,0-.75-.88,2.54,2.54,0,0,0-.95-.25,9.15,9.15,0,0,0-3.6,1.28c-1.23.73-1.5,1.11-1.8,1.86-.15.37-.39,1.26-.39,1.26s-.41,2.22-1.06,5.9c-.54,3.1-.5,2.74-1.37,4.47a9.73,9.73,0,0,1-4.48,4c-4.31,2.07-7,1.48-7.59.29a17.38,17.38,0,0,1-.76-1.76.88.88,0,0,1-.13-.63,6.88,6.88,0,0,1,.38-1.06l.25-.69a2.93,2.93,0,0,0-.12-1.38,2.19,2.19,0,0,0-.76-1.32l-.31-.06-.31.19s-.67-.06-1.47,2.11a9.06,9.06,0,0,1-.72,1.95c-1.5,1.73-4.26,1.37-4.09.28,0-.19,1.13-2.7,1.56-4.2a13.79,13.79,0,0,1,1.07-3.14c.51-.88.88-2.27,5-5.34a60.15,60.15,0,0,1,15-8.23c5.4-1.95,5.81-1.86,7.47-2.07a29.42,29.42,0,0,1,8.92.41,23.72,23.72,0,0,1,5.48,1.73,19.61,19.61,0,0,0,1.87.75l2,1a.73.73,0,0,0,.75,0c.32-.25,0-.59,0-.59a30.59,30.59,0,0,0-15.62-5.57c-3.63-.3-9.1.44-15.65,3.25-10.39,4.45-14.14,7.68-16,9.31a8.65,8.65,0,0,0-3,4.84c-.51,1.38-1,2.65-1.63,4.2s-1.89,4.13-1.89,4.13L116,298s-1.69,2.49,2.29,5.44a11.29,11.29,0,0,0,3.1,1.08,1.59,1.59,0,0,1,.92.54c.51.52,1.72,1.64,1.72,1.64a6.26,6.26,0,0,0,2.07,1.29m59.16-31a12.37,12.37,0,0,0,3,3.1,12.66,12.66,0,0,0,8.82,2.63,21.8,21.8,0,0,0,8-1.49,34.11,34.11,0,0,0,4.77-2.63l1.94-1.54.7-.47.66-.4a3.27,3.27,0,0,1,.9-.27,1.37,1.37,0,0,1,1.53,1c.05.21-.7.75-1.33,1.33-.26.24-1,.85-1,.85l-1.15.93s-1.82,1.28-3,2a23.55,23.55,0,0,1-2.32,1.19,7.25,7.25,0,0,0-.76.42c-.47.23-1,.69-.82,1.2.27.86,1.06.87,1.76,1.13.34.13.79.33.79.33a8.67,8.67,0,0,1,.92.5,5,5,0,0,1,1.63,1.76,7.6,7.6,0,0,0,1.13,1.21,2.4,2.4,0,0,0,1.18.59,2.36,2.36,0,0,0,1,.08,2,2,0,0,0,1-.38,3.55,3.55,0,0,0,1.42-1.42,8.3,8.3,0,0,0,1.22-3,15.38,15.38,0,0,0,.2-2.26,2.93,2.93,0,0,1,.2-1.17,2.64,2.64,0,0,1,.72-.84l1.24-.79a7.13,7.13,0,0,1,1.76-.61,4.45,4.45,0,0,1,1.8-.1,3.38,3.38,0,0,1,1.38.38,1.92,1.92,0,0,1,.79.67c.25.29.21.34.29.79a3.56,3.56,0,0,1,0,1l-.29,1a23.29,23.29,0,0,1-3.18,6,63.51,63.51,0,0,1-6.48,7.43l-2.93,2.62s-.63,1.15-.42,1.36a1,1,0,0,0,.63.21l.63-.32s7.42-5.23,10.87-9.2,5.44-6.17,7.11-9.41,2.3-4.71,2.61-7.53-.1-6.69-2.39-8.47a7.8,7.8,0,0,0-6.79-1.35,14.93,14.93,0,0,0-5,2.3c-.84.52-4.08,3-4.08,3l-2.29,1.78a10,10,0,0,1-3.14,1.57,5.15,5.15,0,0,1-3.77-.2,4.63,4.63,0,0,1-2.13-3.74,18,18,0,0,1,.12-4.27,9.92,9.92,0,0,0,.23-3c-.11-.84-.53-1-.53-1l-.47-.11h-1.18l-1.47.1-.93.06a4.42,4.42,0,0,1-.74-.06c-.43-.1-.31-.59-.27-1.32.06-1.31.27-1.5.27-1.5l.63-.63a3.67,3.67,0,0,0,.81-2.42,4.79,4.79,0,0,0-.28-2.07.4.4,0,0,0-.42,0,6.27,6.27,0,0,0-1.66,1.55c-1.1,1.25-1.59,1-1.59,1l-.08-1.56a14.21,14.21,0,0,1,2.81-2.6,22.71,22.71,0,0,1,3.66-2.2,5.27,5.27,0,0,0-1.46,0c-.9.1-1.53.24-1.53.24l-.89.23s-5.06,3.49-6.44,4.5c-.91.67-.58,1.36-.58,1.36a11.46,11.46,0,0,0,.64,1.94,11.74,11.74,0,0,0,1.2,2.31,34.71,34.71,0,0,0,2.78,3.2,3.48,3.48,0,0,1,.94,1.1,4.1,4.1,0,0,1,.27,1v.78l-.05,1a13.14,13.14,0,0,0,.16,3.26,8.38,8.38,0,0,0,.68,2,14.41,14.41,0,0,0,.78,1.57l.37.58.2.37-.1.26-.26.16a12.16,12.16,0,0,1-3.14.92,10.78,10.78,0,0,1-6.8-.09,13.51,13.51,0,0,1-3-1.38c-.84-.5-1-.62-1.29-.79a1.36,1.36,0,0,0-.46-.13c-.13,0-.42,0-.5.17s-.21.19-.25.33a1.29,1.29,0,0,0-.11.4,4.31,4.31,0,0,0,.15.73c.06.16.42,1,.5,1.12m-26.6,126.45a26.51,26.51,0,0,0-4.88,3.06c-2.15,1.64-9.19,6.62-11.34,8.11a31.62,31.62,0,0,1-4.89,2.65l-4.25,1.84a30.58,30.58,0,0,0-3.36,1.72,14.5,14.5,0,0,0-3.56,3.81,18.77,18.77,0,0,0-1.25,2.15,13.36,13.36,0,0,0-1,2.64s.06.51.3.43.74-.75.74-.75,3.46-4.7,5.54-6.11,2.54-1.64,4-2a19.51,19.51,0,0,1,3.64-.32c.83,0,3.68.21,3.68.21a3.16,3.16,0,0,0,1.16-.08,3.94,3.94,0,0,0,1.16-.91s2.4-2.49,5.72-6.46,5.29-6.21,5.29-6.21a17.69,17.69,0,0,1,1.83-1.79c1.07-.91,1.48-1.27,1.48-1.27l.37-.29a.27.27,0,0,0,.14-.38c-.12-.21-.51-.07-.51-.07M207.4,248.12a23.07,23.07,0,0,0,6.44-3c1.74-1.15,3.92-2.7,3.92-2.7l2.25-1.7,1.54-1a2.58,2.58,0,0,1,3.25.17l.75.72a1.35,1.35,0,0,0,1.11.59,2.5,2.5,0,0,0,1.24-.69,36.39,36.39,0,0,0,4.4-4.54,33.21,33.21,0,0,0,3.67-5.5,3.07,3.07,0,0,1,.42-.81,1.24,1.24,0,0,1,1.37.17,3.66,3.66,0,0,1,.84,1.37l-.68,3.07a21.26,21.26,0,0,0-.68,3.93,5.68,5.68,0,0,0,.68,2.9c.51,1.2,1.72,1.88,3.42,2.56s6,1.71,6,1.71a26.6,26.6,0,0,1,1.53,6.83c.52,4.44-1.56,9.77-3.75,12.49a25.3,25.3,0,0,1-6,5.56c-.08.05,0,1.24-.16,2.11a31.22,31.22,0,0,1-1.87,7.32c-1.19,3.07-4.78,7.51-5.12,8a5.48,5.48,0,0,0-.85,2.39,3.05,3.05,0,0,0,0,1.54s12.63-13.14,16-18.77,6.66-11.44,8.54-20.66a45.22,45.22,0,0,0,0-18.57,14.66,14.66,0,0,0-2.23-5.29,7.64,7.64,0,0,0-3.6-2.81,5,5,0,0,0-2.7-.25,3.73,3.73,0,0,0-2.7,1.94,6.52,6.52,0,0,0-.23,2.46s.57.2.64.06a1.6,1.6,0,0,1,1.16-.93s1-.3,2,1a8.9,8.9,0,0,1,1.3,3.71s.36,3-.33,3.36-.8.28-.8.28a8.11,8.11,0,0,1-1.88-1,7,7,0,0,1-1.63-1.72,14.36,14.36,0,0,1-1.06-2.26c-.17-.47-.58-1.83-.8-2.28a8.88,8.88,0,0,0-.72-1.5,7.42,7.42,0,0,0-2.35-2.11,30,30,0,0,0-2.82-1.23,34.9,34.9,0,0,0-4.13-1.07,26.32,26.32,0,0,0-3.57-.38,4,4,0,0,0-2.22.5,3.09,3.09,0,0,0-.67,2.32,1.72,1.72,0,0,0,.52,1.36,4.56,4.56,0,0,0,1.44.86,6.84,6.84,0,0,1,1.48.82c.37.49.32.71-.19,1.74a5.38,5.38,0,0,1-.85,1.36l-1.35.09-2.57.08a3.4,3.4,0,0,0-2.57,1.37,77.12,77.12,0,0,1-7.17,6.83c-3.92,3.24-8.7,6.49-8.7,6.49s-.44.29-.27.54a7.92,7.92,0,0,0,1.31.18m229.36,8.06s8.85,8.16,8.85,20.13c0,7.09-1.94,11.28-4.65,16-3.42,5.92-10.27,10.19-10.27,10.19l-1.83,1.08c-1,.67.55.82,2.58,2.64a27.08,27.08,0,0,1,3.93,4.88s2.55,4.3,4.78,7.34a54.59,54.59,0,0,0,6.81,8.19,37.36,37.36,0,0,0,6.36,4.78,19.06,19.06,0,0,0,4.26,2,.75.75,0,0,0-.21-1.21,27.63,27.63,0,0,1-7.69-5.46,36,36,0,0,1-7-10.1c-1.83-3.85-2.37-5.3-3.19-7.12a15.59,15.59,0,0,0-1.79-3.06l-.81-.81a62.29,62.29,0,0,0,7.7-9.52c3.06-4.44,6.27-14.43,3.65-23.91-1.62-5.88-3-7.7-5.67-11.35s-4.75-5.16-6.08-5.68c-.65-.25-.57.34-.57.34Zm-216.39,76a38,38,0,0,0,4.89,13.22c3,5.12,11.43,11.67,11.43,11.67s3.1-.71,3.46-.71a17,17,0,0,1,5-.24,21.29,21.29,0,0,1,5.84,1.19l.35-.83s-2.26-1-5.47-2.51-5.72-4.29-8.23-6.67-3.8-5.24-7.26-11.91-3.93-16.68-3.45-20.61a27.22,27.22,0,0,1,2-7.27l.37-1.43a2.52,2.52,0,0,0,0-1c-.12-.36-.72-.12-.72-.12a67.32,67.32,0,0,0-12.75,12.63c-3.7,4.74-6.32,9.4-7.5,14.65s-1.27,9,.23,16.09a24.59,24.59,0,0,0,4.88,10.24s.31.38.31.5c0,.6-1,.1-1,.1a48.83,48.83,0,0,1-6.55-4.76c-8.3-7-9.16-15.37-9.16-15.37s-.19-1.37-.63-1.37-.44.59-.44.59l-.15.88a20,20,0,0,0,.53,5.63c.73,3.08.82,5.54,4.54,11.11a34.29,34.29,0,0,0,7.55,7.9l.12.45-.56.43-1.32,1.17s-1.62,1.47-2.64,2.35-5.14,5.28-5.14,5.28l-8.8,8.65s-9,7.93-12.62,10.13-14.67,8.36-14.67,8.36-.44.23-.34.64.93.09.93.09l6-2.64s6-2.35,9.24-4,6.18-3.27,8.52-4.74a55.28,55.28,0,0,0,6.6-5.12c2.78-2.35,8.65-8.62,10.27-10.09s10.11-8.66,10.11-8.66l3.08-2.05a33.72,33.72,0,0,1,4.7-1.76,11.39,11.39,0,0,1,3.67-.44l-.29-.59c-.3-.59-.53-.7-.53-.7a19.27,19.27,0,0,1-7-7.5,30.49,30.49,0,0,1-3.1-11.32c-1-12.39,5.25-18.11,5.25-18.11l.47.24s-.11,1.07-.11,1.43a32.4,32.4,0,0,0,.11,6.79m83.06-71.46c7.54,7,12.66,8.94,21.92,11.26,7.2,1.8,20.86.72,28.76-.9s14-2.87,24.46-5.75,18.86-5.57,27.5-5.57,14.2,0,19.24,2.69,9,7.37,9,12.76-1.08,7.37-2.7,10.25c-2.06,3.67-6.29,5.93-9,7.19-4.69,2.2-6.83,2.7-12.23,3.06s-8.81.54-12.76.72a70,70,0,0,0-7.73.72c-1.07.18-3.05.72-3.05.72s-1.08.18-.9.72,1.44.18,1.44.18,9.16,0,16.35.72,9.71,1.08,11.86,1.62,4.68,1.26,4.68,1.26a3.3,3.3,0,0,0,1.44,0c.71-.18,5-2.69,5-2.69s12.58-7,13.3-19.78c.51-9-2.16-14.2-5.93-18-4.77-4.77-11-7.55-20-7.55a79.54,79.54,0,0,0-21,2.33c-11.08,2.59-18.15,4.5-25.52,6.47s-15.46,4-21,4.49-10.79,1.26-16.36.54-7.19-1.44-8.63-2a10.39,10.39,0,0,1-3.06-2.33l.36-.72H320l2.87.72a70.37,70.37,0,0,0,11,1.43,107.32,107.32,0,0,0,11.5-1.08l14-2.88,20.13-4.85,11.33-2.7s13.12-3.24,22.47-3.41,12.56.81,12.56.81.45.05.56-.1a.53.53,0,0,0,0-.55,15.48,15.48,0,0,0-2.75-1l-2.42-.5s-1.37-.23-4.67-.55a82.07,82.07,0,0,0-20.94,1.13c-7.54,1.26-17.25,3.59-17.25,3.59l-21.57,5.57s-11.89,3.92-23.91,3.23c-6.29-.36-11.86-2-14-3.05s-2.88-.72-6.65-4-5.24-7.08-5.9-11.48a18.5,18.5,0,0,1,2.48-11.89c2.19-3.39,7-6.67,12-7.91,4.3-1.06,8.91-.89,12.53-.81,6,.12,15.87,2.61,15.87,2.61l13.66,3.77s12.59,3.41,19.06,5a115.8,115.8,0,0,0,15.45,2.34,31.22,31.22,0,0,0,16.17-2.91c6.66-2.73,10.85-8.13,13.43-15.53a52.7,52.7,0,0,0,2.81-14.91l-.09-.61a.82.82,0,0,0-.26-.62A1,1,0,0,0,429,202l-9,2.46a2.81,2.81,0,0,0-.54.7c-.08.26-.17.61-.17.61a25.94,25.94,0,0,1-.17,5.79,23.51,23.51,0,0,1-2,7.11l-.62.88a2.41,2.41,0,0,1-1.32.62c-.78.09-1.31.09-1.31.09s-.36-.18-.36-.44a2.2,2.2,0,0,1,.36-.79s.35-1,.7-2.2a32.85,32.85,0,0,0,.78-4,21.18,21.18,0,0,0-.08-5.18,3.34,3.34,0,0,0-.36-1,.48.48,0,0,0-.62-.27l-9.74,2.46-.27.44a.56.56,0,0,0,0,.7l.17,2a23.32,23.32,0,0,1-.35,5.61,6.74,6.74,0,0,1-1.58,3.16,3.52,3.52,0,0,1-1.49.61c-1,.18-1.23-.09-1.23-.09v-.52a5.54,5.54,0,0,0,.26-1.49,30.49,30.49,0,0,0,.45-4.57,10.53,10.53,0,0,0-.45-3.51s-.08-.61-.43-.79a1,1,0,0,0-.71-.06l-8,2.19s.69,1.37,0,4.78-.36,3.06-1.44,4.5-.9,1.61-2.16,2.16a5.19,5.19,0,0,1-2.69.54,32,32,0,0,1-5.58-.36c-1.61-.36-6.28-1.26-13.84-3.59S353.37,216.93,349,216c-4.73-1-8-1.61-9.74-1.83-1.35-.16-2.29-.24-2.94-.29a57.65,57.65,0,0,0-6.24-.31l-3.73.14-3.23.27v0a38,38,0,0,0-14.31,4.71,24.44,24.44,0,0,0-12.73,22.69s-.18,12.28,7.37,19.3m-54.2,16.9s-2.19,3.84-4.89,8.46a53.59,53.59,0,0,0-3.7,7.07,14.31,14.31,0,0,0-1,6.22c0,.66.16,2.07.16,2.07a3,3,0,0,0,.25.91c.16.25.66.25.66.25l.41-.25.16-.58a11,11,0,0,1,1.62-4.05,17.81,17.81,0,0,1,4.62-4.76,35.43,35.43,0,0,1,4.91-3.08c2.39-1.32,5.18-2.44,9.58-4.79a33.31,33.31,0,0,0,7.76-5.29c2.4-2.15,2.86-2.92,4.87-6.44a31.42,31.42,0,0,0,2.39-8.26,27.66,27.66,0,0,0,0-6.71s3.24,12,6.49,18.46,6.09,8.32,6.09,8.32l4.87.4a43.56,43.56,0,0,1,9.54,1.92c8.38,2.62,11.36,7,11.36,7l-3.25,1.62a69.07,69.07,0,0,0-7.78-3.29,36.3,36.3,0,0,0-14.81-1.63c-12.62,1.2-17.78,5.54-17.17,4.32a24.4,24.4,0,0,1,4.46-5.68,59.61,59.61,0,0,1,5.07-4.46l-2.81-.27a4.17,4.17,0,0,0-2.39.65,59.86,59.86,0,0,0-5.77,3.59A33.11,33.11,0,0,0,260.11,302a28.74,28.74,0,0,0,.66,24.49c4.57,8.6,11.66,9.52,11.66,9.52l.4-.81-1.5-1.31s-1.72-2.2-2.94-4-2.75-6.49-2.93-10.78c-.33-7.4,3.07-14.41,10.77-17.41,14.25-5.55,24.37,5.23,26.83,12,.07.21.45.37.82.37s.8-.46.8-.46c.73-.63,5.34-4.24,15-7.25a90.71,90.71,0,0,1,19.74-4c11.67-1.26,28.37-2.42,28.37-2.42l.74-.1s.42-.42.32-.84-.84-.53-.84-.53h-8.41s-10.4-.42-20.48-1.47a83.61,83.61,0,0,1-15.51-2.81l-.64-.9a18,18,0,0,0-8.32-6.61,24.46,24.46,0,0,0-4.88-1.34s-1-.38-3.85-1.67a43.77,43.77,0,0,1-8.72-5.38c-3.59-2.69-6.41-6.41-9.1-11.54s-4.23-11.54-5.38-19,.35-17.47.35-17.47l.23-.77v-.61a1.76,1.76,0,0,0-.76-.61,4,4,0,0,0-1.3-.46,8.43,8.43,0,0,0-6.25,1.6l-2.21,1.37c-.39.23-.53.23-1.6.23s-8.46-.61-10.06-1a2.91,2.91,0,0,1-2-1.17.27.27,0,0,0-.3,0c-.15.08-.12,0-.15.2s.09,1.41.09,1.41a9.16,9.16,0,0,0,.88,3c.67,1.21.47,1.34,1.34,2a8.68,8.68,0,0,0,2,1.08l1.75,1.14,1.15,1.34s7.72,8.12,7,18.85c-.49,7.27-2.31,9.67-5.12,13.22a20.67,20.67,0,0,1-6.28,5.37,37.2,37.2,0,0,1-4,2.24s-.53.3-.74.06a.64.64,0,0,1-.18-.4s-.42-1.57.83-4.3a75.63,75.63,0,0,0,3.88-10.66,30,30,0,0,0,1.49-11.32c-.22-3.81-.66-3.88-1.07-4.79s-.74-1.07-1.07-1.15a2,2,0,0,0-.74,0l-.09.33v.41s.91,8.18-2.14,14.87-8.3,15.84-8.3,15.84m231,62.4a2.71,2.71,0,0,1-.64,1.51l-.16.32s-6.72,11.82-8.62,24.42-1.48,27.81-1.48,27.81a9.52,9.52,0,0,1,0,2.1c-.13,1.08-.32,1.72-.51,1.85s-.38.32-.57.25a2.14,2.14,0,0,1-.51-.38l-.18-.51a12.09,12.09,0,0,0-2.1-4.14c-1.47-1.72-2.1-2-3.13-2.29a2.89,2.89,0,0,0-1.9-.13c-.44.13-.57.25-.7.51a3.18,3.18,0,0,0-.13,1l.13.7,3,8.47a9.51,9.51,0,0,0,1.79,2.74,4.28,4.28,0,0,0,3.24,1.72,7,7,0,0,0,3.82-.26,26.35,26.35,0,0,0,4-2.29s.65-.51,1-.83.51-.77,1.08-.7a1.07,1.07,0,0,1,1,.64,2,2,0,0,1,.31,1.15,5.13,5.13,0,0,1-.44,2.42,13.19,13.19,0,0,1-3.25,4.33,30.18,30.18,0,0,1-3.69,2.74l-1.85,1a13.34,13.34,0,0,0-1.46.89c-.39.32-.89.76-.89.76l-.25.38-.13.45-.07,1.08v6.24a31.38,31.38,0,0,1-.13,4.71,8.91,8.91,0,0,1-.95,2.86,32.27,32.27,0,0,0-2.37,6.12,7.11,7.11,0,0,1-6,5.47H434.88s-.63.06-1.46-1a29.78,29.78,0,0,1-2-3.25s.06-.12-.25-.25a3.89,3.89,0,0,0-.71-.19h-1l-2.81-.13a1.43,1.43,0,0,1-1.08-.45,2.78,2.78,0,0,1-.82-2,14.38,14.38,0,0,1,1-6.43,11.58,11.58,0,0,1,2.76-4.1,12.74,12.74,0,0,1,4.32-2.55l1.24-1.61a4,4,0,0,1,.9-.77c.63-.41,1.32-.83,1.32-.83s2.23-.77,3.69-1.32,3.47-1.18,4.09-2.43a5.76,5.76,0,0,0,.91-2.78c.13-1.39.13-3.61.13-3.61a33.15,33.15,0,0,1-.27-3.89,42.87,42.87,0,0,1,.27-5c.14-2.71,1-8.05.57-13.2s-.92-8.81-1.16-11.6a22.62,22.62,0,0,0-1.39-6.38s-11.83-.58-18.79-1.62a81.47,81.47,0,0,1-15.9-3.59,28.33,28.33,0,0,1-8.81-4.41,28.65,28.65,0,0,1-4.29-3.48c-.58-.58-2-2.09-2-2.09s-1.85,2.67-3.82,5.8a36.92,36.92,0,0,0-3.83,7.07,8.31,8.31,0,0,0-.59,2.9c0,.93.23,3.71.23,3.71l1.51,8,.22,1.39a2.59,2.59,0,0,1-.22,1.74,3.48,3.48,0,0,1-1.46,1.07l-3.21,1.53s-9.56,3.38-16.89,6.43-17.11,9.33-17.6,10.93-.32.72-.32,1.2.16,1.61.16,1.61l.48,1,.8,1.29,1.85,1.53,1.76,1.28.89.73a2,2,0,0,1,.4,1.6c-.23.81-1.2,1.45-2.65,1.61a14.71,14.71,0,0,1-7.56-1.2c-3.29-1.45-5.22-2.42-5.22-2.42a29.73,29.73,0,0,0-4,2.33,10.28,10.28,0,0,0-3.54,4,4.42,4.42,0,0,0-.54,2.25,2.58,2.58,0,0,0,.14.89l.13.41.55.41s.2.07.34.55a6.94,6.94,0,0,1,.07,1.64l-.2,2a12.05,12.05,0,0,1-.88,2.39,25.65,25.65,0,0,1-3.08,3.07h-24s-.2.07-.75-.75a8,8,0,0,0-1.36-1.5c-.48-.48-1.37-1.17-1.37-1.17a2.12,2.12,0,0,1-1.16-.89,2.57,2.57,0,0,1-.27-2.52c.41-1.3,1.64-5.87,1.64-5.87a17.72,17.72,0,0,1,1.09-3.14,7.92,7.92,0,0,1,1.36-2.25,19.32,19.32,0,0,1,3.62-2.39l9.28-5.05a11.59,11.59,0,0,0,2.18-1.64,28,28,0,0,0,1.78-2.39,6.34,6.34,0,0,1,2.11-3.09,45.22,45.22,0,0,1,4-3.19L342,385.16l7.14-5.63a38.59,38.59,0,0,0,3-3.19,6.51,6.51,0,0,0,1.17-2.86S354,371,353,363.14c-.71-5.53-1.34-6.21-1.94-7.81a5.59,5.59,0,0,0-.95-1.92s-2.26-1.18-6.15.87c-18.13,9.57-37.76,23.31-65.38,26.43-11,1.24-18.27-.29-18.27-.29l-1.35-.23a2.48,2.48,0,0,0-1.23-.11,3,3,0,0,0-1.24.56s-2.58,2-4.72,3.6a71.17,71.17,0,0,1-8,5.05c-4.49,2.58-9.21,4.38-17.52,7.08s-18.31,5.39-23.93,7.42-13.26,5.05-13.26,5.05L181,412.48a17.64,17.64,0,0,0-2,1.4c-.64.56-.49.49-.84,1.26s.35,1.75.35,1.75,3,2.87,3.22,3.22.2.56-.07,1.05-1.32.77-1.32.77a40.18,40.18,0,0,1-3.85,1.19,8.21,8.21,0,0,1-3,.07,14.42,14.42,0,0,1-4.13-1.26c-1-.49-2.44-1.26-2.44-1.26l-1.19-.35a5.18,5.18,0,0,0-1-.14c-.49,0,0,0-.71.28s-.9.49-1.68,1.75a20.82,20.82,0,0,0-1.4,4.83s-.49,3.22-.7,4.83a10.23,10.23,0,0,1-.84,2.87s-1.12,3.85-1.41,5a4.49,4.49,0,0,1-1.32,2.45,3.29,3.29,0,0,1-2.1,1H129.64a3.76,3.76,0,0,1-.91-.21,3.78,3.78,0,0,0-.5-.21,24.85,24.85,0,0,1-2.44-2.59,10.77,10.77,0,0,1-1.68-3,5,5,0,0,1-.48-2.94c.13-.56.26-.55.26-.55a.35.35,0,0,1,.26-.16h.16l.26.21a2.11,2.11,0,0,0,.51.56.87.87,0,0,0,.72.2c.36,0,.31.05.62-.2a10.82,10.82,0,0,0,.92-1,31.11,31.11,0,0,1,3.35-4.94,30.11,30.11,0,0,1,3-3.09l.36-.2a1,1,0,0,1,.46-.11h1.54s.21.05.26.2a.76.76,0,0,1-.06.41l-.26.26a14.48,14.48,0,0,0-3.19,3.19c-1.33,1.9-1.8,2.73-1.8,2.73a2.07,2.07,0,0,0-.46,1.08c-.06.62-.1.77.05,1.08a1.84,1.84,0,0,0,.51.56l.36.16.2.2a.42.42,0,0,1,0,.42s-.25,1.13.26,1.44a1.73,1.73,0,0,0,1,.26s.26.2,1.75.15a5.71,5.71,0,0,0,2.42-.57l.46-.36.36-.41.57-1a15.75,15.75,0,0,1,1.8-5.19,9.28,9.28,0,0,1,2-2.42,16.68,16.68,0,0,1,1.69-1.54s.37-.41.62-.36a2,2,0,0,1,.46.16l.16.31-.06.46-.1.52a.57.57,0,0,1-.2.26,6.33,6.33,0,0,0-1.5,1.59,12,12,0,0,0-1.13,2.52,12.68,12.68,0,0,0-.36,1.85,13.56,13.56,0,0,0,0,1.9,7.29,7.29,0,0,0,.37,1.6,4.07,4.07,0,0,0,.56.67c.2.16.31.31.51.31s.36.15.77,0,1.4-.41,1.4-.41a20.69,20.69,0,0,0,2.77-1.9,18.32,18.32,0,0,0,1.76-1.85,3,3,0,0,0,.82-1.8c0-.41.05-.62-.05-.77s-.26-.41-.26-.41l-.21-.21a1.42,1.42,0,0,1-.1-.87l.2-.42a2.71,2.71,0,0,1,1-.72c.77-.36,1.79-.77,1.79-.77l1.76-.57.57-.26a9.34,9.34,0,0,0,1.23-.76,4.7,4.7,0,0,0,.88-1.81,7.23,7.23,0,0,0,.59-2.25c0-.33-.38-.84-.38-.84l-.18-.21s-.1-.24-1-.14a4.17,4.17,0,0,0-1.47.28,19.63,19.63,0,0,0-2.1,1,6,6,0,0,1-1.26.7c-.46.16-.5.27-1,.22a2,2,0,0,1-1-.36c-.2-.16-.77-.42-.82-.67s-.06-.09,0-.41,2.64-2.36,3.84-3.79a33,33,0,0,0,2.82-3.88,37.93,37.93,0,0,1,2.89-4,12.92,12.92,0,0,1,5.75-3.29s11.18-2.33,16.67-3.88,11.51-3.56,16.35-6.47A55.69,55.69,0,0,0,208,387.66c4.47-4.82,7.54-8.45,11.17-12.09,3.35-3.36,4.29-3.84,5.38-4.54a7.36,7.36,0,0,1,2.37-1.12,1.88,1.88,0,0,1,1.47,0,2.2,2.2,0,0,1,.7.49v.42l-.21.28a34.44,34.44,0,0,0-4.6,5.45c-1.54,2.51-1.68,2.51-2.52,4.12a22,22,0,0,0-1.39,3.57.94.94,0,0,0,.07.77c.2.49.55.49.55.49h.35l.42-.07s5.8-.35,11.6-5.59a105.55,105.55,0,0,0,10.41-11l3.28-4.33a12.59,12.59,0,0,1,1.75-1.47,3.1,3.1,0,0,1,1.33-.35l.63.07a.75.75,0,0,1,.35.34,1,1,0,0,1,0,.49l-.21.35a32.62,32.62,0,0,0-1.62,3.21,16.21,16.21,0,0,0-1.26,4,9.2,9.2,0,0,0,0,2.82c.15.56.21.84.49,1s.63.35.63.35h1.61a34.52,34.52,0,0,0,5-1.27,17.79,17.79,0,0,0,5.1-2.23c1.19-.83,1.68-1.33,1.89-2.16a6.93,6.93,0,0,0,.14-2.24,7.68,7.68,0,0,0-.77-2.16l.1.16a12.68,12.68,0,0,0-3-4.21,11.21,11.21,0,0,0-3.67-2.41l-.63-.25v-1.14a69.1,69.1,0,0,0,16-1.65c6.72-1.65,12.17-3.8,15.09-6.85,1.16-1.21,4.82-4.82,3.29-8.24-.56-1.26-3.12-2.82-4.43-1.78l-.76.63-.64.76a1.55,1.55,0,0,1-1.78.76c-1.14-.38-2.66-3.55-2-6a6.27,6.27,0,0,1,3.55-4.31,8.18,8.18,0,0,1,4.19-.76,31,31,0,0,1,5.07,1c2.66.51,7.35,2,7.35,2a147.21,147.21,0,0,0,15.47,3.17c8.18.91,6.84.64,9.13.64s3.55-.13,3.55-.13l2-.12a6.58,6.58,0,0,0,2.8-1.4s9.18-7.64,11.63-9.46a29,29,0,0,1,8.47-4.51,51,51,0,0,1,12.5-2.77,44,44,0,0,1,8.55-.08,28.6,28.6,0,0,1,4,.79s.48.16.55.4a.87.87,0,0,1-.07.55l-.33.24-.55.16a66.49,66.49,0,0,0-10.61,1.74c-5.69,1.42-11.38,3.88-14,5.79-3.24,2.32-3.57,2.51-5.71,5a28.37,28.37,0,0,0-3.52,4.85c-.55,1-1.26,2.52-1.1,3.08a16,16,0,0,0,.71,1.74,1.08,1.08,0,0,0,.71.55,4,4,0,0,0,1.27.23c.47,0,3.26-.76,3.26-.76a62.11,62.11,0,0,1,11.8-2.66,114.12,114.12,0,0,1,12.75-.86l6.09-.1,2.66-.09L383,339l1-.09c1.6-.44,1.72-1.38,1.72-1.38s.63-3.6,1.29-4.61c1-1.43.75-1.66,1.89-1.66a15.19,15.19,0,0,1,4.23.79l1.9.76,1.62,1.62.76,2a23.83,23.83,0,0,0,4.17,8.88c3.19,4.07,5.27,8.62,13.33,10.77a71.76,71.76,0,0,0,18.83,2.72c5.91.16,10,.48,10,.48s.16-.07,1.19.16,4.87,1.6,4.87,1.6l5.19,2.07s3.35,1,4.54,1.2,2.15.32,2.56-.08.64-.24.55-1.12a6.39,6.39,0,0,0-.47-2.07c-.16-.24-.32-.24-.55-.48a4.7,4.7,0,0,0-1.37-.48,16.34,16.34,0,0,1-3.67-2.32c-1.51-1.36-3-3.27-5.27-5.19a58.9,58.9,0,0,0-4.87-3.67,20.9,20.9,0,0,0-6.95-3.44,15.87,15.87,0,0,0-4.38-.4,10,10,0,0,0-3.92,1c-1.28.64-1.55.57-2.27,1.53s-.85.79-.92,1.59a5.22,5.22,0,0,0,0,1.28l.16.4s-7.67.45-15.57-7.61a28.49,28.49,0,0,1-6.93-9.62,77.84,77.84,0,0,1-3.18-9.2l-2-6.44s-.23-.82,0-1a7.65,7.65,0,0,1,1.88-.09l1.62.16a1.22,1.22,0,0,1,.74.25,9.05,9.05,0,0,1,.73,1.06s1.47,3,2.93,5.3a34.6,34.6,0,0,0,4.56,5.95,39,39,0,0,0,7.66,6.84c3,1.87,4.56,2.44,6.43,2.61a22,22,0,0,0,7.65-.08c3.11-.73,5.71-1.47,6.85-2.44a8.9,8.9,0,0,0,1.87-2.2,7.18,7.18,0,0,0,.65-1.14l.32-.33.34-.16a18.12,18.12,0,0,1,8.63,2.85c4.64,2.85,6.12,4,6.12,4l.89.65a1.67,1.67,0,0,1,.41.73,2.1,2.1,0,0,1,0,.81,11.82,11.82,0,0,0-.08,2.77,10.61,10.61,0,0,0,2,4.73,5.46,5.46,0,0,0,3.75,2c1.47.16,2.64-.07,3.12-.79a3.73,3.73,0,0,0,.87-3.38,4.67,4.67,0,0,0-1.12-2.82l-.79-.52a.73.73,0,0,1-.08-.56,5.43,5.43,0,0,1,1-1.18s4.54.38,5.66-.66a4.78,4.78,0,0,0,1.27-1.52.63.63,0,0,0-.08-.64,1.17,1.17,0,0,0-.64-.4,1.1,1.1,0,0,1,0-1,2.13,2.13,0,0,1,1-.88l.72-.24h.72l1.53,1.6a3.81,3.81,0,0,1,.56,1.68M297.57,365.87a.59.59,0,0,0-.67-.1,19.29,19.29,0,0,0-2.2-.58c-1.05-.19-1.54-.48-2.12-.58a27,27,0,0,1-3.84-1.25c-1.44-.58-3.36-1.54-3.36-1.54l-3-1.63a3,3,0,0,0-1-.19,1.12,1.12,0,0,0-.76.29,21.64,21.64,0,0,1-3.46,1.44c-1.44.38-2.4.58-2.4.58a1.88,1.88,0,0,0-.09,1.06c.09.67.86.86.86.86s2,1.47,7.58,2.88a29.28,29.28,0,0,0,12.76.28l1.55-.48.38-.38a.67.67,0,0,0-.29-.67m19.58-9.8c-.36,0-1.45-.1-1.45-.1a25.92,25.92,0,0,1-2.78-.29c-2.1-.29-1.34-.19-8.06-1.34A72.07,72.07,0,0,1,292.48,351H292l-.38.19s.09,0-1.63,1.73a19.88,19.88,0,0,1-2,1.73s-.29.09-.39.58.1.38.39.76.86.39,3,1.06A84.35,84.35,0,0,0,303.24,359a74.12,74.12,0,0,0,8.34.29,15.79,15.79,0,0,0,5.86-1c2.79-1.19,1.25-2.21-.29-2.21m12.38-10.46c0-.39-.67-.39-.67-.39s-.76,0-3.36-.09a69.44,69.44,0,0,1-14-2,86.34,86.34,0,0,1-13.15-4,8.48,8.48,0,0,0-2.2-.67c-.39.1-.2,1.15-.2,1.54a10.26,10.26,0,0,1-.76,3.16.64.64,0,0,0-.19.67c.1.48.39.38.39.38l1,.39,3.36,1.06s1.06.38,7.49,1.92a56.8,56.8,0,0,0,13.73,1.73,24.88,24.88,0,0,0,6.43-1.15,10,10,0,0,0,1.82-1.24,4.84,4.84,0,0,0,.38-1.25m-1.06,65.09c-1.47-.13-3.37,1.83-4.33,2.68-2,1.77-6.19,4.18-6,7.26.11,1.63,5.6,1.52,5.85.27.43-2.24,4-5.62,6.07-8.7.77-1.14-.94-1.46-1.6-1.52m51.1-52.38a1.53,1.53,0,0,0-1.35-.75c-.66,0-2,.36-3.46,2.76a27,27,0,0,0-1.28,3.77l-.85,4.84c-.11.75-1.09,7.37-2.56,9.39-1.75,2.41-8.37,6.46-8.63,6.61-.1.07-10.55,6.86-13,8.84-1,.8-1.22,1.44-1.2,1.55a.47.47,0,0,0,.24,0,4.25,4.25,0,0,0,2-.72c5.44-3.14,14.31-7.48,14.4-7.51l14.3-7.1-1.1-7.86c0-.35,0-8.64,2.56-12.88a1,1,0,0,0,0-1m62.73,67.78,1-.5.39-.4v-.69a1.35,1.35,0,0,0-.79-.6,3.92,3.92,0,0,0-1.1-.2l-1.48.1s-.7-.1-1-.1a8,8,0,0,0-.89.1,26.08,26.08,0,0,0-4.56,2.38,7.55,7.55,0,0,0-3.47,5.06l-.09,1.19.39.79s2,.5,3,.89a3.3,3.3,0,0,0,2.68-.3c.39-.3.29-.6.29-.6l.5-1.48s.43-.81,1.28-2.38a8.64,8.64,0,0,1,3.87-3.27m14.18-8.83c-1.59,0-1.39,2.94-1.54,3.82-.68,3.85-2.55,3.53-5.83,5.13-3.43,1.68-5.92,4-6.52,7.8,0,.57.26,4.45,1.39,3.66.53-.37.5-1,1.19-1.28,2.94-1.17,6,.56,8.92.3,2.06-.18,6.42-2.94,4.46-5.55-.75-1-2.95.37-.78-2.08,1.49-1.69,4-1.23,4.94-2.74,1.22-1.89.22-4.09-.58-5.89-1-2.19-3.44-3.17-5.65-3.17" transform="translate(-115.67 -201.95)"/><rect class="cls-1" x="5.73" y="373.12" width="347.6" height="8.82"/><path class="cls-1" d="M146.39,634.41v4.48a21.23,21.23,0,0,1-10.33,2.44,15.91,15.91,0,0,1-8.07-1.91,14.44,14.44,0,0,1-7.17-12.52,13.87,13.87,0,0,1,4.42-10.43,15.19,15.19,0,0,1,10.9-4.23,25.63,25.63,0,0,1,9.94,2.34v4.37a19.54,19.54,0,0,0-9.74-2.85,11.28,11.28,0,0,0-8.11,3.08,10.87,10.87,0,0,0,0,15.4,11.31,11.31,0,0,0,8.11,3A18.37,18.37,0,0,0,146.39,634.41Z" transform="translate(-115.67 -201.95)"/><path class="cls-1" d="M175.74,612.2a15.29,15.29,0,0,1,11,4.17,13.82,13.82,0,0,1,4.38,10.45,13.6,13.6,0,0,1-4.42,10.4,15.74,15.74,0,0,1-11.15,4.11,14.82,14.82,0,0,1-10.7-4.11,13.71,13.71,0,0,1-4.28-10.32,14,14,0,0,1,4.3-10.53A15,15,0,0,1,175.74,612.2Zm.16,3.86a11,11,0,0,0-8,3,10.37,10.37,0,0,0-3.14,7.78,10.19,10.19,0,0,0,3.15,7.64,11.69,11.69,0,0,0,15.81-.06,10.37,10.37,0,0,0,3.19-7.75,10.14,10.14,0,0,0-3.19-7.59A10.79,10.79,0,0,0,175.89,616.06Z" transform="translate(-115.67 -201.95)"/><path class="cls-1" d="M206.47,612.61h4.06V637.3h12.79V641H206.47Z" transform="translate(-115.67 -201.95)"/><path class="cls-1" d="M237.28,612.61h4.06V637.3h12.79V641H237.28Z" transform="translate(-115.67 -201.95)"/><path class="cls-1" d="M268.09,612.61h16.1v3.62h-12v8.66h11.63v3.64H272.16v8.82h12.42V641H268.09Z" transform="translate(-115.67 -201.95)"/><path class="cls-1" d="M323.79,634.41v4.48a21.18,21.18,0,0,1-10.32,2.44,15.87,15.87,0,0,1-8.07-1.91,14,14,0,0,1-5.25-5.26,14.24,14.24,0,0,1-1.94-7.26,13.86,13.86,0,0,1,4.43-10.43,15.17,15.17,0,0,1,10.91-4.23,25.62,25.62,0,0,1,9.93,2.34v4.37a19.51,19.51,0,0,0-9.73-2.85,11.27,11.27,0,0,0-8.1,3.08,10.88,10.88,0,0,0-.05,15.4,11.32,11.32,0,0,0,8.11,3A18.37,18.37,0,0,0,323.79,634.41Z" transform="translate(-115.67 -201.95)"/><path class="cls-1" d="M336.78,612.56H360.5v3.62h-9.9V641h-4.08V616.18h-9.74Z" transform="translate(-115.67 -201.95)"/><path class="cls-1" d="M374.78,612.61h4.07V641h-4.07Z" transform="translate(-115.67 -201.95)"/><path class="cls-1" d="M409.5,612.2a15.28,15.28,0,0,1,11,4.17,13.82,13.82,0,0,1,4.38,10.45,13.61,13.61,0,0,1-4.42,10.4,15.73,15.73,0,0,1-11.15,4.11,14.83,14.83,0,0,1-10.7-4.11,13.71,13.71,0,0,1-4.28-10.32,14,14,0,0,1,4.31-10.53A15,15,0,0,1,409.5,612.2Zm.16,3.86a11,11,0,0,0-8,3,10.37,10.37,0,0,0-3.14,7.78,10.2,10.2,0,0,0,3.15,7.64,11.7,11.7,0,0,0,15.82-.06,10.4,10.4,0,0,0,3.18-7.75,10.17,10.17,0,0,0-3.18-7.59A10.8,10.8,0,0,0,409.67,616.06Z" transform="translate(-115.67 -201.95)"/><path class="cls-1" d="M462.8,612.61h3.87V641h-3.5l-19-21.87V641h-3.82v-28.4h3.29l19.15,22.05Z" transform="translate(-115.67 -201.95)"/></svg>