<?xml version="1.0" encoding="utf-8"?>
<!-- Generator: Adobe Illustrator 16.0.0, SVG Export Plug-In . SVG Version: 6.00 Build 0)  -->
<svg version="1.1" id="Layer_1" xmlns="http://www.w3.org/2000/svg" xmlns:xlink="http://www.w3.org/1999/xlink" x="0px" y="0px" viewBox="11.793 11.396 13.425 5.708" enable-background="new 11.793 11.396 13.425 5.708"
	 xml:space="preserve">
<g>
	<polygon fill="#222944" points="12.015,11.396 12.015,14.147 13.648,14.147 13.648,13.788 12.408,13.788 12.408,11.396 	"/>
	<polygon fill="#222944" points="15.607,11.396 15.607,14.144 17.205,14.144 17.205,13.794 16,13.794 16,12.938 17.129,12.938 
		17.129,12.584 16,12.584 16,11.745 17.168,11.745 17.168,11.396 	"/>
	<polygon fill="#222944" points="19.238,11.396 19.238,14.144 20.838,14.144 20.838,13.794 19.631,13.794 19.631,12.938 
		20.76,12.938 20.76,12.584 19.631,12.584 19.631,11.745 20.801,11.745 20.801,11.396 	"/>
	<path fill="#222944" d="M24.785,11.396h0.396v1.562c0,0.212-0.018,0.37-0.047,0.48c-0.031,0.107-0.07,0.198-0.115,0.269
		c-0.043,0.07-0.1,0.134-0.168,0.191c-0.217,0.188-0.504,0.282-0.855,0.282c-0.359,0-0.645-0.094-0.863-0.279
		c-0.068-0.057-0.121-0.121-0.168-0.195c-0.045-0.071-0.084-0.158-0.111-0.262c-0.031-0.104-0.043-0.266-0.043-0.487v-1.559h0.396
		v1.562c0,0.259,0.029,0.44,0.086,0.541c0.061,0.101,0.148,0.181,0.27,0.242s0.262,0.091,0.426,0.091
		c0.236,0,0.424-0.061,0.572-0.185c0.076-0.067,0.135-0.145,0.168-0.232c0.033-0.091,0.051-0.242,0.051-0.46v-1.562H24.785z"/>
	<rect x="11.793" y="14.919" fill="#222944" width="13.425" height="0.293"/>
	<path fill="#222944" d="M12.673,16.875v0.148c-0.097,0.054-0.211,0.08-0.339,0.08c-0.104,0-0.195-0.02-0.265-0.063
		c-0.074-0.04-0.131-0.101-0.171-0.175c-0.044-0.074-0.064-0.154-0.064-0.238c0-0.138,0.047-0.252,0.145-0.343
		c0.098-0.095,0.218-0.138,0.359-0.138c0.098,0,0.208,0.027,0.33,0.077v0.145c-0.111-0.063-0.215-0.095-0.323-0.095
		s-0.195,0.034-0.266,0.102c-0.07,0.066-0.107,0.15-0.107,0.256c0,0.104,0.034,0.188,0.104,0.252c0.07,0.066,0.158,0.1,0.269,0.1
		S12.566,16.946,12.673,16.875"/>
	<path fill="#222944" d="M13.853,16.27c-0.107,0-0.194,0.034-0.265,0.101c-0.071,0.067-0.105,0.151-0.105,0.256
		c0,0.101,0.034,0.185,0.105,0.252c0.07,0.067,0.154,0.101,0.258,0.101c0.104,0,0.191-0.033,0.262-0.104
		c0.071-0.066,0.105-0.154,0.105-0.255s-0.034-0.182-0.105-0.252C14.041,16.304,13.953,16.27,13.853,16.27 M13.846,16.142
		c0.145,0,0.266,0.047,0.363,0.139c0.098,0.09,0.145,0.205,0.145,0.346s-0.047,0.252-0.145,0.343s-0.219,0.134-0.366,0.134
		c-0.142,0-0.259-0.043-0.353-0.134c-0.094-0.091-0.141-0.205-0.141-0.339c0-0.142,0.047-0.256,0.141-0.347
		C13.584,16.189,13.701,16.142,13.846,16.142"/>
	<polygon fill="#222944" points="15.066,16.156 15.066,17.093 15.621,17.093 15.621,16.972 15.199,16.972 15.199,16.156 	"/>
	<polygon fill="#222944" points="16.289,16.156 16.289,17.093 16.844,17.093 16.844,16.972 16.424,16.972 16.424,16.156 	"/>
	<polygon fill="#222944" points="17.508,16.156 17.508,17.093 18.053,17.093 18.053,16.972 17.643,16.972 17.643,16.683 
		18.025,16.683 18.025,16.562 17.643,16.562 17.643,16.277 18.039,16.277 18.039,16.156 	"/>
	<g>
		<path fill="#222944" d="M19.551,16.875v0.148c-0.098,0.054-0.211,0.08-0.34,0.08c-0.104,0-0.191-0.02-0.266-0.063
			c-0.072-0.04-0.131-0.101-0.17-0.175c-0.045-0.074-0.064-0.154-0.064-0.238c0-0.138,0.047-0.252,0.145-0.343
			c0.098-0.095,0.219-0.138,0.359-0.138c0.098,0,0.209,0.027,0.33,0.077v0.145c-0.111-0.063-0.215-0.095-0.322-0.095
			c-0.109,0-0.195,0.034-0.266,0.102c-0.072,0.066-0.107,0.15-0.107,0.256c0,0.104,0.033,0.188,0.104,0.252
			c0.07,0.066,0.158,0.1,0.27,0.1C19.332,16.982,19.443,16.946,19.551,16.875"/>
	</g>
	<polygon fill="#222944" points="20.186,16.156 20.186,16.277 20.506,16.277 20.506,17.093 20.639,17.093 20.639,16.277 
		20.965,16.277 20.965,16.156 	"/>
	<rect x="21.645" y="16.156" fill="#222944" width="0.135" height="0.938"/>
	<g>
		<path fill="#222944" d="M22.998,16.27c-0.107,0-0.195,0.034-0.266,0.101c-0.07,0.067-0.104,0.151-0.104,0.256
			c0,0.101,0.033,0.185,0.104,0.252s0.154,0.101,0.26,0.101c0.104,0,0.191-0.033,0.262-0.104c0.07-0.066,0.104-0.154,0.104-0.255
			s-0.033-0.182-0.104-0.252C23.186,16.304,23.102,16.27,22.998,16.27 M22.994,16.142c0.145,0,0.266,0.047,0.363,0.139
			c0.098,0.09,0.145,0.205,0.145,0.346s-0.051,0.252-0.145,0.343c-0.098,0.091-0.219,0.134-0.365,0.134
			c-0.143,0-0.26-0.043-0.354-0.134s-0.141-0.205-0.141-0.339c0-0.142,0.047-0.256,0.141-0.347
			C22.729,16.189,22.85,16.142,22.994,16.142"/>
	</g>
	<polygon fill="#222944" points="24.957,16.156 24.957,16.885 24.324,16.156 24.217,16.156 24.217,17.093 24.342,17.093 
		24.342,16.371 24.971,17.093 25.084,17.093 25.084,16.156 	"/>
</g>
</svg>
