<?xml version="1.0" encoding="UTF-8"?>
<svg width="72px" height="50px" viewBox="0 0 72 50" version="1.1" xmlns="http://www.w3.org/2000/svg" xmlns:xlink="http://www.w3.org/1999/xlink">
    <!-- Generator: Sketch 44.1 (41455) - http://www.bohemiancoding.com/sketch -->
    <title>main-logo-top</title>
    <desc>Created with Sketch.</desc>
    <defs></defs>
    <g id="Page-1" stroke="none" stroke-width="1" fill="none" fill-rule="evenodd">
        <g id="main-logo-top" fill-rule="nonzero" fill="#BE9330">
            <path d="M21.0528522,9.26781328 C21.0366783,9.03794702 21.0267652,8.64346167 21.2902435,8.58558561 C21.4650261,8.54709253 21.8007652,8.69314768 21.9987652,8.69505869 C22.3212,8.69806172 22.5745043,8.64509965 22.8549391,8.47829646 C22.9759826,8.40649742 23.0179826,8.87414687 22.7985913,8.99181 C22.0149391,9.40786242 21.2007652,9.75375374 20.3592,9.75375374 C20.0299826,9.75375374 19.6214609,9.98716899 19.3572,10.1681682 C19.1581565,10.3052143 19.0564174,10.4359814 18.8717217,10.1654382 C18.8083304,10.0756211 19.6086783,9.56374556 20.0174609,9.32678131 C20.321113,9.15069616 20.1734609,8.64018566 20.6297217,8.52088455 C20.7797217,8.48075348 21.1039826,8.47693146 20.8055478,8.64018566 C20.5783304,8.76221677 20.6396348,9.32186732 21.0528522,9.26781328 L21.0528522,9.26781328 Z M2.06206957,21.9041769 C2.29946087,21.992629 2.50215652,22.01092 2.69128696,21.97543 C2.87624348,21.9396669 3.2018087,21.8506688 3.35441739,21.7439258 C3.5078087,21.6374557 3.4392,21.6909637 3.59285217,21.5301665 C3.74441739,21.3704614 3.77911304,21.2803713 3.77911304,21.2803713 L3.84693913,21.2096642 L3.9158087,21.2096642 C3.9158087,21.2096642 4.73233044,21.1744472 5.37902611,20.4799345 C6.02441739,19.7856948 6.14415653,19.6612067 6.28085216,19.0739831 C6.41650436,18.4862135 6.48354781,18.0947311 6.48354781,18.0947311 C6.48354781,18.0947311 6.60120002,17.6374557 6.7882435,17.5664756 C6.97502609,17.4952225 7.18633044,17.6107016 7.18633044,17.6107016 C7.18633044,17.6107016 7.36711306,17.6674857 7.5721565,17.8282828 C7.77719998,17.987442 7.91285219,18.2012012 8.01459128,18.4155064 C8.11685216,18.6292656 8.16720002,18.8244608 8.20137392,19.1100191 C8.23633045,19.3939394 8.32006955,20.0518701 8.32006955,20.0518701 C8.32006955,20.0518701 8.35502608,20.4619165 8.44059131,20.6584767 C8.5261565,20.8539448 8.62789564,20.9429429 8.72989567,21.01365 C8.8305913,21.0859951 8.96702608,21.1403221 9.05285216,21.1586132 C9.13841739,21.1760852 9.25685217,21.1739012 9.25685217,21.1739012 C9.25685217,21.1739012 9.32415652,21.1586132 9.35911305,21.1209391 C9.43554781,21.039858 9.42772175,20.960688 9.42772175,20.960688 C9.42772175,20.960688 9.42380872,20.5989626 9.50885217,20.2192192 C9.58215653,19.8921649 9.70789564,19.7725908 9.8498087,19.6977887 C10.079113,19.5782146 10.4769391,19.7575758 10.5494609,19.8323778 C10.6258956,19.9115479 10.7761565,20.025662 10.7761565,20.025662 L11.1606782,20.5020475 L12.7063304,23.3923014 C12.7063304,23.3923014 13.2390261,24.3207753 13.8854609,25.3172263 C14.9145913,26.9090909 15.8185043,26.8951679 15.9335478,26.8951679 C16.0485913,26.8951679 16.0976348,26.8951679 16.1628522,26.7750478 C16.229113,26.6543817 16.1959826,26.4127764 16.1959826,26.4127764 C16.1959826,26.4127764 16.2244174,25.7095277 16.4385913,24.936391 C16.6512,24.1621622 16.7325913,23.937756 17.0125043,23.4223314 C17.2926783,22.9060879 17.7682435,22.2184002 17.7682435,22.2184002 L18.1138956,21.7542997 C18.1138956,21.7542997 18.1960696,21.7021567 18.1629391,21.6161616 C18.1298087,21.5301665 18.0476348,21.5129675 18.0476348,21.5129675 L17.7518087,21.4441715 L17.571287,21.4266994 C17.571287,21.4266994 17.2436348,21.6161616 16.7169391,22.1321321 C16.3016348,22.5402675 16.2565043,22.6486486 15.9450261,23.0611521 C15.7157217,23.3644554 15.6142435,23.5252525 15.6142435,23.5252525 C15.6142435,23.5252525 14.8924174,22.958231 14.1353739,22.0455911 C13.5408522,21.3278733 13.0840696,20.4812995 13.0840696,20.4812995 C13.0840696,20.4812995 14.0218957,20.9279279 15.0072,21.2377832 C15.9932869,21.5473656 16.5199826,21.5992356 16.5199826,21.5992356 C16.5199826,21.5992356 16.6843304,21.4613705 16.7005043,21.2724543 C16.7169391,21.0829921 16.6342435,20.9453999 16.6342435,20.9453999 C16.6342435,20.9453999 15.8443304,20.9101829 14.3988522,19.7411958 C12.9536348,18.5713896 11.9665043,17.3849304 11.9665043,17.3849304 C11.9665043,17.3849304 11.9333739,17.3502593 11.8347652,17.3502593 C11.7364174,17.3502593 11.6873739,17.4196014 11.6873739,17.4196014 L11.6712,17.4883975 C11.6712,17.4883975 11.8026783,17.7813268 12.0165913,18.0903631 C12.2299826,18.4002184 12.2299826,18.4174174 12.327287,18.5372645 C12.4261565,18.6568386 12.5576348,18.8468469 12.5576348,18.8468469 L12.7725913,19.1214851 C12.7725913,19.1214851 11.7194609,19.2257712 11.0466783,18.8468469 C10.3725913,18.4684685 9.69902611,17.6259896 9.69902611,17.6259896 C9.69902611,17.6259896 9.28815652,16.971881 8.79406956,16.7488397 C8.30102608,16.5252525 7.88989564,16.4897625 7.84163477,16.4897625 L7.38015652,16.4897625 C7.38015652,16.4897625 7.20250434,16.2293203 7.16519998,16.1651652 C7.12789567,16.1001911 7.06346089,16.022659 7.01624348,15.984166 C6.96615652,15.9440349 6.82946089,15.9314769 6.82946089,15.9314769 C6.82946089,15.9314769 6.50389564,15.956866 6.11885216,16.1949222 C5.87546089,16.3456183 5.82302609,16.4228774 5.76406955,16.5795796 C5.73380872,16.6562927 5.68737389,16.8392028 5.68737389,16.8392028 C5.68737389,16.8392028 5.60624347,17.2981163 5.47841737,18.0586951 C5.3712,18.6977887 5.37902611,18.6240786 5.20711306,18.982255 C5.03728695,19.3396123 4.68041739,19.6380016 4.32354783,19.8170898 C3.47206956,20.2446082 2.93572174,20.1217581 2.82589565,19.8763309 C2.71346087,19.6295386 2.67615652,19.5121485 2.67615652,19.5121485 C2.67615652,19.5121485 2.63885217,19.4613705 2.65033043,19.3827464 C2.66441739,19.3054873 2.72546087,19.1624352 2.72546087,19.1624352 L2.77580869,19.019656 C2.77580869,19.019656 2.80006957,18.941851 2.7518087,18.7340977 C2.70015652,18.5263445 2.60102609,18.4613705 2.60102609,18.4613705 L2.53946087,18.4485394 L2.47815652,18.4873055 C2.47815652,18.4873055 2.34589565,18.4752935 2.1878087,18.9219219 C2.1878087,18.9219219 2.10224348,19.2579853 2.04615652,19.3245973 C1.74954783,19.6819547 1.20589565,19.6076986 1.23772174,19.3827464 C1.24293913,19.3439804 1.46128695,18.8244608 1.54633044,18.5140595 C1.63476522,18.2017472 1.65798261,18.0464101 1.75867826,17.8654109 C1.85937391,17.6833197 1.93267826,17.3969424 2.73746087,16.7616708 C3.54354782,16.1261261 4.62615652,15.4641005 5.69154781,15.0619711 C6.75824347,14.6595686 6.83754784,14.6770407 7.16519998,14.6339066 C7.6425913,14.5705706 8.34224347,14.5899536 8.92502611,14.7190827 C9.50702608,14.8495769 9.68467825,14.9342069 10.0065913,15.0767131 C10.3290261,15.2197652 10.3762435,15.2306853 10.3762435,15.2306853 L10.7735478,15.4384384 C10.7735478,15.4384384 10.8591131,15.4903085 10.9214609,15.4384384 C10.9848522,15.3865684 10.923287,15.3177723 10.923287,15.3177723 C10.923287,15.3177723 9.74937392,14.3286923 7.84163477,14.1678952 C7.12502611,14.1067431 6.04633042,14.2579853 4.75293913,14.8383838 C2.7012,15.7583947 1.96137391,16.4236964 1.58989565,16.7611247 C1.10702609,17.1984712 1.09111305,17.4761125 0.988591303,17.7608518 C0.887373911,18.045318 0.785895652,18.3082173 0.666939131,18.6292656 C0.54850435,18.949222 0.293113043,19.4829375 0.293113043,19.4829375 L0.070069565,19.8402948 C0.070069565,19.8402948 -0.2628,20.3532624 0.522417392,20.964237 C0.679721741,21.0884521 1.13311304,21.1872782 1.13311304,21.1872782 C1.13311304,21.1872782 1.21163478,21.1916462 1.31415652,21.2992083 C1.41485217,21.4054054 1.65328696,21.6374557 1.65328696,21.6374557 C1.65328696,21.6374557 1.82285217,21.8151788 2.06206957,21.9041769 L2.06206957,21.9041769 Z M13.7383304,15.5061425 C13.8541565,15.6961507 14.1254609,16.009282 14.3315478,16.1468741 C14.5376348,16.2852853 15.0082435,16.7324597 16.071287,16.6904177 C16.7307652,16.6642096 17.1964174,16.5850396 17.6586782,16.3819274 C18.0998087,16.1878242 18.6004174,15.8381109 18.6004174,15.8381109 L18.9823305,15.5208845 L19.1208522,15.4234234 L19.2518087,15.3404314 C19.2518087,15.3404314 19.3519826,15.2912913 19.4294609,15.2850123 C19.6498957,15.2667213 19.7250261,15.4384384 19.7320695,15.4807535 C19.7419826,15.5238875 19.5935478,15.6363636 19.4696348,15.7553918 C19.4177218,15.8064428 19.2758087,15.9306579 19.2758087,15.9306579 L19.0483304,16.1239421 C19.0483304,16.1239421 18.6896348,16.3876604 18.4566783,16.5345345 C18.3398087,16.6082446 18.0836348,16.7452908 17.9993739,16.7794158 C17.9177217,16.8140868 17.9119826,16.8329238 17.8485913,16.8656839 C17.7559826,16.9134589 17.655287,17.007644 17.6865913,17.1132951 C17.7400696,17.2915643 17.8968522,17.2929293 18.0335478,17.3458914 C18.0998087,17.3726454 18.1890261,17.4152334 18.1890261,17.4152334 C18.1890261,17.4152334 18.2970261,17.4671035 18.371113,17.5181545 C18.5378087,17.6352716 18.5782435,17.7040677 18.6930261,17.8806989 C18.6930261,17.8806989 18.8234609,18.0616981 18.915287,18.1310402 C19.0063304,18.1998362 19.0465043,18.2345072 19.1472,18.2517063 C19.2455478,18.2691783 19.2285913,18.2779143 19.3350261,18.2691783 C19.4417217,18.2601692 19.4678087,18.2345072 19.541113,18.1913732 C19.6152,18.1487852 19.6989391,18.0963691 19.821287,17.8984439 C19.9462435,17.6996997 20.0195478,17.5012285 20.0620696,17.2861043 C20.1022435,17.0693421 20.0925913,16.9232869 20.1022435,16.8200928 C20.1111131,16.7166257 20.1022435,16.6729457 20.1424174,16.5782146 C20.1844174,16.4832105 20.285113,16.4051324 20.285113,16.4051324 L20.5300696,16.2416053 C20.5300696,16.2416053 20.7199826,16.1403221 20.8770261,16.1152061 C21.0330261,16.0892711 21.0909391,16.0690691 21.2320696,16.0947311 C21.3705913,16.1206661 21.3964174,16.1122031 21.5041565,16.1725362 C21.6105913,16.2334153 21.6098087,16.2506142 21.6598956,16.3109473 C21.7089391,16.3710074 21.7008522,16.3802894 21.7170261,16.4747475 C21.7355478,16.5697516 21.7170261,16.6904177 21.7170261,16.6904177 L21.6598956,16.9060879 C21.6598956,16.9060879 21.509113,17.4408955 21.0330261,18.1531531 C20.5582435,18.8667759 19.7542435,19.6868687 19.7542435,19.6868687 L19.1761565,20.2271362 C19.1761565,20.2271362 19.0517217,20.4651925 19.0939826,20.5080535 C19.1349391,20.5517335 19.2176348,20.5517335 19.2176348,20.5517335 L19.3420696,20.4862135 C19.3420696,20.4862135 20.8065913,19.4064974 21.4882435,18.5855856 C22.1683305,17.7654928 22.5627652,17.3112203 22.8922435,16.6420967 C23.2217217,15.9726999 23.3456348,15.6693967 23.4069391,15.0859951 C23.4703304,14.5028665 23.3876348,13.7035217 22.9342435,13.3357904 C22.4790261,12.969424 21.9917218,12.957958 21.5936348,13.0556921 C21.0768522,13.1834562 20.7653739,13.4228774 20.6005044,13.5301665 C20.4345913,13.6380016 19.7944174,14.1569752 19.7944174,14.1569752 L19.3420696,14.5249795 C19.3420696,14.5249795 19.0105043,14.7843298 18.7217217,14.8487578 C18.4326782,14.9140049 18.2255478,14.9372099 17.9772,14.8075348 C17.7301565,14.6773137 17.5759826,14.3377013 17.5561565,14.035217 C17.5339826,13.7330058 17.5371131,13.3699154 17.5793739,13.1531531 C17.619287,12.9369369 17.6472,12.7144417 17.6255478,12.5408135 C17.6033739,12.3682774 17.5206783,12.3445264 17.5206783,12.3445264 L17.4275478,12.3207753 L17.1940695,12.3213213 L16.9047652,12.3426154 L16.7208522,12.3538083 C16.7208522,12.3538083 16.617287,12.3538083 16.5750261,12.3426154 C16.4905043,12.3207753 16.5137217,12.2203112 16.5218087,12.0693421 C16.5325044,11.7987988 16.5750261,11.7597597 16.5750261,11.7597597 L16.6994609,11.6295386 C16.6994609,11.6295386 16.8593739,11.4534534 16.8593739,11.1294021 C16.8593739,10.8053508 16.8030261,10.7016107 16.8030261,10.7016107 C16.8030261,10.7016107 16.7670261,10.6748567 16.7208522,10.7016107 C16.635287,10.7450177 16.5549391,10.8312858 16.3942435,11.022113 C16.1779826,11.2809173 16.0793739,11.2189462 16.0793739,11.2189462 L16.0632,10.8959869 C16.0632,10.8959869 16.1602435,10.7376467 16.617287,10.3598143 C16.9107652,10.1176631 17.3401565,9.90554192 17.3401565,9.90554192 C17.3401565,9.90554192 17.2274609,9.88370187 17.0526783,9.90554192 C16.8752869,9.92738192 16.751113,9.95604697 16.751113,9.95604697 L16.5750261,10.003549 C16.5750261,10.003549 15.5766783,10.7237237 15.3035478,10.9342069 C15.1235478,11.0726181 15.1890261,11.2156702 15.1890261,11.2156702 C15.1890261,11.2156702 15.2323304,11.4204204 15.3158087,11.6153426 C15.3979826,11.8102648 15.3849391,11.8110838 15.5518957,12.0922741 C15.6544174,12.2683593 16.0997217,12.7521158 16.0997217,12.7521158 C16.0997217,12.7521158 16.2442435,12.8703248 16.2844174,12.979252 C16.3264174,13.0876331 16.3368522,13.1853672 16.3368522,13.1853672 L16.3368522,13.3467104 L16.3264174,13.5530985 C16.3264174,13.5530985 16.2966783,13.9453999 16.3577218,14.2263172 C16.4242435,14.5260715 16.4654609,14.5514606 16.4925913,14.6360907 C16.5236348,14.7330058 16.6475478,14.960142 16.6475478,14.960142 L16.7208522,15.0791701 L16.7610261,15.1547912 L16.7412,15.2093912 L16.6895478,15.2424242 C16.6895478,15.2424242 16.6133739,15.3027573 16.0692,15.4324324 C15.6132,15.5408135 15.2722435,15.6090636 14.7267652,15.4130494 C14.4147652,15.3013923 14.2905913,15.2320503 14.1254609,15.1280371 C13.9605913,15.025116 13.9363304,15 13.8703305,14.9645099 C13.8489391,14.9535899 13.8040696,14.9383019 13.7800696,14.9383019 C13.7547652,14.9383019 13.6973739,14.948676 13.6812,14.974338 C13.6632,14.999454 13.6392,15.012285 13.6311131,15.042588 C13.6238087,15.0644281 13.6078957,15.1023751 13.6097217,15.1258531 C13.6138956,15.1654382 13.6269391,15.2380563 13.6392,15.2754573 C13.6498956,15.3082173 13.7213739,15.4769315 13.7383304,15.5061425 L13.7383304,15.5061425 Z M8.48885219,41.6232596 C8.48885219,41.6232596 8.08085216,41.8102648 7.52493914,42.2558013 C7.10102609,42.5948676 5.71137391,43.6238056 5.28641739,43.9314769 C4.86250434,44.2396942 4.32172174,44.4791155 4.32172174,44.4791155 L3.48198261,44.8585859 C3.48198261,44.8585859 3.0045913,45.0805351 2.81911305,45.2145782 C2.40772174,45.5080535 2.11659131,46.001365 2.11659131,46.001365 C2.11659131,46.001365 2.00154783,46.1719902 1.87006956,46.4449905 C1.74067826,46.7182637 1.6812,46.990172 1.6812,46.990172 C1.6812,46.990172 1.69241739,47.0955501 1.74067826,47.0783511 C1.78893913,47.0606061 1.88624348,46.9246519 1.88624348,46.9246519 C1.88624348,46.9246519 2.56893913,45.953317 2.97954783,45.6614796 C3.40893913,45.3570843 3.48041739,45.3235053 3.7605913,45.2522523 C3.96485217,45.2014742 4.31650435,45.1870052 4.47954782,45.1870052 C4.64311304,45.1870052 5.20528697,45.2315042 5.20528697,45.2315042 C5.20528697,45.2315042 5.33493911,45.2484303 5.43302611,45.2145782 C5.53189564,45.1790882 5.66233045,45.026208 5.66233045,45.026208 C5.66233045,45.026208 6.13685216,44.5126945 6.79137391,43.6926017 C7.44354783,42.8711439 7.83537391,42.4092274 7.83537391,42.4092274 C7.83537391,42.4092274 7.98433045,42.2271362 8.19772173,42.039312 C8.40928697,41.8506688 8.48885219,41.7769588 8.48885219,41.7769588 L8.5621565,41.7166257 C8.5621565,41.7166257 8.61746086,41.6887797 8.58954781,41.6374557 C8.56528695,41.5935026 8.48885219,41.6232596 8.48885219,41.6232596 L8.48885219,41.6232596 Z M18.1039826,9.53398854 C18.1039826,9.53398854 18.7128522,9.37619439 19.3741565,8.91864591 C19.7177217,8.6805897 20.1481565,8.36063338 20.1481565,8.36063338 L20.5924174,8.00982803 L20.8958087,7.79852581 C20.8958087,7.79852581 21.1188522,7.65956864 21.2821565,7.70324869 C21.4438956,7.74474475 21.5372869,7.83319682 21.5372869,7.83319682 L21.6857218,7.98116298 C21.6857218,7.98116298 21.7655478,8.11029212 21.905113,8.10292111 C22.0185913,8.0969151 22.1505913,7.95986894 22.1505913,7.95986894 C22.1505913,7.95986894 22.529113,7.63690965 23.0190261,7.02238601 C23.4591131,6.47065247 23.7434609,5.88643187 23.7434609,5.88643187 C23.7434609,5.88643187 23.7935478,5.74501773 23.8266783,5.71853672 C23.8812,5.67485667 24.0095478,5.67676768 24.0985043,5.75266177 C24.2049391,5.84984985 24.2641565,6.03549005 24.2641565,6.03549005 L24.1292869,6.66966965 C24.1292869,6.66966965 23.9949391,7.19901722 23.9949391,7.48048051 C23.9949391,7.76248975 24.0301565,7.83319682 24.1292869,8.07944308 C24.2310261,8.3276003 24.4681565,8.46846848 24.8049391,8.60933662 C25.1404174,8.74993177 25.9838087,8.96150697 25.9838087,8.96150697 C25.9838087,8.96150697 26.1862435,9.45536444 26.2853739,10.3715534 C26.3878957,11.2882883 25.9767652,12.3884794 25.5447652,12.951952 C25.0438956,13.6025116 24.6090261,13.9314769 24.3627652,14.0996451 C24.3476348,14.1105651 24.3575478,14.3543543 24.3317218,14.5358995 C24.2782435,14.9227409 24.1978956,15.4130494 23.9615478,16.0483211 C23.7265043,16.6825007 23.0190261,17.5992356 22.9504174,17.7057057 C22.8841565,17.8105378 22.8178957,17.951952 22.7834609,18.1987442 C22.749287,18.4458094 22.7834609,18.5159705 22.7834609,18.5159705 C22.7834609,18.5159705 25.2760695,15.8009828 25.9496348,14.6380016 C26.6234609,13.4744745 27.2644174,12.2751843 27.6345913,10.3715534 C28.0050261,8.46846848 27.731113,6.95413596 27.6364174,6.53671854 C27.5349391,6.0914551 27.4133739,5.77368278 27.1973739,5.44471742 C26.9912869,5.13022111 26.6876348,4.93584493 26.4862435,4.86568386 C26.2825043,4.79470379 26.1205043,4.77832378 25.9525043,4.81408681 C25.7837217,4.84957685 25.5249391,4.96287196 25.4187652,5.21512419 C25.3446782,5.39475838 25.373113,5.72345071 25.373113,5.72345071 C25.373113,5.72345071 25.4855478,5.76385475 25.499113,5.73518975 C25.5867652,5.55801258 25.7284174,5.54381657 25.7284174,5.54381657 C25.7284174,5.54381657 25.9238087,5.48075348 26.1184174,5.75266177 C26.3273739,6.04886707 26.3756348,6.51788152 26.3756348,6.51788152 C26.3756348,6.51788152 26.4460695,7.14114116 26.3114609,7.21130222 C26.1765913,7.28228227 26.1525913,7.26972429 26.1525913,7.26972429 C26.1525913,7.26972429 25.9133739,7.17444717 25.7811131,7.05814904 C25.5820695,6.88288288 25.5249391,6.80780783 25.4581565,6.70188369 C25.3900696,6.59541359 25.3073739,6.38984439 25.2492,6.23587222 C25.215287,6.13977616 25.1357217,5.85749384 25.0913739,5.76440076 C25.0582435,5.69642369 25.0332,5.58531258 24.9486782,5.45427247 C24.8148522,5.24679222 24.5988522,5.08517606 24.4843304,5.01938302 C24.3458087,4.94212394 24.0763305,4.82282282 23.9284174,4.76549277 C23.7241565,4.68741469 23.3265913,4.58640459 23.1134609,4.54354355 C22.9446783,4.50941851 22.5745043,4.46573846 22.4075478,4.46573846 C22.2379826,4.46573846 22.0540695,4.49686049 21.9703305,4.56920557 C21.8571131,4.67103467 21.8391131,4.87196287 21.8391131,5.04859405 C21.8391131,5.22467924 21.8962435,5.26972429 21.9416348,5.33005732 C22.0068522,5.41796343 22.2257218,5.50723449 22.2257218,5.50723449 C22.2257218,5.50723449 22.4790261,5.62189465 22.5173739,5.67676768 C22.5906782,5.77832379 22.5805044,5.82364182 22.4790261,6.03549005 C22.3796348,6.24733823 22.3112869,6.31695333 22.3112869,6.31695333 L22.0436348,6.33524434 C22.0436348,6.33524434 21.8409391,6.34370732 21.5372869,6.35244333 C21.207287,6.36145237 21.0306783,6.63499864 21.0306783,6.63499864 C21.0306783,6.63499864 20.3915478,7.37510237 19.6152,8.04504505 C18.8414609,8.71526071 17.8978956,9.38520338 17.8978956,9.38520338 C17.8978956,9.38520338 17.8105044,9.44417146 17.8444174,9.49740652 C17.8543304,9.51460551 18.1039826,9.53398854 18.1039826,9.53398854 L18.1039826,9.53398854 Z M63.3700694,11.1998362 C63.3700694,11.1998362 65.1173741,12.8850669 65.1173741,15.3581764 C65.1173741,16.8225498 64.7354609,17.6882337 64.1988522,18.6647557 C63.5231998,19.8877969 62.1713737,20.7693147 62.1713737,20.7693147 L61.8105914,20.993448 C61.6225042,21.1324052 61.9188523,21.1627082 62.318765,21.5391756 C62.7192,21.9161889 63.095113,22.5479116 63.095113,22.5479116 C63.095113,22.5479116 63.5972869,23.4354355 64.037635,24.0630631 C64.4779827,24.6917827 64.8640694,25.2514332 65.3824172,25.7540268 C65.9033739,26.2566203 66.1978955,26.4496315 66.6371998,26.7422877 C67.0770261,27.034671 67.4779825,27.1599782 67.4779825,27.1599782 C67.5966781,26.993175 67.4359828,26.9096369 67.4359828,26.9096369 C67.4359828,26.9096369 66.5565912,26.4930385 65.9182436,25.7821458 C65.2780694,25.0701611 64.8990261,24.4914005 64.5400694,23.6961507 C64.179548,22.9006279 64.0720694,22.6022386 63.9111131,22.2257712 C63.7509392,21.8493038 63.5581566,21.5943216 63.5581566,21.5943216 L63.3985045,21.4264264 C63.3985045,21.4264264 64.0178089,20.8250068 64.917287,19.4594594 C65.5214608,18.5421785 66.1543306,16.4782965 65.6378089,14.5211575 C65.3182434,13.3071253 65.0378088,12.9301119 64.5184172,12.1771772 C63.9974609,11.4236964 63.5805911,11.1116571 63.3189392,11.004641 C63.1905912,10.953317 63.207548,11.0761671 63.207548,11.0761671 L63.3700694,11.1998362 Z M20.6646782,26.8897079 C20.7601565,27.5773956 21.0405913,28.5618345 21.6293739,29.6194376 C22.2165913,30.6773137 23.8853739,32.030849 23.8853739,32.030849 C23.8853739,32.030849 24.4960696,31.8834289 24.5675478,31.8834289 C24.6369391,31.8834289 24.8725043,31.7846028 25.5546783,31.8342888 C26.2352869,31.8834289 26.7074609,32.0802621 26.7074609,32.0802621 L26.777113,31.9085449 C26.777113,31.9085449 26.3307652,31.7103467 25.6963305,31.3912094 C25.0611131,31.0715261 24.5675478,30.5050505 24.0721565,30.013377 C23.5796348,29.5206115 23.3224174,28.9309309 22.6389391,27.5533716 C21.9585913,26.1755392 21.8638957,24.1089271 21.9575478,23.2972973 C22.0522435,22.4853945 22.3574609,21.7963418 22.3574609,21.7963418 L22.4299826,21.5009555 C22.4299826,21.5009555 22.4521565,21.3783784 22.4299826,21.3041223 C22.4057218,21.2304122 22.2880695,21.2798253 22.2880695,21.2798253 C22.2880695,21.2798253 21.0189391,22.2148512 19.7722435,23.8880699 C19.0415478,24.8665029 18.525287,25.8301938 18.2918087,26.9129129 C18.0557217,27.996451 18.0416348,28.7663118 18.3379826,30.2355992 C18.5975478,31.5143325 19.3018956,32.3502593 19.3018956,32.3502593 C19.3018956,32.3502593 19.3624174,32.4286104 19.3624174,32.4531805 C19.3624174,32.5763036 19.1599826,32.4739285 19.1599826,32.4739285 C19.1599826,32.4739285 18.6202435,32.1534262 17.8665913,31.4900355 C16.229113,30.042042 16.0585043,28.3164073 16.0585043,28.3164073 C16.0585043,28.3164073 16.0201565,28.0341251 15.9345913,28.0341251 C15.8472,28.0341251 15.8472,28.1553372 15.8472,28.1553372 L15.8185043,28.3368823 C15.8185043,28.3368823 15.7780696,28.8637729 15.9236348,29.4998635 C16.0684174,30.1365002 16.0853739,30.6431886 16.8192,31.7949768 C17.4492,32.7826918 18.3085043,33.4272454 18.3085043,33.4272454 L18.3327652,33.5197925 L18.2226783,33.6090636 L17.9620696,33.8512148 C17.9620696,33.8512148 17.6425043,34.1545181 17.441113,34.3360633 C17.2376348,34.5187005 16.4263305,35.4269724 16.4263305,35.4269724 L14.6905043,37.2143052 C14.6905043,37.2143052 12.9215478,38.8512148 12.1997218,39.3060333 C11.4760696,39.7594868 9.30380869,41.032487 9.30380869,41.032487 C9.30380869,41.032487 9.21667825,41.0808081 9.23676523,41.1654382 C9.25554781,41.2574392 9.42041737,41.1842752 9.42041737,41.1842752 L10.6073739,40.6388207 C10.6073739,40.6388207 11.7935478,40.1542452 12.4308522,39.8203658 C13.067113,39.4870325 13.6498956,39.1441441 14.1124174,38.8419328 C14.5759826,38.5386295 14.8645043,38.2680863 15.4152,37.7843298 C15.9630261,37.2989353 17.1218087,36.00273 17.441113,35.6994267 C17.7580696,35.3966694 19.4375478,33.9118209 19.4375478,33.9118209 L20.0445913,33.4875785 C20.0445913,33.4875785 20.5378957,33.2454272 20.9714609,33.1242151 C21.4063304,33.003276 21.6951131,33.033579 21.6951131,33.033579 L21.6390261,32.9118209 C21.5795478,32.7911548 21.5331131,32.7684958 21.5331131,32.7684958 C21.5331131,32.7684958 20.6182435,32.2276822 20.1481565,31.2189462 C19.9352869,30.7633088 19.6185913,29.986077 19.5364174,28.8820639 C19.3480696,26.3235053 20.5715478,25.1425062 20.5715478,25.1425062 L20.6646782,25.1913732 C20.6646782,25.1913732 20.6430261,25.4130494 20.6430261,25.4867595 C20.6430261,25.5610156 20.5715478,26.1995632 20.6646782,26.8897079 L20.6646782,26.8897079 Z M37.0582435,12.1302211 C38.5470261,13.5782146 39.5560696,13.977341 41.3842435,14.4564565 C42.8046782,14.8274638 45.5002435,14.6046956 47.0612869,14.2702703 C48.6233739,13.936391 49.8293739,13.6767677 51.887635,13.0827191 C53.9443305,12.4883975 55.6107652,11.9322959 57.3145045,11.9322959 C59.0182434,11.9322959 60.1178086,11.9322959 61.1109389,12.4883975 C62.1038088,13.045318 62.8845912,14.011193 62.8845912,15.1247611 C62.8845912,16.2377832 62.6719825,16.6472836 62.3524175,17.2410592 C61.9452,17.999454 61.1109389,18.4665575 60.5790261,18.7256347 C59.6534608,19.1788152 59.2300694,19.2833743 58.1659828,19.3573574 C57.1013739,19.4321594 56.4280695,19.4687415 55.647287,19.5058695 C54.8672869,19.5429975 54.3345912,19.6175266 54.1212002,19.6541086 C53.9091128,19.6917827 53.519113,19.8026208 53.519113,19.8026208 C53.519113,19.8026208 53.3046781,19.8408409 53.3412,19.9516789 C53.3764172,20.0625171 53.6258088,19.988261 53.6258088,19.988261 C53.6258088,19.988261 55.4338955,19.988261 56.853287,20.1365002 C58.2721567,20.2855583 58.7691128,20.3600874 59.1940694,20.4709255 C59.6224172,20.5823096 60.1178086,20.7308217 60.1178086,20.7308217 C60.1178086,20.7308217 60.2586783,20.7682228 60.4013741,20.7308217 C60.5417219,20.6936937 61.3939825,20.1747202 61.3939825,20.1747202 C61.3939825,20.1747202 63.8779825,18.7256347 64.019635,16.0898171 C64.1203306,14.2304122 63.5933737,13.1572482 62.849635,12.3770134 C61.9078958,11.3925744 60.6865042,10.8181818 58.9118086,10.8181818 C57.3859827,10.8181818 56.4280695,10.8924379 54.7592869,11.3005733 C52.5721564,11.8359268 51.1770259,12.2293203 49.7232,12.6371826 C48.2685913,13.045318 46.6723304,13.4539994 45.5717218,13.5659295 C44.4721565,13.6767677 43.4430261,13.8250068 42.3434609,13.6767677 C41.2438956,13.5282555 40.9240696,13.3800164 40.6397218,13.2680863 C40.3569391,13.1567022 40.0365913,12.7862408 40.0365913,12.7862408 L40.1078087,12.6371826 L40.3219826,12.6371826 L40.8878087,12.7862408 C40.8878087,12.7862408 42.2365044,13.0827191 43.0527652,13.0827191 C43.8687652,13.0827191 45.3236348,12.8599509 45.3236348,12.8599509 L48.0906783,12.2656292 L52.0639828,11.2634453 L54.2991131,10.7067977 C54.2991131,10.7067977 56.8882433,10.0382201 58.7336347,10.001638 C60.5790261,9.96396394 61.2137216,10.1692602 61.2137216,10.1692602 C61.2137216,10.1692602 61.3021564,10.1796342 61.3238086,10.1493312 C61.3459827,10.1203931 61.349113,10.0687961 61.330852,10.0360361 C61.3021564,9.98553101 60.7890259,9.83783783 60.7890259,9.83783783 L60.3105912,9.73437076 C60.3105912,9.73437076 60.039287,9.68632268 59.3889391,9.6205296 C58.342852,9.51460551 56.945635,9.55773955 55.2559825,9.85312586 C53.7671998,10.1122031 51.851635,10.5951406 51.851635,10.5951406 L47.5939826,11.7458368 C47.5939826,11.7458368 45.2482435,12.5555556 42.875113,12.4141414 C41.6338957,12.3404314 40.5340696,12.006006 40.1078087,11.7835108 C39.683113,11.5601966 39.5401565,11.6344526 38.7951131,10.966694 C38.0495478,10.2978433 37.7615478,9.50341253 37.631113,8.59568662 C37.5116348,7.76003278 37.7310261,6.77149879 38.1218087,6.13977616 C38.5548522,5.43980343 39.5117217,4.76112476 40.4980696,4.50586951 C41.3472,4.28719629 42.2568522,4.32268632 42.9716348,4.33906634 C44.1606783,4.36445536 46.1033739,4.87769588 46.1033739,4.87769588 L48.8002436,5.65738465 C48.8002436,5.65738465 51.284765,6.36254434 52.5614608,6.69642369 C53.8376347,7.03084904 55.6107652,7.17990717 55.6107652,7.17990717 C57.2782436,7.29101828 58.1276348,6.86950586 58.8022434,6.57848758 C60.1159825,6.01556101 60.9439825,4.9000819 61.4529389,3.37046137 C61.9892872,1.75866776 62.0072872,0.29047229 62.0072872,0.29047229 L61.9892872,0.163254163 C61.9892872,0.163254163 61.9892872,0.0723450722 61.9368523,0.0363090363 C61.886765,0 61.8325045,0 61.8325045,0 L60.0518088,0.50778051 C60.0518088,0.50778051 59.9633739,0.597597596 59.9445911,0.652470652 C59.9286781,0.707616707 59.9109391,0.779142778 59.9109391,0.779142778 C59.9109391,0.779142778 59.9633739,1.16025116 59.8767652,1.97542997 C59.7901564,2.79115479 59.4786781,3.44389844 59.4786781,3.44389844 L59.3568522,3.62489763 C59.3568522,3.62489763 59.2530263,3.73355173 59.0965045,3.75184275 C58.9418089,3.76958777 58.8379825,3.76958777 58.8379825,3.76958777 C58.8379825,3.76958777 58.7667653,3.73355173 58.7667653,3.67922468 C58.7667653,3.62489763 58.8379825,3.51651652 58.8379825,3.51651652 C58.8379825,3.51651652 58.907635,3.31722632 58.9770261,3.06279006 C59.045113,2.80944581 59.0636348,2.66420967 59.1317217,2.22932023 C59.2011128,1.79470379 59.1155478,1.16025116 59.1155478,1.16025116 C59.1155478,1.16025116 59.0965045,1.05132405 59.045113,0.96068796 C58.9942433,0.869778869 58.923548,0.905268904 58.923548,0.905268904 L57.0019825,1.41441441 L56.9495477,1.50395851 C56.8976347,1.5951406 56.9495477,1.64946765 56.9495477,1.64946765 L56.9837216,2.06661207 C57.0192002,2.48348348 56.9665044,2.86349986 56.9156347,3.22604423 C56.8631998,3.58858859 56.6041564,3.87851488 56.6041564,3.87851488 C56.6041564,3.87851488 56.4995477,3.96860497 56.3096348,4.00518701 C56.117635,4.04176904 56.0659825,3.98689598 56.0659825,3.98689598 L56.0659825,3.87851488 C56.0659825,3.87851488 56.1014611,3.78842479 56.117635,3.57029757 C56.135635,3.35271635 56.2058089,3.11711712 56.2058089,2.62735463 C56.2058089,2.13868414 56.117635,1.9030849 56.117635,1.9030849 C56.117635,1.9030849 56.1014611,1.77668578 56.0328523,1.73955774 C55.9626784,1.7035217 55.8919827,1.72809173 55.8919827,1.72809173 L54.3040695,2.18154518 C54.3040695,2.18154518 54.4407652,2.46464646 54.2991131,3.16926017 C54.1572002,3.87551187 54.2284173,3.8015288 54.0158086,4.0980071 C53.8026784,4.39503139 53.8376347,4.43106743 53.5895478,4.54354355 C53.3412,4.65438166 53.2699828,4.65438166 53.057635,4.65438166 C52.8434611,4.65438166 52.276852,4.65438166 51.9570261,4.58012558 C51.6385044,4.50586951 50.7165912,4.32022932 49.2262434,3.83783784 C47.7366782,3.35517335 46.9136348,3.09336609 46.0470261,2.8965329 C45.1136348,2.68495769 44.477113,2.56456457 44.1241565,2.51951952 C43.8570261,2.48594048 43.6723304,2.46928747 43.5445043,2.46055146 C43.2267652,2.42970243 42.6888522,2.38411138 42.3121565,2.39639639 C41.9936348,2.40677041 41.5749391,2.42424242 41.5749391,2.42424242 L40.9368522,2.47993448 L40.9378956,2.48648648 C40.2747652,2.57057057 39.185113,2.80562381 38.1150261,3.45918646 C38.1150261,3.45918646 35.4964174,4.76603877 35.6028522,8.14496313 C35.6028522,8.14496313 35.5668522,10.6816817 37.0582435,12.1302211 L37.0582435,12.1302211 Z M25.397113,17.3685504 C24.9849391,18.1067431 24.7433739,18.5975976 24.6664174,18.8291018 C24.4157217,19.5749386 24.4780696,19.977614 24.4780696,20.1138411 C24.4780696,20.2503413 24.5093739,20.5410866 24.5093739,20.5410866 C24.5093739,20.5410866 24.5263305,20.6778597 24.5594609,20.7280917 C24.5907652,20.7791428 24.6893739,20.7791428 24.6893739,20.7791428 L24.7707652,20.7280917 L24.8028522,20.6090636 C24.8028522,20.6090636 24.8644174,20.1722632 25.1226783,19.7714988 C25.3626782,19.3983074 25.6282435,19.0958231 26.0354609,18.7884248 C26.4424174,18.4818455 26.5316348,18.4253344 27.0053739,18.1517881 C27.4775478,17.8787879 28.0282435,17.6472836 28.8966783,17.1618891 C29.3842435,16.8888889 29.789113,16.6691237 30.4282435,16.0696151 C30.9019826,15.6265356 30.9922435,15.4673765 31.3903304,14.7390117 C31.5865043,14.3808354 31.8147652,13.4425334 31.8630261,13.033033 C31.9504174,12.2994813 31.8570261,11.6464646 31.8570261,11.6464646 C31.8570261,11.6464646 32.4969391,14.1190281 33.1376348,15.4597325 C33.7785913,16.8007098 34.3397218,17.1777232 34.3397218,17.1777232 L35.3002435,17.2612613 C35.3002435,17.2612613 36.1076348,17.3079443 37.1832,17.6584767 C38.837113,18.1987442 39.4251131,19.1051051 39.4251131,19.1051051 L38.7841565,19.4411684 C38.7841565,19.4411684 37.9702435,19.011466 37.2484174,18.7603058 C36.5273739,18.5091455 35.5125913,18.3052143 34.3264174,18.4234234 C31.8356348,18.6702157 30.8164174,19.5667486 30.9369391,19.3147693 C31.0566783,19.063609 31.3373739,18.6445536 31.8176348,18.1414141 C32.2978956,17.6388207 32.8191131,17.2197652 32.8191131,17.2197652 L32.2647652,17.1648922 C32.2647652,17.1648922 32.0719826,17.1362271 31.7936348,17.2994813 C31.6008522,17.4108654 31.2267652,17.6243516 30.6549391,18.0409501 C29.9461565,18.5574666 28.9992,19.5107835 28.5066783,20.6704887 C27.7337218,22.4914005 27.9880696,24.4537265 28.6363304,25.7275457 C29.5381565,27.5031395 30.9369391,27.6947857 30.9369391,27.6947857 L31.0154609,27.5274365 L30.719113,27.2558013 C30.719113,27.2558013 30.3792,26.8023478 30.1392,26.4247884 C29.8999826,26.0477751 29.5963304,25.0840841 29.5600695,24.1990172 C29.4945913,22.6710346 30.1665913,21.2219492 31.6858956,20.6025116 C34.4993739,19.4567294 36.4968522,21.6825007 36.9823305,23.0767131 C36.9951131,23.1201201 37.0715478,23.1523341 37.1448522,23.1523341 C37.2189391,23.1523341 37.3034609,23.056784 37.3034609,23.056784 C37.4472,22.9262899 38.3576348,22.1801802 40.2677217,21.5593776 C41.8026783,21.0606061 42.7253739,20.8989899 44.1645913,20.7351897 C46.4672869,20.4750205 49.7631131,20.2358722 49.7631131,20.2358722 L49.9089392,20.2143052 C49.9089392,20.2143052 49.9918958,20.1272181 49.9712869,20.0414961 C49.9498956,19.954136 49.8051128,19.9328419 49.8051128,19.9328419 L48.1459826,19.9328419 C48.1459826,19.9328419 46.0934609,19.8452088 44.1043304,19.6284466 C42.113113,19.4119574 41.0422435,19.0491401 41.0422435,19.0491401 L40.9162435,18.8637729 C40.4936348,18.2541632 40.0705043,17.8574938 39.2743304,17.4987715 C38.8697217,17.3155883 38.3106783,17.2222222 38.3106783,17.2222222 C38.3106783,17.2222222 38.1069391,17.1430521 37.5510261,16.8779689 C36.9940695,16.6131586 36.5398957,16.3218673 35.8300696,15.7663118 C35.1225913,15.2102102 34.5656348,14.4425334 34.0337218,13.3832924 C33.5020695,12.3245973 33.1994609,11.000273 32.9714609,9.46491944 C32.7442435,7.92929293 33.0398087,5.85530985 33.0398087,5.85530985 L33.0859826,5.6969697 L33.0859826,5.5713896 C33.0859826,5.5713896 33.0252,5.47747747 32.9352,5.44580944 C32.8449391,5.41414141 32.8590261,5.38301939 32.6790261,5.35189737 C32.4979826,5.32022934 32.4236348,5.33660934 32.1220696,5.36718535 C31.8215478,5.39939939 31.4456348,5.68222768 31.4456348,5.68222768 C31.4456348,5.68222768 31.0840696,5.91864591 31.0094609,5.96532899 C30.9322435,6.01283101 30.9038087,6.01283101 30.6940695,6.01283101 C30.4827652,6.01283101 29.0234609,5.88643187 28.7075478,5.80835379 C28.3913739,5.72918374 28.3128522,5.56647556 28.3128522,5.56647556 C28.2254609,5.5754846 28.2317217,5.56347258 28.2254609,5.6000546 C28.2202435,5.63581763 28.2434609,5.89189187 28.2434609,5.89189187 C28.2434609,5.89189187 28.2815478,6.25225227 28.4164174,6.50204753 C28.5486782,6.75184273 28.5087652,6.77941576 28.6817217,6.91891894 C28.8536348,7.05814904 29.0665043,7.14196015 29.0665043,7.14196015 L29.4116348,7.37810535 L29.6375478,7.65574667 C29.6375478,7.65574667 31.1615478,9.33169535 31.0154609,11.5479116 C30.9181565,13.049959 30.5592,13.5446356 30.0043304,14.2784603 C29.4820696,14.9699699 29.1079826,15.1479662 28.7652,15.3873874 C28.4221565,15.6265356 27.9677218,15.8498498 27.9677218,15.8498498 C27.9677218,15.8498498 27.8625913,15.9118209 27.8221565,15.8618619 C27.7848522,15.8146328 27.7872,15.7796888 27.7872,15.7796888 C27.7872,15.7796888 27.7045043,15.4550915 27.9497218,14.8927109 C28.1764174,14.3712804 28.4065043,13.7835108 28.7156348,12.6912367 C29.0263305,11.5995086 29.0438087,10.951406 29.0093739,10.3532624 C28.9660695,9.56729455 28.8797217,9.55200657 28.7983304,9.36336338 C28.7156348,9.17581217 28.6514609,9.14168712 28.5859826,9.1255801 C28.5207652,9.10810813 28.4396348,9.1255801 28.4396348,9.1255801 L28.4221565,9.1938302 L28.4221565,9.27818727 C28.4221565,9.27818727 28.6021565,10.967786 27.9990261,12.3499864 C27.3953739,13.7321867 26.3620696,15.6208026 26.3620696,15.6208026 C26.3620696,15.6208026 25.9308522,16.4127764 25.397113,17.3685504 Z M71.9482436,28.5088725 C71.9482436,28.6737647 71.8535477,28.7553918 71.8225045,28.8220038 L71.7904172,28.8880699 C71.7904172,28.8880699 70.4644173,31.3284193 70.0885044,33.9314769 C69.7107653,36.5339885 69.7958089,39.6748567 69.7958089,39.6748567 C69.7958089,39.6748567 69.8234608,39.8856129 69.7981564,40.1094731 C69.773113,40.3330604 69.7358088,40.4635544 69.6964175,40.4908545 C69.6593737,40.5170625 69.6207653,40.5566476 69.5842434,40.5432706 C69.5466783,40.5293475 69.4832869,40.4635544 69.4832869,40.4635544 L69.4472869,40.3592684 C69.4472869,40.3592684 69.320765,39.8591319 69.0317217,39.5042315 C68.7416347,39.1490581 68.6169389,39.0960961 68.4139825,39.0313951 C68.2141564,38.965602 68.1267653,38.977887 68.0383305,39.005187 C67.9509389,39.0313951 67.925635,39.0576031 67.9003306,39.1100191 C67.8752872,39.1618891 67.8752872,39.3068523 67.8752872,39.3068523 L67.9003306,39.4518155 L68.4901566,41.2006552 C68.4901566,41.2006552 68.6041567,41.5034125 68.8433741,41.7665847 C69.0815477,42.029757 69.1840694,42.0821731 69.4832869,42.1212121 C69.7840695,42.1602512 69.9598955,42.1741742 70.2374608,42.0682501 C70.5139828,41.9639639 71.0284175,41.5954136 71.0284175,41.5954136 C71.0284175,41.5954136 71.1559827,41.4900355 71.2305911,41.4247884 C71.3057219,41.3584493 71.3307653,41.2664483 71.4434608,41.2792793 C71.5572,41.2926563 71.5942433,41.3183183 71.6456348,41.4114114 C71.6957217,41.5034125 71.7064173,41.5558285 71.7064173,41.6483757 C71.7064173,41.7398308 71.7207652,41.9115479 71.6205914,42.1479662 C71.519113,42.3841114 71.3190259,42.7259077 70.979113,43.042042 C70.6392,43.3576304 70.2505044,43.6079716 70.2505044,43.6079716 L69.8858089,43.8176358 C69.8858089,43.8176358 69.6732002,43.936391 69.5967652,44.002184 C69.5205911,44.0674311 69.4212002,44.1599782 69.4212002,44.1599782 L69.3708523,44.2380563 L69.3458089,44.3311493 L69.3327653,44.5536445 L69.3327653,45.8424788 C69.3327653,45.8424788 69.3575478,46.5921376 69.3064172,46.8154518 C69.2573741,47.0395851 69.2443305,47.1698062 69.1196347,47.4073164 C68.9941566,47.6440076 68.7238956,48.3229593 68.6513737,48.6702157 C68.4361566,49.6936937 67.473287,49.8007098 67.473287,49.8007098 L62.9983305,49.8007098 C62.9983305,49.8007098 62.8736347,49.8140868 62.7111128,49.5907726 C62.5462434,49.3669124 62.321113,48.9189189 62.321113,48.9189189 C62.321113,48.9189189 62.3331128,48.8932569 62.2705042,48.8670489 C62.2060695,48.8402948 62.1309392,48.8274638 62.1309392,48.8274638 L61.9311131,48.8274638 L61.3772872,48.8015288 C61.3772872,48.8015288 61.265635,48.8146328 61.1638956,48.7095277 C61.0629391,48.6033306 61.0120694,48.4856675 61.0011128,48.3013923 C60.9878088,48.1168441 60.9619825,47.5260715 61.1894609,46.973246 C61.1894609,46.973246 61.3501567,46.4995905 61.7331131,46.1261261 C62.1171128,45.7526618 62.5861566,45.5986896 62.5861566,45.5986896 L62.831635,45.2656292 C62.831635,45.2656292 62.8845912,45.1930112 63.0085042,45.1067431 C63.1321567,45.021294 63.2698956,44.9347529 63.2698956,44.9347529 C63.2698956,44.9347529 63.7089391,44.7764128 63.9974609,44.6614796 C64.2838958,44.5473656 64.6819828,44.4182364 64.8056348,44.1599782 C64.9292869,43.9017199 64.9564173,43.8730548 64.9845911,43.5855856 C65.0109392,43.2986623 65.0109392,42.8397488 65.0109392,42.8397488 C65.0109392,42.8397488 64.9692,42.5681136 64.9564173,42.036582 C64.9433737,41.5064155 64.9835478,41.5631995 65.0109392,41.003276 C65.038852,40.4433524 65.2065912,39.3401583 65.1233737,38.2773683 C65.0409391,37.2159432 64.9415477,36.4578215 64.895113,35.8820639 C64.8317216,35.0851761 64.6204175,34.5651106 64.6204175,34.5651106 C64.6204175,34.5651106 62.2866781,34.4449905 60.9126784,34.2298662 C59.5412872,34.014469 58.691635,33.8230958 57.7759825,33.4873055 C56.8631998,33.1523341 56.5879825,32.984712 56.0383306,32.5773956 C55.4871131,32.1703522 55.305287,31.97816 55.1905045,31.8585859 C55.0759825,31.7392847 54.801548,31.4272454 54.801548,31.4272454 C54.801548,31.4272454 54.4355478,31.97816 54.0478955,32.6254436 C53.6571128,33.2713623 53.3832002,33.7747748 53.2918955,34.0857221 C53.199548,34.3980344 53.1763306,34.4927655 53.1763306,34.6849577 C53.1763306,34.8768769 53.2217216,35.4512694 53.2217216,35.4512694 L53.5201567,37.1045591 L53.5642434,37.3920284 C53.5642434,37.3920284 53.6106781,37.6076986 53.5201567,37.7507508 C53.4278088,37.8946219 53.2316348,37.9713349 53.2316348,37.9713349 L52.5974608,38.2869233 C52.5974608,38.2869233 50.7095478,38.984439 49.2645914,39.6150696 C47.823287,40.2459732 45.8873739,41.5410866 45.7918957,41.8730548 C45.6964174,42.2047502 45.7285044,42.022386 45.7285044,42.1212121 C45.7285044,42.2214032 45.7605913,42.4531805 45.7605913,42.4531805 L45.8552869,42.6693967 L46.0141565,42.9355719 L46.3798957,43.2508873 L46.7273739,43.5159705 L46.9021565,43.6661207 C46.9021565,43.6661207 47.0292,43.8318318 46.9806782,43.997816 C46.9342435,44.1643462 46.7435478,44.2964783 46.4584174,44.3292383 C46.1727652,44.3628174 45.6178956,44.3791974 44.9665043,44.0813541 C44.3174609,43.7821458 43.9355478,43.5820366 43.9355478,43.5820366 C43.9355478,43.5820366 43.4367652,43.8364728 43.1529391,44.0630631 C42.8709391,44.2874693 42.5743304,44.5563745 42.4540696,44.8798799 C42.3319826,45.2042042 42.3460696,45.2328692 42.3460696,45.3453454 C42.3460696,45.4586405 42.3737217,45.5288015 42.3737217,45.5288015 L42.3998087,45.6128856 L42.5080696,45.6980617 C42.5080696,45.6980617 42.5472,45.7114387 42.5743304,45.8108108 C42.6025043,45.9093639 42.587113,46.1498772 42.587113,46.1498772 L42.5472,46.5582856 C42.5472,46.5582856 42.4676348,46.8828829 42.3737217,47.051324 C42.2782435,47.2211302 41.7651131,47.6863227 41.7651131,47.6863227 L37.3324174,47.6863227 L37.023287,47.6863227 C37.023287,47.6863227 36.983113,47.7005187 36.8753739,47.5312585 C36.7665913,47.3622714 36.6995478,47.3191373 36.6069391,47.2211302 C36.5112,47.1223041 36.3364174,46.980344 36.3364174,46.980344 C36.3364174,46.980344 36.1872,46.9385749 36.1076348,46.7977068 C36.0272869,46.6562927 35.9730261,46.5440895 36.053113,46.2765493 C36.1345044,46.008736 36.377113,45.0638821 36.377113,45.0638821 C36.377113,45.0638821 36.4853739,44.6120666 36.5918087,44.4146874 C36.6995478,44.2173082 36.6862435,44.1460552 36.8610261,43.9497679 C37.0360696,43.7518427 37.5747652,43.4559105 37.5747652,43.4559105 L39.4073739,42.4122304 C39.4073739,42.4122304 39.7055478,42.2290472 39.8383304,42.0737101 C39.9732,41.9189189 40.1902435,41.5809446 40.1902435,41.5809446 C40.1902435,41.5809446 40.2426783,41.2896533 40.6065913,40.9434889 C40.9725913,40.5959596 41.4035478,40.2844663 41.4035478,40.2844663 L44.6712,37.8381109 L46.0801565,36.6751297 C46.0801565,36.6751297 46.5113739,36.2451542 46.6762435,36.015561 C46.8745043,35.7379197 46.9076348,35.4253344 46.9076348,35.4253344 C46.9076348,35.4253344 47.0414609,34.9227409 46.8424174,33.2912913 C46.7015478,32.1498772 46.5765913,32.007917 46.4602435,31.6775867 C46.3446783,31.3480754 46.2729391,31.2803713 46.2729391,31.2803713 C46.2729391,31.2803713 45.8268522,31.0360361 45.0591131,31.4594594 C41.4810261,33.4351624 37.6063304,36.2724543 32.1562435,36.9189189 C29.9834609,37.1763582 28.551287,36.8585859 28.551287,36.8585859 L28.2836348,36.8116298 C28.2836348,36.8116298 28.1730261,36.7652197 28.0402435,36.7895168 C27.9077217,36.8110838 27.7963304,36.9047229 27.7963304,36.9047229 C27.7963304,36.9047229 27.2865913,37.3221403 26.8655478,37.6478296 C26.4442435,37.9713349 26.1765913,38.1572482 25.2912,38.6909637 C24.4050261,39.2246792 23.4732,39.5954136 21.8328522,40.1523341 C20.1935478,40.7092547 18.219287,41.2664483 17.1108522,41.6838657 C16.0013739,42.1018291 14.4943304,42.7278187 14.4943304,42.7278187 L12.8931131,43.4812995 C12.8931131,43.4812995 12.6181565,43.6530167 12.4932,43.7695878 C12.3674609,43.8853399 12.3966783,43.8705979 12.327287,44.029484 C12.2584174,44.1886432 12.3966783,44.3909364 12.3966783,44.3909364 C12.3966783,44.3909364 12.9896348,44.983074 13.0321565,45.0559651 C13.0723304,45.1277641 13.0723304,45.1717172 13.0180695,45.2730003 C12.9625043,45.3740104 12.7564174,45.4313405 12.7564174,45.4313405 C12.7564174,45.4313405 12.1746783,45.6486486 11.9967652,45.6775867 C11.8157217,45.7065247 11.7194609,45.7346437 11.4017217,45.6915097 C11.0850261,45.6481026 10.7946783,45.5326235 10.5875478,45.4313405 C10.3806783,45.3306033 10.1049391,45.1717172 10.1049391,45.1717172 L9.87015653,45.0990991 C9.87015653,45.0990991 9.75850434,45.0698881 9.66302611,45.0698881 C9.56598263,45.0698881 9.66302611,45.0698881 9.52319998,45.1277641 C9.38546089,45.1853672 9.34528697,45.2290472 9.19267828,45.4892165 C9.04059128,45.7499318 8.91693911,46.4864865 8.91693911,46.4864865 C8.91693911,46.4864865 8.81963478,47.1515152 8.77867828,47.4837565 C8.73615653,47.8162708 8.61354783,48.0758941 8.61354783,48.0758941 C8.61354783,48.0758941 8.39233044,48.8703248 8.33598261,49.1171171 C8.28172172,49.3611793 8.23972175,49.4201474 8.0745913,49.6229866 C7.90789564,49.8244608 7.65954783,49.8392028 7.65954783,49.8392028 L2.75754783,49.8392028 C2.75754783,49.8392028 2.63415652,49.8244608 2.57885217,49.7952498 C2.52250435,49.7665847 2.48050435,49.7526618 2.48050435,49.7526618 C2.48050435,49.7526618 2.17789565,49.4635544 1.99789565,49.2178542 C1.81867826,48.972154 1.77746087,48.8703248 1.66685217,48.5962326 C1.55676522,48.3221403 1.54241739,48.1053781 1.57137391,47.989626 C1.59798261,47.8741469 1.62198261,47.8752389 1.62198261,47.8752389 C1.62198261,47.8752389 1.64180869,47.8427518 1.67311304,47.8427518 L1.70441739,47.8427518 L1.75424348,47.8856129 C1.75424348,47.8856129 1.80485217,47.969697 1.85493913,48.001911 C1.90606956,48.0341251 1.92746087,48.0551461 1.99789565,48.043953 C2.06911304,48.0341251 2.0592,48.0551461 2.12024348,48.001911 C2.18180869,47.9497679 2.30233044,47.8007098 2.30233044,47.8007098 C2.30233044,47.8007098 2.60676522,47.2055692 2.96259131,46.7794158 C3.31763478,46.3557193 3.5625913,46.1422331 3.5625913,46.1422331 C3.5625913,46.1422331 3.60302609,46.1203931 3.63406956,46.1007371 C3.66328696,46.0783511 3.7245913,46.0783511 3.7245913,46.0783511 L4.02824348,46.0783511 C4.02824348,46.0783511 4.0692,46.0898171 4.08067826,46.1203931 C4.0905913,46.1531531 4.0692,46.2061152 4.0692,46.2061152 L4.01833043,46.2598963 C4.01833043,46.2598963 3.65233044,46.5252525 3.38911304,46.9178269 C3.12563478,47.3114933 3.03302609,47.4815725 3.03302609,47.4815725 C3.03302609,47.4815725 2.95267826,47.5763036 2.94276522,47.7040677 C2.93154782,47.8323778 2.92241739,47.8643189 2.95267826,47.9276549 C2.98293913,47.991537 3.05441739,48.043953 3.05441739,48.043953 L3.12563478,48.0764401 L3.16606956,48.1187551 C3.19554783,48.1509691 3.17493913,48.2042042 3.17493913,48.2042042 C3.17493913,48.2042042 3.12563478,48.4373464 3.22606957,48.5015015 C3.3285913,48.5653836 3.41937391,48.5552826 3.41937391,48.5552826 C3.41937391,48.5552826 3.47050435,48.5973246 3.76476522,48.5858586 C4.06033043,48.5760306 4.24241739,48.4695605 4.24241739,48.4695605 L4.33346087,48.3950314 L4.40389565,48.3101283 L4.51633044,48.1081081 C4.51633044,48.1081081 4.61728696,47.4378924 4.87241739,47.035763 C5.12572175,46.6319957 5.1045913,46.7054327 5.25876523,46.5356265 C5.40902609,46.3663664 5.59189566,46.2170352 5.59189566,46.2170352 C5.59189566,46.2170352 5.66467828,46.1318591 5.71398263,46.1422331 C5.76589564,46.1531531 5.80502609,46.1741742 5.80502609,46.1741742 L5.83633044,46.2377832 L5.82537392,46.3333333 L5.80502609,46.4400765 C5.80502609,46.4400765 5.79511305,46.4722905 5.76589564,46.4933115 C5.73380872,46.5148785 5.55172173,46.6737647 5.47059131,46.8225498 C5.39102609,46.9713349 5.29841737,47.1523341 5.24728694,47.3428883 C5.1961565,47.5342615 5.17685219,47.7259077 5.17685219,47.7259077 C5.17685219,47.7259077 5.16615652,47.9276549 5.18493914,48.1187551 C5.20711306,48.3101283 5.25876523,48.4488124 5.25876523,48.4488124 C5.25876523,48.4488124 5.32867825,48.5552826 5.36885217,48.5858586 C5.40902609,48.6188916 5.4301565,48.6505596 5.47059131,48.6505596 C5.51259128,48.6505596 5.54180869,48.6819547 5.62215653,48.6603877 C5.70354784,48.6396396 5.89789566,48.5760306 5.89789566,48.5760306 C5.89789566,48.5760306 6.28241741,48.3423423 6.44415652,48.1829102 C6.60719998,48.023751 6.66980872,47.9497679 6.79137391,47.8007098 C6.91267825,47.6516517 6.95285217,47.5126945 6.95285217,47.4280644 C6.95285217,47.3428883 6.96328695,47.3008463 6.94293912,47.2686323 C6.9225913,47.2369642 6.89285216,47.1842752 6.89285216,47.1842752 L6.85137392,47.1414141 C6.81015653,47.0668851 6.83128694,46.961507 6.83128694,46.961507 L6.87172175,46.8760579 C6.87172175,46.8760579 6.9225913,46.8007098 7.07572172,46.7264537 C7.22754783,46.6521977 7.42946086,46.5678406 7.42946086,46.5678406 L7.77641741,46.4509965 C7.77641741,46.4509965 7.7962435,46.4400765 7.88806955,46.3980344 C7.97911306,46.3557193 8.12989566,46.2402403 8.12989566,46.2402403 C8.12989566,46.2402403 8.23346089,46.1239421 8.30389564,45.8667759 C8.37824347,45.5907726 8.39754783,45.6734917 8.41920002,45.4026754 C8.42650434,45.3355173 8.34406956,45.2285012 8.34406956,45.2285012 L8.30911303,45.1853672 C8.30911303,45.1853672 8.2887652,45.1354081 8.11580869,45.1572482 C7.94233044,45.1777232 7.9272,45.1717172 7.82546086,45.2151242 C7.72398261,45.2571663 7.5132,45.3674584 7.41146086,45.4313405 C7.31076523,45.4946765 7.25441741,45.5440895 7.16311305,45.5754846 C7.07154784,45.6079716 7.06346089,45.6322686 6.96328695,45.6218946 C6.86259128,45.6115206 6.80024348,45.5782146 6.76006956,45.5481845 C6.71989564,45.5154245 6.60719998,45.4616435 6.59833045,45.4086814 C6.58685216,45.3562654 6.58685216,45.3903904 6.60537389,45.3235053 C6.62337389,45.2568932 7.12580869,44.8367459 7.36319998,44.5405406 C7.60059128,44.2446082 7.74615653,44.024297 7.92015652,43.7379197 C8.0925913,43.4515425 8.32998259,43.1138411 8.49067828,42.9183729 C8.61980869,42.7644008 9.05285216,42.3977614 9.62650433,42.2375103 C9.62650433,42.2375103 11.8337217,41.7573028 12.917113,41.4365274 C14.003113,41.1165711 15.1890261,40.7021567 16.145113,40.1012831 C16.145113,40.1012831 17.3357217,39.3505324 18.2182435,38.3554464 C19.1010261,37.3592684 19.7070261,36.6093366 20.4236348,35.8594048 C21.0849391,35.1657112 21.2698957,35.0666121 21.4858957,34.9213759 C21.6781565,34.7917008 21.7613739,34.7480208 21.9533739,34.6904177 C22.1472,34.6325416 22.1886783,34.6754027 22.2439826,34.6904177 C22.2990261,34.7040677 22.3817217,34.7917008 22.3817217,34.7917008 L22.3817217,34.8782419 L22.3397217,34.9352989 C22.3397217,34.9352989 21.7345044,35.5416325 21.4305913,36.0611521 C21.1269391,36.5806716 21.099287,36.5806716 20.9333739,36.9120939 C20.7682435,37.2440622 20.6589391,37.6486486 20.6589391,37.6486486 C20.6589391,37.6486486 20.6307652,37.7059787 20.6727652,37.8069888 C20.7129391,37.9079989 20.7815478,37.9079989 20.7815478,37.9079989 L20.8501565,37.9079989 L20.9333739,37.8935299 C20.9333739,37.8935299 22.0780696,37.8211848 23.2217217,36.7387387 C24.3656348,35.6571117 25.2760695,34.4597325 25.2760695,34.4597325 L25.9238087,33.5653836 C25.9238087,33.5653836 26.1458087,33.3344254 26.2684174,33.2615342 C26.3941565,33.1897352 26.5308522,33.1897352 26.5308522,33.1897352 L26.6555478,33.2047502 C26.6555478,33.2047502 26.7108522,33.2334153 26.7236348,33.2760033 C26.7377217,33.3194103 26.7236348,33.3772864 26.7236348,33.3772864 L26.6824174,33.4496315 C26.6824174,33.4496315 26.4604174,33.8533988 26.3620696,34.1135681 C26.2665913,34.3726454 26.1405913,34.6562927 26.1124174,34.9440349 C26.0855478,35.2334153 26.0907652,35.4122304 26.1165913,35.5274365 C26.1458087,35.6431886 26.1585913,35.7005187 26.2141565,35.7291837 C26.2684174,35.7578487 26.3388522,35.8015288 26.3388522,35.8015288 L26.4202435,35.8015288 L26.6573739,35.8009828 C26.6573739,35.8009828 27.0974609,35.7272727 27.6345913,35.5391756 C28.1730261,35.3521704 28.4065043,35.2533442 28.6405043,35.0791701 C28.8745043,34.9074529 28.9710261,34.8050778 29.0135478,34.6325416 C29.0537217,34.4597325 29.0537217,34.2579853 29.0414609,34.1703522 C29.0263305,34.0843571 28.9710261,33.8681409 28.8888522,33.7242697 L28.9089391,33.7573028 C28.9089391,33.7573028 28.7119826,33.2530713 28.3110261,32.8867049 C27.9116348,32.5206115 27.7115478,32.4419874 27.5863305,32.3898444 L27.4616348,32.3368823 L27.4616348,32.1015561 C27.4616348,32.1015561 29.1038087,32.1490581 30.6145043,31.7605787 C31.9399826,31.4204204 33.0155478,30.975703 33.5918087,30.3461643 C33.821113,30.0958231 34.5424174,29.3513514 34.2418956,28.6445536 C34.1315478,28.3852034 33.6267652,28.0611521 33.3677218,28.2779143 L33.2169391,28.4089544 L33.0912,28.5659295 C33.0912,28.5659295 32.9662435,28.8023478 32.7403304,28.7231777 C32.5154609,28.6445536 32.2157218,27.990172 32.3406783,27.4922195 C32.4648522,26.995359 32.7403304,26.7592137 33.0418957,26.6019656 C33.3411131,26.4444444 33.5678087,26.4444444 33.8678087,26.4444444 C34.1675478,26.4444444 34.6942435,26.6197106 34.8690261,26.6538357 C35.3938956,26.7592137 36.3194609,27.0739831 36.3194609,27.0739831 C36.3194609,27.0739831 38.2462435,27.5967786 39.3721565,27.7278187 C40.9861565,27.9159159 40.7229391,27.8594048 41.1732,27.8594048 C41.6234609,27.8594048 41.8749391,27.8321048 41.8749391,27.8321048 L42.2738087,27.8075348 C42.2738087,27.8075348 42.6246782,27.7278187 42.8268522,27.5187005 C42.8268522,27.5187005 44.639113,25.9415779 45.1225043,25.5648376 C45.6069391,25.1883702 45.9838957,24.9440349 46.7949391,24.6330876 C47.6080696,24.3226863 48.4514611,24.1427791 49.2625044,24.0606061 C50.0745914,23.978979 50.607287,24.012012 50.9503303,24.044772 C51.2946783,24.0780781 51.7472872,24.2080262 51.7472872,24.2080262 C51.7472872,24.2080262 51.8417217,24.2410592 51.8555477,24.2904723 C51.8714611,24.3385204 51.8417217,24.4037674 51.8417217,24.4037674 L51.777548,24.4534534 L51.6687652,24.4859405 C51.6687652,24.4859405 50.699635,24.5511876 49.5750259,24.8457548 C48.4514611,25.1400491 47.3286783,25.6481026 46.8030261,26.041223 C46.1638957,26.5197925 46.0981565,26.5593776 45.6760696,27.0832651 C45.255287,27.6071526 45.0912,27.8727819 44.9816348,28.0849031 C44.8733739,28.2972973 44.7325043,28.6055146 44.7645913,28.7207207 C44.7938087,28.8345618 44.9041565,29.0802621 44.9041565,29.0802621 C44.9041565,29.0802621 44.9362435,29.1621622 45.0450261,29.1941032 C45.1545913,29.2268632 45.2020695,29.2424242 45.2965044,29.2424242 C45.3896348,29.2424242 45.939287,29.0862681 45.939287,29.0862681 C45.939287,29.0862681 46.9358087,28.7141687 48.2685913,28.5367185 C49.6021564,28.3600874 50.7841567,28.3600874 50.7841567,28.3600874 L51.9865045,28.3401583 L52.5121567,28.3210483 L52.7565914,28.3011193 L52.9621567,28.2817363 C53.2780695,28.1919192 53.3012869,27.996997 53.3012869,27.996997 C53.3012869,27.996997 53.4259827,27.2527982 53.5564172,27.0450451 C53.7455477,26.7507508 53.7051131,26.7032487 53.9302436,26.7032487 C54.1561564,26.7032487 54.5774608,26.7878788 54.765548,26.8665029 C54.9538956,26.945127 55.1404172,27.024297 55.1404172,27.024297 L55.4599827,27.3584493 L55.6107652,27.7704068 C55.6107652,27.7704068 55.802765,28.7638547 56.4330259,29.6046956 C57.0622436,30.4447174 57.4723305,31.3852034 59.0636348,31.8291018 C60.6533741,32.2751843 61.6144175,32.3579033 62.7802434,32.3903904 C63.9463303,32.4231504 64.7492869,32.4889435 64.7492869,32.4889435 C64.7492869,32.4889435 64.7808523,32.4733825 64.9845911,32.5225225 C65.189635,32.5708436 65.9453741,32.8520338 65.9453741,32.8520338 L66.9708522,33.2800983 C66.9708522,33.2800983 67.6321567,33.4946765 67.8672,33.5282555 C68.103548,33.5604695 68.2913737,33.5940486 68.3719828,33.5110565 C68.4489392,33.4283374 68.4974609,33.4616435 68.481287,33.2800983 C68.4658955,33.0993721 68.4202436,32.9009009 68.3881567,32.8520338 C68.3560694,32.8020748 68.3245044,32.8020748 68.2785911,32.7523887 C68.2300694,32.7029757 68.009113,32.6541086 68.009113,32.6541086 C68.009113,32.6541086 67.5841564,32.4567294 67.2841566,32.1758122 C66.9870261,31.8951679 66.6852002,31.5004095 66.244852,31.1042861 C65.8034611,30.7095277 65.6482436,30.6262626 65.2840695,30.3461643 C64.9230263,30.0663391 64.323287,29.7201747 63.9132002,29.6369096 C63.5049389,29.5547366 63.3001564,29.5394485 63.0486783,29.5547366 C62.7951131,29.5716626 62.5282434,29.6205296 62.2757216,29.7526618 C62.0232002,29.8850669 61.9694611,29.8697789 61.8285914,30.0682501 C61.6856347,30.2656292 61.661635,30.2309582 61.6465044,30.3958504 C61.6303305,30.5610156 61.6465044,30.6592957 61.6465044,30.6592957 L61.6778089,30.7420147 C61.6778089,30.7420147 60.1639828,30.8356538 58.6050263,29.1692602 C58.6050263,29.1692602 57.6883305,28.3447993 57.2370263,27.1837292 C56.7880695,26.023478 56.6096347,25.2831013 56.6096347,25.2831013 L56.2240694,23.9530439 C56.2240694,23.9530439 56.1776347,23.7851488 56.2240694,23.7518427 C56.273113,23.7177177 56.5960697,23.7340977 56.5960697,23.7340977 L56.9156347,23.7676768 C56.9156347,23.7676768 57.0118958,23.7676768 57.0611998,23.8187278 C57.1084173,23.8686869 57.2057217,24.0368551 57.2057217,24.0368551 C57.2057217,24.0368551 57.4965911,24.6601146 57.7838088,25.1310402 C58.0744172,25.6025116 58.2353739,25.8542179 58.6843306,26.3595414 C59.1358958,26.8634998 59.6020697,27.3854764 60.1960697,27.7728638 C60.7916348,28.1591591 61.0960697,28.2768223 61.4657216,28.3109473 C61.8364172,28.3447993 62.3670263,28.4458094 62.9764173,28.2942943 C63.5894611,28.1433252 64.1044172,27.991537 64.3292872,27.7897898 C64.5541567,27.5874966 64.6183305,27.4531805 64.6978958,27.3349713 C64.7774611,27.2178542 64.8265042,27.0996451 64.8265042,27.0996451 L64.8898956,27.032214 L64.9564173,26.999181 C64.9564173,26.999181 65.7447652,26.999181 66.658852,27.5874966 C67.5758088,28.1760852 67.8661567,28.4119574 67.8661567,28.4119574 L68.0419827,28.5465466 C68.0419827,28.5465466 68.1064173,28.6147966 68.1223303,28.6983347 C68.1403303,28.7818728 68.1223303,28.8667759 68.1223303,28.8667759 C68.1223303,28.8667759 68.0743305,29.2031122 68.1064173,29.4378924 C68.1403303,29.6745837 68.2686783,30.1455091 68.4925045,30.4144144 C68.7173741,30.6835927 68.942765,30.8012558 69.2333739,30.8356538 C69.5224172,30.8681409 69.7538088,30.8211848 69.849287,30.6729457 C69.9116347,30.5738466 70.0725914,30.4545455 70.0211998,29.97543 C69.9786783,29.5675676 69.8002434,29.3920284 69.8002434,29.3920284 L69.6439827,29.2847393 C69.6439827,29.2847393 69.6118958,29.2347803 69.6280697,29.1692602 C69.6439827,29.1031941 69.8213737,28.9254709 69.8213737,28.9254709 C69.8213737,28.9254709 70.7174611,29.004095 70.9389389,28.7895168 C71.1593739,28.5746656 71.1904175,28.4758395 71.1904175,28.4758395 C71.1904175,28.4758395 71.2225044,28.4095004 71.1752869,28.3437073 C71.1270261,28.2768223 71.0485045,28.2607153 71.0485045,28.2607153 C71.0485045,28.2607153 71.001287,28.1774502 71.0485045,28.062244 C71.0959825,27.9470379 71.253287,27.8801529 71.253287,27.8801529 L71.3949391,27.8312858 L71.536852,27.8312858 L71.8384175,28.1613432 C71.8384175,28.1613432 71.9482436,28.3437073 71.9482436,28.5088725 L71.9482436,28.5088725 Z M35.9005044,33.8533988 C35.8240695,33.7933388 35.7677217,33.8329238 35.7677217,33.8329238 C35.7677217,33.8329238 35.5394609,33.7532078 35.3323304,33.7136227 C35.1244174,33.6737647 35.0278957,33.6142506 34.9144174,33.5945946 C34.8012,33.5757576 34.4409391,33.4570025 34.1565913,33.3374283 C33.8722435,33.2181272 33.4939826,33.019656 33.4939826,33.019656 L32.9062435,32.6827737 C32.9062435,32.6827737 32.8118087,32.6431886 32.7181565,32.6431886 C32.6226783,32.6431886 32.5673739,32.7029757 32.5673739,32.7029757 C32.5673739,32.7029757 32.1685043,32.9208299 31.8838956,33.000546 C31.6008522,33.0791701 31.4106782,33.1190281 31.4106782,33.1190281 C31.4106782,33.1190281 31.3723304,33.1976522 31.3926782,33.3374283 C31.4106782,33.4752935 31.5614609,33.5154245 31.5614609,33.5154245 C31.5614609,33.5154245 31.9585044,33.8181818 33.0580696,34.1105651 C34.4038956,34.4676494 35.5767652,34.1692602 35.5767652,34.1692602 L35.8822435,34.0704341 L35.9568522,33.99181 C35.9568522,33.99181 35.9758957,33.9118209 35.9005044,33.8533988 L35.9005044,33.8533988 Z M39.7650261,31.8299208 C39.6938087,31.8299208 39.4785913,31.8102648 39.4785913,31.8102648 C39.4785913,31.8102648 39.3481565,31.8102648 38.9299826,31.7512968 C38.5146783,31.6915097 38.6654609,31.7117117 37.3394609,31.4747475 C36.0139826,31.2358722 34.895113,30.7802348 34.895113,30.7802348 L34.8012,30.7802348 L34.7263304,30.8192738 C34.7263304,30.8192738 34.7448522,30.8187278 34.4038956,31.1763582 C34.2139826,31.3748294 34.0068522,31.5337156 34.0068522,31.5337156 C34.0068522,31.5337156 33.9497217,31.5528256 33.9293739,31.6524707 C33.9113739,31.7512968 33.9497217,31.7316407 34.0068522,31.8102648 C34.0632,31.8897079 34.1756348,31.8902539 34.5940696,32.028392 C35.0098957,32.1673492 36.4300696,32.3854764 37.019113,32.4250614 C37.6042435,32.4657385 37.9642435,32.5042315 38.6654609,32.4843025 C39.3661565,32.4657385 39.6885913,32.3447993 39.8213739,32.2861043 C40.3710261,32.039858 40.0676348,31.8299208 39.7650261,31.8299208 L39.7650261,31.8299208 Z M42.2075478,29.6699427 C42.2075478,29.5902266 42.0747652,29.5902266 42.0747652,29.5902266 C42.0747652,29.5902266 41.9250261,29.5902266 41.4124174,29.5705706 C40.9008522,29.5509145 40.1620695,29.5107835 38.6466782,29.1534262 C37.1315478,28.7968878 36.0515478,28.3213213 36.0515478,28.3213213 C36.0515478,28.3213213 35.6925913,28.1621622 35.6169391,28.1829102 C35.5394609,28.2028392 35.5767652,28.4198744 35.5767652,28.5001365 C35.5767652,28.7775048 35.4259826,29.1534262 35.4259826,29.1534262 C35.4259826,29.1534262 35.3696348,29.1935572 35.3876348,29.2932023 C35.4079826,29.3925744 35.4643304,29.3718264 35.4643304,29.3718264 L35.6534609,29.4518155 L36.3165913,29.6699427 C36.3165913,29.6699427 36.5255478,29.7496587 37.7938957,30.0663391 C39.0635478,30.3838384 39.9348522,30.4234234 40.5030261,30.4234234 C40.8064174,30.4234234 41.5822435,30.2839203 41.7721565,30.1850942 C41.9615478,30.0854491 42.1318957,29.9276549 42.1318957,29.9276549 C42.1318957,29.9276549 42.2075478,29.7496587 42.2075478,29.6699427 L42.2075478,29.6699427 Z M41.9975478,43.1141141 C41.7079826,43.0868141 41.3331131,43.4916735 41.1429391,43.6683046 C40.7521565,44.033852 39.921287,44.5315315 39.9612,45.1676222 C39.9831131,45.5055965 41.0670261,45.4812995 41.115287,45.2241332 C41.2003304,44.7616708 41.9091131,44.0630631 42.3132,43.4269724 C42.4650261,43.1908272 42.1285044,43.1258531 41.9975478,43.1141141 L41.9975478,43.1141141 Z M52.0830261,32.2953863 C52.0425911,32.2203112 51.9510259,32.1405952 51.8151131,32.1405952 C51.6857219,32.1405952 51.4266784,32.2143052 51.1321564,32.7100737 C51.0778955,32.7996178 50.9503303,33.2265902 50.879635,33.4875785 L50.7129391,34.4870325 C50.6918088,34.6418236 50.4979828,36.010374 50.2084172,36.4261534 C49.8625045,36.9238329 48.5568522,37.7594868 48.5049392,37.7919738 C48.4845912,37.8069888 46.4229391,39.2088452 45.9314609,39.6169806 C45.7303305,39.7832378 45.6901565,39.9142779 45.6943305,39.9361179 C45.6943305,39.9361179 45.7063304,39.944581 45.7418087,39.944581 C45.7971131,39.944581 45.9186782,39.9257439 46.1336348,39.7960688 C47.2081565,39.1476931 48.9580695,38.2522523 48.9752872,38.2443353 L51.7973741,36.7780508 L51.5813741,35.1547912 C51.579548,35.0827191 51.5725045,33.3704614 52.0866783,32.4949495 C52.1362433,32.4127764 52.0999828,32.3286923 52.0830261,32.2953863 L52.0830261,32.2953863 Z M64.4641567,46.2951133 L64.6598088,46.1921922 L64.737287,46.1100191 L64.737287,45.967786 C64.737287,45.967786 64.6989391,45.8856129 64.5818086,45.8443898 C64.463113,45.8042588 64.3652872,45.8042588 64.3652872,45.8042588 L64.0731131,45.8241878 C64.0731131,45.8241878 63.9348523,45.8042588 63.8758955,45.8042588 C63.8187652,45.8042588 63.7000695,45.8241878 63.7000695,45.8241878 C63.7000695,45.8241878 63.4065912,45.9271089 62.8005914,46.3158613 C62.1943306,46.7054327 62.1150263,47.3600874 62.1150263,47.3600874 L62.0970263,47.6057876 L62.1739827,47.7687688 C62.1739827,47.7687688 62.5663305,47.8722359 62.7612002,47.953317 C62.9584173,48.034944 63.2112002,47.953317 63.290765,47.8918919 C63.3679828,47.8312858 63.3481567,47.7687688 63.3481567,47.7687688 L63.4465044,47.4621894 C63.4465044,47.4621894 63.531287,47.2953863 63.7000695,46.970516 C63.9348523,46.5203385 64.4641567,46.2951133 64.4641567,46.2951133 L64.4641567,46.2951133 Z M67.2619825,44.4725635 C66.9486781,44.4725635 66.9885912,45.0797161 66.9585914,45.2612613 C66.8247652,46.056784 66.4548523,45.990991 65.8089389,46.3215943 C65.1314609,46.6680317 64.6397217,47.1397762 64.5220694,47.9331149 C64.5194609,48.049959 64.5737219,48.8528528 64.7952002,48.6885067 C64.9011131,48.6112476 64.8940697,48.4818455 65.0310263,48.4250614 C65.6106784,48.1829102 66.2078088,48.5402675 66.7918955,48.4856675 C67.1985911,48.4482665 68.0581566,47.8782419 67.6723303,47.3398854 C67.5244172,47.1315861 67.0903306,47.4155064 67.5173737,46.9096369 C67.810852,46.5612886 68.2997219,46.6541086 68.4925045,46.3437073 C68.7327652,45.9538629 68.535548,45.4984985 68.3777216,45.1277641 C68.1846784,44.6764947 67.6991998,44.4725635 67.2619825,44.4725635 L67.2619825,44.4725635 Z" id="Fill-6"></path>
        </g>
    </g>
</svg>