<?xml version="1.0" encoding="UTF-8" standalone="no"?>
<svg width="43px" height="28px" viewBox="0 0 43 28" version="1.1" xmlns="http://www.w3.org/2000/svg" xmlns:xlink="http://www.w3.org/1999/xlink">
    <!-- Generator: Sketch 43.1 (39012) - http://www.bohemiancoding.com/sketch -->
    <title>LOGO</title>
    <desc>Created with Sketch.</desc>
    <defs></defs>
    <g id="Symbols" stroke="none" stroke-width="1" fill="none" fill-rule="evenodd">
        <g id="mobile-top-nav-close" transform="translate(-138.000000, -8.000000)" fill="#BE9330">
            <path d="M150.884494,13.2067199 C150.874999,13.0775795 150.86918,12.855955 151.023855,12.8234398 C151.126461,12.8018142 151.323556,12.883869 151.439792,12.8849426 C151.629078,12.8866297 151.77778,12.8568752 151.942409,12.7631641 C152.013468,12.7228269 152.038124,12.9855555 151.90933,13.0516594 C151.449287,13.2854005 150.971327,13.4797246 150.477286,13.4797246 C150.284019,13.4797246 150.044196,13.6108588 149.889062,13.7125454 C149.772213,13.7895388 149.712487,13.8630047 149.604062,13.7110117 C149.566848,13.6605518 150.036692,13.3729767 150.276668,13.2398486 C150.454927,13.1409228 150.368248,12.8541145 150.636096,12.7870903 C150.724153,12.7645445 150.91451,12.7623972 150.739314,12.8541145 C150.605926,12.9226724 150.641915,13.2370879 150.884494,13.2067199 L150.884494,13.2067199 Z M139.735957,20.3059142 C139.875318,20.3556072 139.99431,20.3658832 140.105339,20.3459446 C140.213918,20.3258527 140.405041,20.275853 140.49463,20.215884 C140.584678,20.1560684 140.544402,20.1861296 140.634603,20.0957926 C140.72358,20.0060692 140.743948,19.955456 140.743948,19.955456 L140.783765,19.9157323 L140.824195,19.9157323 C140.824195,19.9157323 141.303534,19.8959471 141.683176,19.5057652 C142.062053,19.1157367 142.132346,19.0457984 142.212593,18.7158922 C142.292228,18.3856793 142.331586,18.1657419 142.331586,18.1657419 C142.331586,18.1657419 142.400653,17.9088414 142.510457,17.8689643 C142.620108,17.8289339 142.744154,17.8938108 142.744154,17.8938108 C142.744154,17.8938108 142.850283,17.9257125 142.970653,18.0160494 C143.091024,18.1054661 143.170659,18.2255575 143.230385,18.3459556 C143.290417,18.466047 143.319974,18.5757089 143.340035,18.7361375 C143.360557,18.8956458 143.409716,19.2652757 143.409716,19.2652757 C143.409716,19.2652757 143.430237,19.4956426 143.480468,19.6060714 C143.530699,19.7158867 143.590425,19.7658865 143.650304,19.8056102 C143.709417,19.8462541 143.789511,19.8767754 143.839896,19.8870515 C143.890127,19.8968673 143.959654,19.8956404 143.959654,19.8956404 C143.959654,19.8956404 143.999165,19.8870515 144.019686,19.8658859 C144.064557,19.820334 144.059963,19.7758557 144.059963,19.7758557 C144.059963,19.7758557 144.057666,19.572636 144.10759,19.3592936 C144.150624,19.1755523 144.224439,19.1083747 144.307749,19.0663504 C144.442362,18.9991729 144.675906,19.0999392 144.71848,19.1419635 C144.763351,19.1864418 144.851561,19.2505519 144.851561,19.2505519 L145.077295,19.5181884 L145.98467,21.1419526 C145.98467,21.1419526 146.297388,21.6635755 146.676878,22.2233883 C147.281029,23.1177086 147.811671,23.1098866 147.879207,23.1098866 C147.946743,23.1098866 147.975534,23.1098866 148.01382,23.0424023 C148.052719,22.9746112 148.033269,22.8388758 148.033269,22.8388758 C148.033269,22.8388758 148.049962,22.4437859 148.175693,22.0094325 C148.300505,21.5744655 148.348286,21.4483926 148.512608,21.1588236 C148.677085,20.8687945 148.956265,20.482447 148.956265,20.482447 L149.15918,20.2217122 C149.15918,20.2217122 149.20742,20.1924179 149.187971,20.1441053 C149.168522,20.0957926 149.120282,20.0861301 149.120282,20.0861301 L148.946617,20.04748 L148.840642,20.0376641 C148.840642,20.0376641 148.648294,20.1441053 148.339097,20.433981 C148.095293,20.6632742 148.068799,20.7241634 147.885945,20.9559106 C147.751332,21.1263085 147.69176,21.2166454 147.69176,21.2166454 C147.69176,21.2166454 147.268012,20.8980889 146.823589,20.3853616 C146.474575,19.982143 146.206421,19.5065321 146.206421,19.5065321 C146.206421,19.5065321 146.756972,19.7574509 147.335395,19.9315297 C147.914277,20.1054552 148.223474,20.1345961 148.223474,20.1345961 C148.223474,20.1345961 148.319954,20.0571425 148.329449,19.9510082 C148.339097,19.844567 148.29055,19.7672668 148.29055,19.7672668 C148.29055,19.7672668 147.826832,19.7474817 146.978264,19.0907368 C146.12985,18.4335318 145.550355,17.766971 145.550355,17.766971 C145.550355,17.766971 145.530906,17.7474926 145.473017,17.7474926 C145.415282,17.7474926 145.386491,17.7864495 145.386491,17.7864495 L145.376996,17.8250996 C145.376996,17.8250996 145.454181,17.9896692 145.579758,18.1632879 C145.70503,18.3373667 145.70503,18.3470292 145.762152,18.4143601 C145.820193,18.4815377 145.897378,18.5882856 145.897378,18.5882856 L146.023568,18.7425792 C146.023568,18.7425792 145.405328,18.8011678 145.010371,18.5882856 C144.614648,18.37571 144.219232,17.9023997 144.219232,17.9023997 C144.219232,17.9023997 143.978031,17.5349171 143.687977,17.409611 C143.398536,17.2839982 143.157182,17.2640597 143.128851,17.2640597 L142.85794,17.2640597 C142.85794,17.2640597 142.753649,17.1177415 142.73175,17.0816987 C142.70985,17.0451959 142.672024,17.0016378 142.644305,16.9800122 C142.614901,16.9574663 142.534654,16.9504111 142.534654,16.9504111 C142.534654,16.9504111 142.343531,16.9646748 142.117491,17.0984164 C141.974608,17.1830785 141.943827,17.2264832 141.909216,17.3145195 C141.891451,17.3576175 141.864192,17.4603776 141.864192,17.4603776 C141.864192,17.4603776 141.816564,17.7181983 141.741524,18.1454966 C141.678582,18.5045437 141.683176,18.4631329 141.582255,18.6643588 C141.482558,18.8651245 141.273058,19.0327617 141.063558,19.1333746 C140.563698,19.3735573 140.248835,19.3045393 140.184361,19.1666566 C140.118357,19.0280071 140.096457,18.9620565 140.096457,18.9620565 C140.096457,18.9620565 140.074558,18.9335291 140.081296,18.8893575 C140.089566,18.8459529 140.125401,18.7655852 140.125401,18.7655852 L140.154958,18.6853709 C140.154958,18.6853709 140.1692,18.6416595 140.140869,18.5249423 C140.110546,18.4082252 140.052352,18.3717223 140.052352,18.3717223 L140.01621,18.3645138 L139.980221,18.3862928 C139.980221,18.3862928 139.902578,18.3795444 139.809773,18.6304632 C139.809773,18.6304632 139.759542,18.8192659 139.726616,18.856689 C139.552492,19.0574548 139.233341,19.0157372 139.252024,18.8893575 C139.255087,18.8675785 139.383268,18.5757089 139.433193,18.4013234 C139.485108,18.2258642 139.498738,18.1385948 139.557852,18.0369082 C139.616965,17.9346082 139.659998,17.7737195 140.132446,17.4168196 C140.605659,17.0597663 141.241204,16.6878358 141.866642,16.4619168 C142.492846,16.2358445 142.539401,16.2456604 142.73175,16.2214274 C143.012002,16.1858447 143.422733,16.1967342 143.764855,16.2692799 C144.106518,16.3425923 144.210809,16.3901381 144.399788,16.470199 C144.589073,16.5505667 144.616792,16.5567016 144.616792,16.5567016 L144.85003,16.6734187 C144.85003,16.6734187 144.900261,16.7025597 144.936862,16.6734187 C144.974076,16.6442778 144.937934,16.6056277 144.937934,16.6056277 C144.937934,16.6056277 144.248789,16.0499559 143.128851,15.959619 C142.708165,15.9252633 142.074917,16.0102322 141.315632,16.336304 C140.111159,16.8531724 139.676844,17.2269433 139.458768,17.4165128 C139.175299,17.662217 139.165958,17.8181978 139.105772,17.9781662 C139.046353,18.1379813 138.98678,18.2856799 138.916946,18.466047 C138.847419,18.6458006 138.697492,18.9456456 138.697492,18.9456456 L138.566554,19.1464113 C138.566554,19.1464113 138.371143,19.4345999 138.832105,19.7778496 C138.92445,19.8476345 139.190614,19.9031557 139.190614,19.9031557 C139.190614,19.9031557 139.23671,19.9056096 139.296895,19.9660387 C139.356009,20.025701 139.495982,20.1560684 139.495982,20.1560684 C139.495982,20.1560684 139.595525,20.2559145 139.735957,20.3059142 L139.735957,20.3059142 Z M146.590505,16.7114553 C146.658501,16.8182032 146.81777,16.9941225 146.938753,17.0714227 C147.059737,17.149183 147.336007,17.4004086 147.960067,17.3767891 C148.347214,17.3620653 148.620575,17.317587 148.891945,17.2034772 C149.15091,17.0944287 149.444793,16.8979574 149.444793,16.8979574 L149.668995,16.7197375 L149.750314,16.6649832 L149.827192,16.6183577 C149.827192,16.6183577 149.885999,16.5907505 149.931482,16.5872229 C150.060889,16.5769469 150.104994,16.6734187 150.109129,16.6971916 C150.114948,16.7214246 150.02781,16.7846145 149.955067,16.8514853 C149.924591,16.8801661 149.841281,16.949951 149.841281,16.949951 L149.70774,17.0585393 C149.70774,17.0585393 149.497168,17.206698 149.360411,17.2892129 C149.291802,17.3306237 149.141415,17.4076172 149.09195,17.4267889 C149.044016,17.4462673 149.040647,17.45685 149.003433,17.4752548 C148.949067,17.5020952 148.889954,17.555009 148.908331,17.6143645 C148.939726,17.7145173 149.031765,17.7152842 149.112012,17.7450386 C149.15091,17.7600692 149.203285,17.7839955 149.203285,17.7839955 C149.203285,17.7839955 149.266687,17.8131364 149.31018,17.8418173 C149.408038,17.9076144 149.431775,17.9462645 149.499159,18.0454971 C149.499159,18.0454971 149.57573,18.1471837 149.629637,18.1861405 C149.683084,18.2247906 149.706668,18.244269 149.765781,18.2539316 C149.823516,18.2637475 149.813562,18.2686554 149.876045,18.2637475 C149.93868,18.2586861 149.953995,18.244269 149.997028,18.220036 C150.040521,18.1961098 150.08968,18.1666621 150.161504,18.0554664 C150.23486,17.9438106 150.277893,17.8323081 150.302855,17.7114499 C150.326439,17.5896714 150.320773,17.5076166 150.326439,17.4496415 C150.331646,17.391513 150.326439,17.3669732 150.350024,17.3137527 C150.37468,17.2603787 150.433793,17.2165139 150.433793,17.2165139 L150.577595,17.1246433 C150.577595,17.1246433 150.689083,17.0677417 150.781275,17.0536314 C150.872855,17.0390609 150.906853,17.0277113 150.989704,17.0421284 C151.071023,17.0566989 151.086184,17.0519443 151.149432,17.0858398 C151.211915,17.1200421 151.211455,17.1297046 151.240859,17.1636001 C151.26965,17.1973423 151.264902,17.202557 151.274397,17.2556241 C151.285271,17.3089981 151.274397,17.3767891 151.274397,17.3767891 L151.240859,17.4979541 C151.240859,17.4979541 151.152342,17.7984126 150.872855,18.1985638 C150.594134,18.5994818 150.122146,19.0602155 150.122146,19.0602155 L149.78278,19.3637414 C149.78278,19.3637414 149.709731,19.497483 149.73454,19.5215627 C149.758584,19.5461024 149.80713,19.5461024 149.80713,19.5461024 L149.880179,19.5092928 C149.880179,19.5092928 150.739927,18.902701 151.140091,18.4415072 C151.539336,17.9807735 151.770888,17.7255602 151.964309,17.349642 C152.157729,16.9735705 152.230472,16.8031726 152.266461,16.4754137 C152.303675,16.1478081 152.255128,15.6987308 151.988965,15.4921369 C151.721729,15.2863098 151.435657,15.2798681 151.201961,15.3347758 C150.898583,15.4065545 150.71573,15.541063 150.618943,15.6013387 C150.521544,15.6619212 150.14573,15.953484 150.14573,15.953484 L149.880179,16.1602314 C149.880179,16.1602314 149.685534,16.3059361 149.516004,16.3421322 C149.346321,16.3787885 149.224725,16.3918252 149.078933,16.3189728 C148.933906,16.2458137 148.843398,16.0550172 148.831759,15.8850795 C148.818742,15.7152952 148.82058,15.5113085 148.845389,15.3895301 C148.86882,15.2680583 148.885206,15.143059 148.872496,15.0455136 C148.859478,14.9485816 148.810932,14.9352381 148.810932,14.9352381 L148.75626,14.9218946 L148.619196,14.9222013 L148.44936,14.9341645 L148.341394,14.9404528 C148.341394,14.9404528 148.280596,14.9404528 148.255787,14.9341645 C148.206168,14.9218946 148.219798,14.8654532 148.224546,14.7806377 C148.230825,14.6286447 148.255787,14.6067123 148.255787,14.6067123 L148.328836,14.5335532 C148.328836,14.5335532 148.422713,14.4346273 148.422713,14.2525731 C148.422713,14.0705189 148.389634,14.012237 148.389634,14.012237 C148.389634,14.012237 148.3685,13.9972064 148.341394,14.012237 C148.291163,14.0366234 148.243995,14.0850894 148.149658,14.1922974 C148.022703,14.3376953 147.964814,14.3028796 147.964814,14.3028796 L147.955319,14.1214389 C147.955319,14.1214389 148.012289,14.0324823 148.280596,13.8202135 C148.452883,13.6841713 148.704957,13.5650002 148.704957,13.5650002 C148.704957,13.5650002 148.638799,13.5527303 148.536193,13.5650002 C148.432055,13.5772701 148.359159,13.5933743 148.359159,13.5933743 L148.255787,13.6200612 C148.255787,13.6200612 147.669707,14.0246603 147.509366,14.1429111 C147.403697,14.2206714 147.442136,14.3010391 147.442136,14.3010391 C147.442136,14.3010391 147.467558,14.4160691 147.516563,14.5255778 C147.564804,14.6350864 147.557146,14.6355465 147.655158,14.7935211 C147.715344,14.8924469 147.97676,15.1642246 147.97676,15.1642246 C147.97676,15.1642246 148.061601,15.2306352 148.085185,15.2918312 C148.109841,15.3527205 148.115967,15.4076281 148.115967,15.4076281 L148.115967,15.4982718 L148.109841,15.6142221 C148.109841,15.6142221 148.092383,15.8346197 148.128218,15.9924409 C148.16727,16.1608449 148.191467,16.1751086 148.207394,16.2226543 C148.225618,16.2771019 148.298361,16.4047086 148.298361,16.4047086 L148.341394,16.4715794 L148.364978,16.5140638 L148.353339,16.5447385 L148.323017,16.5632967 C148.323017,16.5632967 148.278299,16.5971922 147.958842,16.6700445 C147.691147,16.7309338 147.490989,16.7692771 147.170766,16.659155 C146.987606,16.5964253 146.91471,16.5574685 146.81777,16.4990332 C146.720983,16.4412114 146.706741,16.4271011 146.667996,16.4071625 C146.655438,16.4010276 146.629097,16.3924387 146.615008,16.3924387 C146.600153,16.3924387 146.566462,16.3982669 146.556967,16.412684 C146.5464,16.4267943 146.532311,16.4340029 146.527563,16.4510273 C146.523275,16.4632972 146.513933,16.4846161 146.515005,16.4978062 C146.517456,16.5200454 146.525113,16.5608427 146.532311,16.5818548 C146.538589,16.6002596 146.580551,16.6950444 146.590505,16.7114553 L146.590505,16.7114553 Z M143.508799,31.3842277 C143.508799,31.3842277 143.269283,31.4892885 142.942934,31.7395939 C142.694076,31.9300836 141.878281,32.508148 141.62881,32.6809998 C141.379952,32.8541583 141.062486,32.9886668 141.062486,32.9886668 L140.569517,33.2018558 C140.569517,33.2018558 140.289265,33.3265484 140.18038,33.4018547 C139.938873,33.5667311 139.767964,33.8438768 139.767964,33.8438768 C139.767964,33.8438768 139.700428,33.9397352 139.623244,34.0931086 C139.547285,34.2466354 139.512368,34.3993953 139.512368,34.3993953 C139.512368,34.3993953 139.518953,34.4585974 139.547285,34.4489349 C139.575616,34.4389656 139.632739,34.3625857 139.632739,34.3625857 C139.632739,34.3625857 140.033515,33.8168831 140.274563,33.652927 C140.526637,33.4819156 140.568598,33.4630507 140.733074,33.4230203 C140.852986,33.3944928 141.059423,33.386364 141.155138,33.386364 C141.251159,33.386364 141.581183,33.4113639 141.581183,33.4113639 C141.581183,33.4113639 141.657295,33.420873 141.714877,33.4018547 C141.772918,33.3819162 141.84949,33.2960271 141.84949,33.2960271 C141.84949,33.2960271 142.128058,33.0075317 142.512295,32.5467981 C142.895154,32.0852975 143.125175,31.8257897 143.125175,31.8257897 C143.125175,31.8257897 143.21262,31.7234897 143.337891,31.6179688 C143.462091,31.5119878 143.508799,31.470577 143.508799,31.470577 L143.551833,31.4366814 C143.551833,31.4366814 143.584299,31.4210374 143.567913,31.3922032 C143.55367,31.36751 143.508799,31.3842277 143.508799,31.3842277 L143.508799,31.3842277 Z M149.153361,13.356259 C149.153361,13.356259 149.510797,13.2676092 149.899016,13.0105554 C150.100706,12.8768138 150.353393,12.6970602 150.353393,12.6970602 L150.614196,12.4999754 L150.792302,12.3812643 C150.792302,12.3812643 150.923239,12.3031973 151.019107,12.327737 C151.114056,12.3510498 151.168882,12.4007428 151.168882,12.4007428 L151.25602,12.4838711 C151.25602,12.4838711 151.302882,12.5564168 151.384814,12.5522757 C151.451431,12.5489015 151.528922,12.471908 151.528922,12.471908 C151.528922,12.471908 151.751133,12.2904673 152.038736,11.9452238 C152.297089,11.6352562 152.464016,11.3070371 152.464016,11.3070371 C152.464016,11.3070371 152.493419,11.2275897 152.512868,11.2127125 C152.544875,11.1881727 152.620222,11.1892463 152.672444,11.2318841 C152.734926,11.2864851 152.76969,11.390779 152.76969,11.390779 L152.690515,11.7470654 C152.690515,11.7470654 152.611646,12.0444564 152.611646,12.2025843 C152.611646,12.3610191 152.63232,12.4007428 152.690515,12.5390856 C152.750241,12.678502 152.889448,12.7576427 153.087156,12.8367833 C153.284099,12.9157706 153.779212,13.034635 153.779212,13.034635 C153.779212,13.034635 153.898051,13.3120875 153.956245,13.8268086 C154.016431,14.3418364 153.775077,14.9599312 153.521471,15.2764939 C153.227436,15.6419827 152.972146,15.8267976 152.827578,15.9212756 C152.818696,15.9274106 152.824515,16.064373 152.809354,16.1663663 C152.77796,16.3836964 152.730792,16.659155 152.592044,17.0160549 C152.454061,17.3723413 152.038736,17.8873692 151.99846,17.9471848 C151.959561,18.0060802 151.920663,18.0855276 151.900448,18.2241771 C151.880386,18.36298 151.900448,18.402397 151.900448,18.402397 C151.900448,18.402397 153.363733,16.8770986 153.75915,16.223728 C154.154719,15.5700506 154.530993,14.8962812 154.748303,13.8268086 C154.965767,12.7576427 154.804966,11.9068804 154.749375,11.6723725 C154.689803,11.4222205 154.618438,11.2436939 154.491635,11.058879 C154.370652,10.8821928 154.192393,10.7729909 154.074166,10.733574 C153.954561,10.6936969 153.859459,10.6844945 153.760834,10.7045864 C153.661751,10.724525 153.509832,10.7881749 153.447503,10.9298919 C153.40401,11.0308116 153.420703,11.2154732 153.420703,11.2154732 C153.420703,11.2154732 153.486708,11.2381724 153.494671,11.2220682 C153.546127,11.1225289 153.629284,11.1145535 153.629284,11.1145535 C153.629284,11.1145535 153.743989,11.0791242 153.858234,11.2318841 C153.980902,11.3982943 154.009233,11.6617898 154.009233,11.6617898 C154.009233,11.6617898 154.050582,12.0119412 153.97156,12.0513582 C153.892385,12.0912353 153.878295,12.0841801 153.878295,12.0841801 C153.878295,12.0841801 153.737863,12.0306528 153.660219,11.9653157 C153.543371,11.86685 153.509832,11.8246723 153.470628,11.7651634 C153.430657,11.7053478 153.382111,11.5898576 153.34796,11.503355 C153.328051,11.4493676 153.281342,11.2907795 153.255308,11.2384792 C153.235859,11.2002892 153.221157,11.1378662 153.171538,11.064247 C153.092976,10.9476832 152.966173,10.8568862 152.898943,10.8199232 C152.817624,10.7765185 152.659427,10.7094944 152.572594,10.6772859 C152.452683,10.6334212 152.219292,10.576673 152.094174,10.5525934 C151.99509,10.5334217 151.77778,10.508882 151.679768,10.508882 C151.580225,10.508882 151.472259,10.5263665 151.4231,10.5670105 C151.356635,10.6242188 151.346069,10.7371016 151.346069,10.8363342 C151.346069,10.93526 151.379607,10.9605666 151.406254,10.9944621 C151.44454,11.0438484 151.573027,11.0940015 151.573027,11.0940015 C151.573027,11.0940015 151.721729,11.1584183 151.744241,11.1892463 C151.787275,11.2463012 151.781302,11.2717612 151.721729,11.390779 C151.663382,11.5097967 151.623258,11.5489069 151.623258,11.5489069 L151.466133,11.559183 C151.466133,11.559183 151.347141,11.5639375 151.168882,11.5688455 C150.975155,11.5739068 150.871477,11.7275869 150.871477,11.7275869 C150.871477,11.7275869 150.496276,12.1433822 150.040521,12.5197605 C149.586297,12.8962922 149.032377,13.2726705 149.032377,13.2726705 C149.032377,13.2726705 148.981074,13.3057992 149.000983,13.335707 C149.006802,13.3453695 149.153361,13.356259 149.153361,13.356259 L149.153361,13.356259 Z M175.726812,14.2921434 C175.726812,14.2921434 176.752567,15.2389174 176.752567,16.628327 C176.752567,17.4510219 176.528365,17.9373689 176.213348,18.4859855 C175.816707,19.1730983 175.023118,19.668341 175.023118,19.668341 L174.81132,19.7942605 C174.700904,19.8723276 174.874875,19.8893521 175.109644,20.100854 C175.344719,20.3126626 175.565399,20.6675686 175.565399,20.6675686 C175.565399,20.6675686 175.8602,21.1661855 176.118706,21.518791 C176.377212,21.8720099 176.603864,22.1864254 176.90816,22.4687858 C177.213988,22.7511462 177.386887,22.8595812 177.64478,23.0239975 C177.90298,23.1882604 178.138362,23.2586587 178.138362,23.2586587 C178.208042,23.1649476 178.113705,23.1180153 178.113705,23.1180153 C178.113705,23.1180153 177.597459,22.8839676 177.222717,22.4845832 C176.846903,22.0845854 176.624385,21.7594338 176.41366,21.3126571 C176.202016,20.8657271 176.138921,20.69809 176.044431,20.486588 C175.950401,20.2750861 175.837228,20.1318354 175.837228,20.1318354 L175.743504,20.0375107 C175.743504,20.0375107 176.107067,19.6996292 176.635106,18.9324555 C176.989786,18.4171209 177.361312,17.257618 177.058088,16.1580841 C176.870487,15.4760327 176.705858,15.264224 176.400949,14.8412202 C176.095122,14.4179096 175.850398,14.2426038 175.696796,14.1824815 C175.621449,14.1536473 175.631403,14.2226653 175.631403,14.2226653 L175.726812,14.2921434 Z M150.656617,23.1068191 C150.712667,23.4931667 150.877296,24.0462311 151.222941,24.6403996 C151.567667,25.2347215 152.547326,25.9951468 152.547326,25.9951468 C152.547326,25.9951468 152.905835,25.9123252 152.947796,25.9123252 C152.988532,25.9123252 153.126821,25.856804 153.527291,25.884718 C153.926842,25.9123252 154.204032,26.0229074 154.204032,26.0229074 L154.244921,25.9264355 C154.244921,25.9264355 153.982892,25.8150865 153.610448,25.635793 C153.237543,25.4561927 152.947796,25.1379429 152.656976,24.8617175 C152.367842,24.5848785 152.216842,24.253592 151.815606,23.4796698 C151.416208,22.7055943 151.360617,21.5445577 151.415596,21.0885786 C151.471187,20.6324461 151.650365,20.2453317 151.650365,20.2453317 L151.692938,20.0793817 C151.692938,20.0793817 151.705956,20.010517 151.692938,19.9687995 C151.678696,19.9273887 151.609628,19.9551492 151.609628,19.9551492 C151.609628,19.9551492 150.864586,20.4804531 150.132713,21.4204786 C149.703758,21.9701689 149.400687,22.511577 149.263624,23.1198558 C149.125029,23.7285948 149.116759,24.1611078 149.29073,24.9865634 C149.443108,25.7049644 149.856595,26.1745937 149.856595,26.1745937 C149.856595,26.1745937 149.892125,26.2186119 149.892125,26.2324155 C149.892125,26.3015869 149.773285,26.2440718 149.773285,26.2440718 C149.773285,26.2440718 149.456432,26.0640115 149.014,25.6913141 C148.052719,24.8778217 147.952563,23.9083484 147.952563,23.9083484 C147.952563,23.9083484 147.930051,23.7497604 147.87982,23.7497604 C147.828517,23.7497604 147.828517,23.8178581 147.828517,23.8178581 L147.811671,23.9198514 C147.811671,23.9198514 147.787934,24.2158621 147.873388,24.5732221 C147.958382,24.9308889 147.968337,25.2155499 148.399129,25.8626322 C148.768971,26.4175372 149.273425,26.7796517 149.273425,26.7796517 L149.287667,26.8316453 L149.223041,26.8817984 L149.070051,27.0178406 C149.070051,27.0178406 148.88245,27.1882385 148.764223,27.2902318 C148.644771,27.3928386 148.168495,27.9031118 148.168495,27.9031118 L147.149479,28.9072474 C147.149479,28.9072474 146.111013,29.8268743 145.687265,30.0823944 C145.262445,30.3371476 143.98722,31.0523277 143.98722,31.0523277 C143.98722,31.0523277 143.93607,31.0794748 143.947862,31.1270206 C143.958888,31.1787074 144.055675,31.1376033 144.055675,31.1376033 L144.752477,30.8311633 C144.752477,30.8311633 145.448821,30.5589255 145.82295,30.3713499 C146.196467,30.1840809 146.538589,29.991444 146.810113,29.8216596 C147.082249,29.6512618 147.251625,29.4992687 147.574911,29.2274911 C147.896512,28.9547932 148.576776,28.2265763 148.764223,28.0561785 C148.950292,27.8860874 149.93623,27.0518895 149.93623,27.0518895 L150.292595,26.8135473 C150.292595,26.8135473 150.582189,26.6775051 150.836713,26.6094073 C151.092004,26.5414629 151.261533,26.5584873 151.261533,26.5584873 L151.228608,26.4900828 C151.193691,26.4222917 151.166431,26.4095617 151.166431,26.4095617 C151.166431,26.4095617 150.629357,26.105729 150.353393,25.5390144 C150.228428,25.2830342 150.042511,24.8463801 149.994271,24.2261381 C149.883702,22.7887227 150.601945,22.1252294 150.601945,22.1252294 L150.656617,22.1526832 C150.656617,22.1526832 150.643906,22.2772224 150.643906,22.3186332 C150.643906,22.3603508 150.601945,22.7190912 150.656617,23.1068191 L150.656617,23.1068191 Z M160.280457,14.81484 C161.154447,15.6283324 161.746806,15.8525643 162.820035,16.1217347 C163.653901,16.3301691 165.236332,16.2050164 166.152743,16.017134 C167.069766,15.8295583 167.777748,15.6837002 168.98605,15.3499597 C170.193433,15.0160659 171.171713,14.7036443 172.171893,14.7036443 C173.172073,14.7036443 173.817572,14.7036443 174.400589,15.0160659 C174.983453,15.3289476 175.441812,15.8715826 175.441812,16.4971927 C175.441812,17.122496 175.317,17.3525561 175.129399,17.6861433 C174.890342,18.1122145 174.400589,18.3746364 174.08833,18.5201878 C173.544977,18.7747876 173.296425,18.8335296 172.671753,18.8750938 C172.046775,18.9171181 171.651511,18.9376701 171.193153,18.9585289 C170.735254,18.9793877 170.422535,19.0212586 170.297264,19.0418107 C170.172758,19.0629762 169.943809,19.1252458 169.943809,19.1252458 C169.943809,19.1252458 169.817925,19.1467181 169.839365,19.2089877 C169.860039,19.2712573 170.006445,19.2295397 170.006445,19.2295397 C170.006445,19.2295397 171.067882,19.2295397 171.901135,19.3128215 C172.734082,19.3965633 173.025821,19.4384343 173.275291,19.5007039 C173.526753,19.5632802 173.817572,19.6467153 173.817572,19.6467153 C173.817572,19.6467153 173.90027,19.6677275 173.984039,19.6467153 C174.06643,19.6258566 174.56675,19.3342937 174.56675,19.3342937 C174.56675,19.3342937 176.024982,18.5201878 176.108139,17.0393677 C176.167252,15.9947415 175.857903,15.3918307 175.421291,14.9534895 C174.868443,14.4004251 174.151425,14.0777274 173.10959,14.0777274 C172.213854,14.0777274 171.651511,14.119445 170.671853,14.3487382 C169.387898,14.6495035 168.568887,14.8705145 167.715419,15.0996544 C166.861491,15.3289476 165.924406,15.5585476 165.278294,15.6214306 C164.632794,15.6837002 164.028643,15.766982 163.383144,15.6837002 C162.737644,15.6002651 162.54989,15.5169834 162.382964,15.4541003 C162.216956,15.3915239 162.028896,15.1833962 162.028896,15.1833962 L162.070704,15.0996544 L162.196435,15.0996544 L162.528603,15.1833962 C162.528603,15.1833962 163.320355,15.3499597 163.799541,15.3499597 C164.278573,15.3499597 165.132654,15.2248071 165.132654,15.2248071 L166.757047,14.8909132 L169.089575,14.3278794 L170.401708,14.0151511 C170.401708,14.0151511 171.921656,13.6395397 173.004993,13.6189876 C174.08833,13.5978221 174.460928,13.7131589 174.460928,13.7131589 C174.460928,13.7131589 174.512844,13.7189871 174.525555,13.7019626 C174.538572,13.6857051 174.540409,13.6567175 174.529689,13.6383127 C174.512844,13.6099386 174.21161,13.5269636 174.21161,13.5269636 L173.930745,13.4688351 C173.930745,13.4688351 173.771476,13.4418414 173.38969,13.4048784 C172.775584,13.3453695 171.955348,13.3696025 170.963438,13.5355525 C170.089448,13.6811039 168.964916,13.9524214 168.964916,13.9524214 L166.465462,14.5988902 C166.465462,14.5988902 165.088396,15.0537957 163.69525,14.9743483 C162.966593,14.9329375 162.320941,14.7450551 162.070704,14.6200558 C161.821387,14.4945963 161.737464,14.5363139 161.300086,14.1611626 C160.862402,13.7853978 160.693332,13.3390812 160.61676,12.8291147 C160.546621,12.3596387 160.675414,11.8042736 160.904823,11.4493676 C161.159041,11.0561182 161.720771,10.674832 162.299807,10.5314279 C162.798289,10.4085758 163.3323,10.4285143 163.751913,10.4377167 C164.449941,10.4519804 165.5904,10.7403224 165.5904,10.7403224 L167.173597,11.1783568 C167.173597,11.1783568 168.632135,11.5745203 169.381619,11.762096 C170.130797,11.9499784 171.171713,12.0337202 171.171713,12.0337202 C172.150606,12.0961432 172.649241,11.8593347 173.04527,11.6958387 C173.8165,11.3795827 174.302578,10.752899 174.601361,9.89354791 C174.916223,8.9880314 174.92679,8.16318929 174.92679,8.16318929 L174.916223,8.09171729 C174.916223,8.09171729 174.916223,8.04064395 174.885442,8.02039866 C174.856038,8 174.824184,8 174.824184,8 L173.778827,8.28527451 C173.778827,8.28527451 173.726911,8.33573436 173.715885,8.36656241 C173.706543,8.39754383 173.69613,8.43772766 173.69613,8.43772766 C173.69613,8.43772766 173.726911,8.65183692 173.676068,9.10980987 C173.625224,9.56808957 173.442371,9.93480535 173.442371,9.93480535 L173.370853,10.0364919 C173.370853,10.0364919 173.309902,10.0975345 173.218016,10.1078105 C173.127202,10.1177798 173.066251,10.1177798 173.066251,10.1177798 C173.066251,10.1177798 173.024442,10.0975345 173.024442,10.0670132 C173.024442,10.0364919 173.066251,9.97560268 173.066251,9.97560268 C173.066251,9.97560268 173.10714,9.8636401 173.147876,9.7206961 C173.187846,9.57836559 173.19872,9.49677094 173.23869,9.25244713 C173.279426,9.00827669 173.229195,8.65183692 173.229195,8.65183692 C173.229195,8.65183692 173.218016,8.59064094 173.187846,8.53972097 C173.157984,8.48864763 173.116482,8.50858617 173.116482,8.50858617 L171.988427,8.79462755 L171.957645,8.84493402 C171.92717,8.89616074 171.957645,8.92668204 171.957645,8.92668204 L171.977707,9.16103659 C171.998534,9.39523776 171.9676,9.60873352 171.937737,9.81241339 C171.906955,10.0160933 171.754883,10.1789758 171.754883,10.1789758 C171.754883,10.1789758 171.693473,10.229589 171.581984,10.250141 C171.469271,10.2706931 171.438948,10.239865 171.438948,10.239865 L171.438948,10.1789758 C171.438948,10.1789758 171.459776,10.1283626 171.469271,10.0058172 C171.479838,9.88357864 171.521033,9.7512174 171.521033,9.47606553 C171.521033,9.20152716 171.469271,9.06916592 171.469271,9.06916592 C171.469271,9.06916592 171.459776,8.99815404 171.419499,8.97729526 C171.378304,8.95704997 171.336802,8.97085358 171.336802,8.97085358 L170.404617,9.22560678 C170.404617,9.22560678 170.484865,9.38465499 170.401708,9.78051172 C170.318398,10.1772887 170.360206,10.1357245 170.235394,10.302288 C170.110276,10.4691583 170.130797,10.4894035 169.985158,10.5525934 C169.839365,10.614863 169.797557,10.614863 169.672898,10.614863 C169.547167,10.614863 169.21454,10.614863 169.026786,10.5731454 C168.839798,10.5314279 168.298589,10.4271339 167.42368,10.1561232 C166.549231,9.884959 166.066064,9.73787392 165.557321,9.6272917 C165.009374,9.50842732 164.635704,9.44078965 164.428501,9.41548304 C164.271682,9.39661812 164.163256,9.38726234 164.088216,9.38235439 C163.901687,9.3650232 163.585905,9.33940984 163.364766,9.34631164 C163.177778,9.35213983 162.931983,9.36195573 162.931983,9.36195573 L162.557394,9.3932439 L162.558007,9.39692486 C162.168716,9.44416387 161.529036,9.57621836 160.900841,9.94339426 C160.900841,9.94339426 159.363587,10.6775927 159.42607,12.5758952 C159.42607,12.5758952 159.404936,14.0010407 160.280457,14.81484 L160.280457,14.81484 Z M154.00127,16.7758722 C154.00127,16.7758722 153.748124,17.2208084 153.434792,17.7577686 C153.192825,18.1724903 153.051015,18.4482557 153.005837,18.5783163 C152.858666,18.9973324 152.895268,19.2235582 152.895268,19.3000915 C152.895268,19.3767782 152.913645,19.5401208 152.913645,19.5401208 C152.913645,19.5401208 152.923599,19.6169609 152.943048,19.6451816 C152.961426,19.6738624 153.019314,19.6738624 153.019314,19.6738624 L153.067095,19.6451816 L153.085931,19.5783108 C153.085931,19.5783108 153.122073,19.3329134 153.273685,19.1077612 C153.414577,18.8980998 153.570477,18.7281621 153.809534,18.5554637 C154.048438,18.3832253 154.100813,18.351477 154.378921,18.1977969 C154.656111,18.0444235 154.979397,17.9143629 155.489211,17.641665 C155.775436,17.4882916 156.013115,17.364826 156.388317,17.028018 C156.666425,16.779093 156.719413,16.6896763 156.95311,16.2804761 C157.068273,16.0792502 157.202274,15.5521059 157.230606,15.3220458 C157.281909,14.9099315 157.227083,14.5430623 157.227083,14.5430623 C157.227083,14.5430623 157.602744,15.9321651 157.978864,16.6853819 C158.355138,17.438752 158.684549,17.6505606 158.684549,17.6505606 L159.248424,17.6974929 C159.248424,17.6974929 159.722403,17.7237197 160.353813,17.9206512 C161.324742,18.2241771 161.669928,18.7333768 161.669928,18.7333768 L161.293654,18.9221794 C161.293654,18.9221794 160.815847,18.6807697 160.392099,18.5396662 C159.96881,18.3985627 159.373082,18.2839927 158.676739,18.3504034 C157.214525,18.489053 156.616194,18.9927312 156.686946,18.8511676 C156.757239,18.710064 156.922021,18.4746359 157.203959,18.1919687 C157.485896,17.9096083 157.791876,17.6741801 157.791876,17.6741801 L157.466446,17.6433521 C157.466446,17.6433521 157.353273,17.6272479 157.189869,17.7189652 C157.076696,17.7815415 156.857089,17.9014795 156.521398,18.1355273 C156.105307,18.4257098 155.549397,18.9612897 155.260262,19.6128198 C154.806498,20.6358204 154.955813,21.7382683 155.336374,22.4539086 C155.865791,23.4514491 156.686946,23.5591172 156.686946,23.5591172 L156.733042,23.4650993 L156.559071,23.3124928 C156.559071,23.3124928 156.359526,23.0577396 156.218634,22.8456242 C156.078201,22.6338155 155.899942,22.0924075 155.878655,21.5951709 C155.840216,20.73674 156.234714,19.9226341 157.126621,19.5746298 C158.778273,18.9309217 159.950893,20.181375 160.235893,20.9646529 C160.243397,20.9890393 160.288268,21.0071373 160.331301,21.0071373 C160.374794,21.0071373 160.424412,20.9534567 160.424412,20.9534567 C160.508794,20.8801442 161.043265,20.4609747 162.164581,20.1122036 C163.065677,19.8319904 163.607346,19.7411934 164.452238,19.6491693 C165.804035,19.5030045 167.738849,19.3686494 167.738849,19.3686494 L167.824457,19.3565329 C167.824457,19.3565329 167.873156,19.3076068 167.861058,19.2594475 C167.8485,19.210368 167.763506,19.1984049 167.763506,19.1984049 L166.789513,19.1984049 C166.789513,19.1984049 165.584581,19.1491721 164.416862,19.0273936 C163.247918,18.9057685 162.619264,18.7019352 162.619264,18.7019352 L162.545296,18.5977947 C162.297203,18.2553119 162.048805,18.0324604 161.581411,17.8309277 C161.343885,17.7280142 161.015699,17.6755605 161.015699,17.6755605 C161.015699,17.6755605 160.896094,17.6310822 160.569745,17.4821566 C160.242784,17.3333845 159.976161,17.169735 159.559458,16.8576202 C159.144133,16.5451986 158.817172,16.1139126 158.504912,15.5188238 C158.192806,14.9240418 158.015159,14.1800275 157.881312,13.3174555 C157.747924,12.4547302 157.921436,11.2895525 157.921436,11.2895525 L157.948542,11.200596 L157.948542,11.1300442 C157.948542,11.1300442 157.91286,11.0772838 157.860025,11.0594924 C157.807037,11.0417011 157.815307,11.0242166 157.709638,11.006732 C157.603357,10.9889407 157.559711,10.9981431 157.382677,11.0153209 C157.206256,11.033419 156.985576,11.1923138 156.985576,11.1923138 C156.985576,11.1923138 156.773319,11.3251352 156.72952,11.351362 C156.68419,11.378049 156.667497,11.378049 156.54437,11.378049 C156.420324,11.378049 155.563639,11.3070371 155.378182,11.2631723 C155.192573,11.218694 155.146476,11.1272835 155.146476,11.1272835 C155.146476,11.1272835 155.129324,11.1122529 155.112019,11.1225289 C155.095173,11.1323448 155.098849,11.1255964 155.095173,11.1461484 C155.09211,11.1662403 155.10574,11.3101046 155.10574,11.3101046 C155.10574,11.3101046 155.128099,11.5125574 155.207274,11.6528941 C155.284918,11.7932308 155.261487,11.8087215 155.363021,11.8870953 C155.463943,11.9653157 155.588908,12.0124013 155.588908,12.0124013 L155.791517,12.1450693 L155.924139,12.3010501 C155.924139,12.3010501 156.818803,13.2426093 156.733042,14.4876945 C156.67592,15.3315549 156.465195,15.6094675 156.139458,16.0217352 C155.832865,16.41023 155.613258,16.5102295 155.412027,16.6447379 C155.210643,16.779093 154.943868,16.9045525 154.943868,16.9045525 C154.943868,16.9045525 154.882151,16.9393682 154.858414,16.9113009 C154.836514,16.8847673 154.837892,16.8651355 154.837892,16.8651355 C154.837892,16.8651355 154.789346,16.6827745 154.933301,16.3668253 C155.066382,16.0738822 155.201455,15.7436692 155.38293,15.1300223 C155.565324,14.5166821 155.575584,14.1525737 155.555369,13.8165326 C155.529948,13.3749706 155.479257,13.3663816 155.431476,13.2604006 C155.38293,13.1550331 155.345257,13.1358614 155.306818,13.1268124 C155.268532,13.1169965 155.220904,13.1268124 155.220904,13.1268124 L155.210643,13.1651558 L155.210643,13.2125481 C155.210643,13.2125481 155.316312,14.1617761 154.962245,14.9383056 C154.607871,15.714835 154.00127,16.7758722 154.00127,16.7758722 L154.00127,16.7758722 Z M180.762628,24.0164767 C180.762628,24.1091142 180.707037,24.1549729 180.688813,24.192396 L180.669976,24.2295123 C180.669976,24.2295123 179.891548,25.6005171 179.670868,27.0629324 C179.449116,28.5250409 179.499041,30.2896018 179.499041,30.2896018 C179.499041,30.2896018 179.515274,30.4080061 179.500419,30.5337723 C179.485718,30.6593851 179.463818,30.7326976 179.440693,30.7480349 C179.418947,30.7627587 179.396282,30.7849979 179.374842,30.7774826 C179.352789,30.7696606 179.315575,30.7326976 179.315575,30.7326976 L179.294441,30.6741089 C179.294441,30.6741089 179.220167,30.3931289 179.050484,30.1937435 C178.880188,29.9942047 178.806986,29.9644502 178.68784,29.9281007 C178.570532,29.8911378 178.519229,29.8980396 178.467314,29.9133769 C178.416011,29.9281007 178.401156,29.9428246 178.386301,29.9722723 C178.371599,30.0014132 178.371599,30.0828545 178.371599,30.0828545 L178.386301,30.1642958 L178.732558,31.1468057 C178.732558,31.1468057 178.799482,31.3168968 178.939914,31.4647488 C179.079734,31.6126007 179.13992,31.6420484 179.315575,31.6639808 C179.49215,31.6859132 179.595368,31.6937352 179.758313,31.6342264 C179.920645,31.5756377 180.222644,31.3685837 180.222644,31.3685837 C180.222644,31.3685837 180.297531,31.3093815 180.34133,31.2727253 C180.385435,31.2354555 180.400137,31.1837687 180.466295,31.1909773 C180.533066,31.1984926 180.554812,31.2129097 180.584981,31.26521 C180.614385,31.3168968 180.620664,31.3463445 180.620664,31.3983381 C180.620664,31.4497182 180.629087,31.54619 180.57028,31.6790114 C180.510707,31.8116794 180.393246,32.0037029 180.1937,32.1813093 C179.994154,32.3586089 179.76597,32.4992523 179.76597,32.4992523 L179.551876,32.6170431 C179.551876,32.6170431 179.427064,32.6837605 179.382193,32.7207235 C179.337475,32.7573797 179.279127,32.8093733 179.279127,32.8093733 L179.24957,32.8532381 L179.234869,32.9055384 L179.227212,33.0305377 L179.227212,33.7546135 C179.227212,33.7546135 179.24176,34.1757769 179.211744,34.3012363 C179.182953,34.4271559 179.175296,34.500315 179.102093,34.6337498 C179.028431,34.7667245 178.869775,35.1481642 178.827201,35.3432551 C178.700857,35.918252 178.135605,35.9783744 178.135605,35.9783744 L175.508582,35.9783744 C175.508582,35.9783744 175.43538,35.9858896 175.339971,35.8604302 C175.243185,35.734664 175.111022,35.4829783 175.111022,35.4829783 C175.111022,35.4829783 175.118067,35.4685612 175.081312,35.4538373 C175.043486,35.4388068 174.99938,35.4315982 174.99938,35.4315982 L174.882072,35.4315982 L174.556949,35.4170277 C174.556949,35.4170277 174.491404,35.4243897 174.431678,35.3653409 C174.372411,35.3056786 174.342548,35.2395747 174.336116,35.1360477 C174.328306,35.0323673 174.313145,34.7004672 174.446686,34.3898861 C174.446686,34.3898861 174.541022,34.1237833 174.765837,33.9139685 C174.991264,33.7041537 175.266616,33.6176511 175.266616,33.6176511 L175.410724,33.4305355 C175.410724,33.4305355 175.441812,33.3897382 175.514555,33.3412722 C175.587145,33.2932664 175.668005,33.244647 175.668005,33.244647 C175.668005,33.244647 175.925745,33.1556904 176.095122,33.0911202 C176.263273,33.0270102 176.49697,32.9544645 176.56956,32.8093733 C176.64215,32.6642821 176.658077,32.6481779 176.674617,32.4866757 C176.690084,32.3254803 176.690084,32.0676596 176.690084,32.0676596 C176.690084,32.0676596 176.665581,31.9150531 176.658077,31.6164351 C176.65042,31.3185839 176.674004,31.3504856 176.690084,31.0359168 C176.70647,30.7213479 176.804942,30.1015661 176.756089,29.5044834 C176.707695,28.9081677 176.649348,28.4822498 176.622088,28.1587853 C176.584874,27.7110883 176.460828,27.418912 176.460828,27.418912 C176.460828,27.418912 175.090807,27.3514277 174.2842,27.2305695 C173.479125,27.1095579 172.980337,27.0020432 172.442804,26.8133939 C171.906955,26.6252047 171.745388,26.5310335 171.422715,26.3022004 C171.099123,26.0735206 170.992382,25.9655458 170.924999,25.8983682 C170.857769,25.831344 170.696662,25.6560383 170.696662,25.6560383 C170.696662,25.6560383 170.481802,25.9655458 170.254231,26.3291941 C170.024822,26.6920755 169.864021,26.9748961 169.810421,27.1495884 C169.756208,27.3250475 169.742578,27.3782681 169.742578,27.486243 C169.742578,27.5940644 169.769225,27.9167621 169.769225,27.9167621 L169.944421,28.8455913 L169.970303,29.0070935 C169.970303,29.0070935 169.997562,29.1282585 169.944421,29.2086262 C169.890209,29.2894539 169.775045,29.3325519 169.775045,29.3325519 L169.402753,29.5098515 C169.402753,29.5098515 168.294454,29.9017205 167.446192,30.2560131 C166.600075,30.610459 165.463597,31.3380623 165.407547,31.5245644 C165.351496,31.7109131 165.370333,31.6084596 165.370333,31.6639808 C165.370333,31.7202688 165.38917,31.8504829 165.38917,31.8504829 L165.444761,31.9719546 L165.538025,32.1214936 L165.752732,32.2986399 L165.956719,32.4475655 L166.059325,32.5319208 C166.059325,32.5319208 166.133906,32.6250185 166.105421,32.7182695 C166.078162,32.8118273 165.966214,32.88606 165.798828,32.9044648 C165.631136,32.9233297 165.3054,32.9325321 164.923001,32.7652018 C164.54198,32.5971045 164.317778,32.4846818 164.317778,32.4846818 C164.317778,32.4846818 164.024968,32.6276258 163.858348,32.7549258 C163.6928,32.8809987 163.518675,33.0320715 163.448076,33.2138189 C163.376405,33.3960265 163.384675,33.4121307 163.384675,33.4753206 C163.384675,33.5389705 163.400908,33.5783875 163.400908,33.5783875 L163.416223,33.6256265 L163.479777,33.673479 C163.479777,33.673479 163.502749,33.6809943 163.518675,33.7368222 C163.535215,33.79219 163.52618,33.927312 163.52618,33.927312 L163.502749,34.1567586 C163.502749,34.1567586 163.45604,34.3391195 163.400908,34.4337509 C163.344858,34.5291492 163.043625,34.7904974 163.043625,34.7904974 L160.441411,34.7904974 L160.259936,34.7904974 C160.259936,34.7904974 160.236352,34.7984728 160.173104,34.7033813 C160.109243,34.6084432 160.069885,34.5842102 160.015519,34.5291492 C159.959315,34.473628 159.856709,34.3938738 159.856709,34.3938738 C159.856709,34.3938738 159.769111,34.3704077 159.722403,34.291267 C159.675234,34.2118196 159.643381,34.1487831 159.690396,33.9984772 C159.738176,33.8480179 159.8806,33.3171926 159.8806,33.3171926 C159.8806,33.3171926 159.944154,33.0633596 160.006637,32.9524707 C160.069885,32.8415817 160.062075,32.8015513 160.164681,32.6912758 C160.26744,32.5800801 160.583681,32.4138233 160.583681,32.4138233 L161.659514,31.8274768 C161.659514,31.8274768 161.834557,31.7245633 161.912507,31.6372938 C161.991682,31.5503311 162.119098,31.3604549 162.119098,31.3604549 C162.119098,31.3604549 162.149879,31.1968055 162.363514,31.002328 C162.578375,30.8070837 162.831368,30.6320846 162.831368,30.6320846 L164.749643,29.2577056 L165.57677,28.604335 C165.57677,28.604335 165.829916,28.3627719 165.926703,28.2337849 C166.043092,28.0778041 166.062541,27.9021916 166.062541,27.9021916 C166.062541,27.9021916 166.141104,27.6198312 166.024255,26.7032718 C165.941558,26.0620176 165.868202,25.9822635 165.7999,25.7966817 C165.732058,25.61156 165.689943,25.5735234 165.689943,25.5735234 C165.689943,25.5735234 165.428068,25.4362542 164.977367,25.6741363 C162.876851,26.7840996 160.602212,28.3781092 157.402739,28.7412974 C156.127207,28.8859285 155.286449,28.7074019 155.286449,28.7074019 L155.129324,28.6810217 C155.129324,28.6810217 155.064391,28.6549482 154.986441,28.6685984 C154.908645,28.6807149 154.843252,28.733322 154.843252,28.733322 C154.843252,28.733322 154.54401,28.9678299 154.296836,29.1508044 C154.04951,29.3325519 153.892385,29.4369991 153.372616,29.7368441 C152.852387,30.0366891 152.305359,30.2449702 151.342393,30.5578519 C150.38004,30.8707336 149.22105,31.1837687 148.570344,31.4182766 C147.919024,31.6530913 147.034315,32.0047765 147.034315,32.0047765 L146.09432,32.4280871 C146.09432,32.4280871 145.932907,32.5245589 145.859551,32.5900494 C145.785736,32.6550797 145.802888,32.6467975 145.762152,32.7360608 C145.721722,32.8254775 145.802888,32.9391272 145.802888,32.9391272 C145.802888,32.9391272 146.150983,33.2717941 146.175946,33.3127448 C146.19953,33.353082 146.19953,33.3777751 146.167676,33.4346766 C146.135056,33.4914248 146.014073,33.5236332 146.014073,33.5236332 C146.014073,33.5236332 145.672563,33.6457184 145.568119,33.661976 C145.461838,33.6782336 145.405328,33.694031 145.218799,33.669798 C145.032883,33.6454117 144.862434,33.5805347 144.740838,33.5236332 C144.619396,33.4670384 144.457523,33.3777751 144.457523,33.3777751 L144.319694,33.3369778 C144.319694,33.3369778 144.254149,33.3205668 144.198098,33.3205668 C144.141129,33.3205668 144.198098,33.3205668 144.116013,33.353082 C144.035153,33.3854438 144.011569,33.4099835 143.92198,33.5561484 C143.832698,33.7026199 143.760108,34.1164214 143.760108,34.1164214 C143.760108,34.1164214 143.702985,34.4900389 143.678942,34.6766944 C143.653979,34.8635032 143.582002,35.0093613 143.582002,35.0093613 C143.582002,35.0093613 143.452136,35.4556778 143.419057,35.5943274 C143.387204,35.7314432 143.362547,35.7645718 143.265608,35.8785283 C143.167749,35.9917178 143.021956,36 143.021956,36 L140.144238,36 C140.144238,36 140.071801,35.9917178 140.039335,35.9753069 C140.006256,35.9592027 139.9816,35.9513806 139.9816,35.9513806 C139.9816,35.9513806 139.803953,35.7889582 139.698284,35.6509222 C139.593075,35.5128861 139.568878,35.4556778 139.503945,35.3016909 C139.439319,35.1477041 139.430896,35.0259256 139.447895,34.9608953 C139.463515,34.8960183 139.477604,34.8966318 139.477604,34.8966318 C139.477604,34.8966318 139.489243,34.8783804 139.507621,34.8783804 L139.525998,34.8783804 L139.555248,34.90246 C139.555248,34.90246 139.584958,34.949699 139.614362,34.9677971 C139.644378,34.9858951 139.656935,34.9977049 139.698284,34.9914166 C139.740092,34.9858951 139.734273,34.9977049 139.770108,34.9677971 C139.80625,34.9385027 139.877003,34.8547609 139.877003,34.8547609 C139.877003,34.8547609 140.055721,34.5204069 140.264609,34.280991 C140.473037,34.0429555 140.616839,33.9230175 140.616839,33.9230175 C140.616839,33.9230175 140.640576,33.9107476 140.6588,33.8997048 C140.675952,33.8871281 140.711941,33.8871281 140.711941,33.8871281 L140.8902,33.8871281 C140.8902,33.8871281 140.914243,33.8935698 140.920981,33.9107476 C140.926801,33.9291524 140.914243,33.9589069 140.914243,33.9589069 L140.88438,33.9891214 C140.88438,33.9891214 140.66952,34.1382004 140.514998,34.3587513 C140.360323,34.5799158 140.305957,34.6754674 140.305957,34.6754674 C140.305957,34.6754674 140.258789,34.7286879 140.25297,34.8004667 C140.246385,34.8725522 140.241025,34.8904969 140.258789,34.9260795 C140.276554,34.9619689 140.318515,34.9914166 140.318515,34.9914166 L140.360323,35.009668 L140.384061,35.0334409 C140.401366,35.0515389 140.389267,35.0814467 140.389267,35.0814467 C140.389267,35.0814467 140.360323,35.2124276 140.419284,35.2484704 C140.479469,35.2843597 140.532763,35.2786849 140.532763,35.2786849 C140.532763,35.2786849 140.562779,35.3023044 140.735525,35.2958628 C140.909036,35.2903413 141.01593,35.2305257 141.01593,35.2305257 L141.069377,35.1886548 L141.110726,35.1409556 L141.176731,35.0274593 C141.176731,35.0274593 141.235998,34.6509276 141.385772,34.4250086 C141.534474,34.1981694 141.522069,34.2394268 141.612577,34.1440286 C141.700788,34.0489371 141.808141,33.9650418 141.808141,33.9650418 C141.808141,33.9650418 141.850868,33.9171893 141.879813,33.9230175 C141.910288,33.9291524 141.93326,33.9409622 141.93326,33.9409622 L141.951637,33.9766982 L141.945205,34.0303789 L141.93326,34.0903479 C141.93326,34.0903479 141.92744,34.1084459 141.910288,34.1202557 C141.891451,34.1323722 141.784557,34.2216355 141.73693,34.305224 C141.690221,34.3888125 141.635855,34.4904991 141.605839,34.5975537 C141.575823,34.7050684 141.56449,34.8127366 141.56449,34.8127366 C141.56449,34.8127366 141.558211,34.9260795 141.569238,35.0334409 C141.582255,35.1409556 141.612577,35.2188693 141.612577,35.2188693 C141.612577,35.2188693 141.65362,35.2786849 141.677204,35.2958628 C141.700788,35.3144209 141.713193,35.3322122 141.73693,35.3322122 C141.761586,35.3322122 141.778738,35.3498502 141.825906,35.3377337 C141.873687,35.3260773 141.987779,35.2903413 141.987779,35.2903413 C141.987779,35.2903413 142.213512,35.1590537 142.308461,35.0694836 C142.404176,34.9800669 142.44093,34.9385027 142.512295,34.8547609 C142.583507,34.771019 142.607091,34.6929519 142.607091,34.6454062 C142.607091,34.5975537 142.613217,34.5739342 142.601271,34.5558361 C142.589326,34.5380448 142.571868,34.5084438 142.571868,34.5084438 L142.547518,34.4843641 C142.523321,34.4424932 142.535726,34.3832911 142.535726,34.3832911 L142.559463,34.3352852 C142.559463,34.3352852 142.589326,34.2929541 142.679221,34.2512366 C142.768351,34.209519 142.886884,34.1621266 142.886884,34.1621266 L143.090565,34.0964828 C143.090565,34.0964828 143.102204,34.0903479 143.15611,34.0667284 C143.209557,34.0429555 143.298074,33.9780786 143.298074,33.9780786 C143.298074,33.9780786 143.358872,33.9127415 143.400221,33.7682638 C143.443867,33.6132033 143.455199,33.6596754 143.46791,33.507529 C143.472198,33.4697991 143.423805,33.4096768 143.423805,33.4096768 L143.403284,33.3854438 C143.403284,33.3854438 143.391338,33.3573764 143.289804,33.3696463 C143.187964,33.3811493 143.179082,33.3777751 143.119356,33.4021615 C143.059783,33.425781 142.936043,33.4877438 142.876317,33.5236332 C142.817204,33.5592158 142.784125,33.5869764 142.730524,33.6046143 C142.676771,33.6228658 142.672024,33.636516 142.613217,33.6306878 C142.554103,33.6248596 142.517502,33.6061481 142.493918,33.589277 C142.470334,33.5708722 142.404176,33.5406576 142.398969,33.5109032 C142.392231,33.4814555 142.392231,33.5006272 142.403104,33.4630507 C142.413671,33.4256276 142.708625,33.1895859 142.847985,33.0231758 C142.987346,32.8569191 143.0728,32.7331467 143.174947,32.572258 C143.276175,32.4113694 143.415535,32.2216465 143.509871,32.1118311 C143.585677,32.0253285 143.839896,31.8193481 144.176658,31.7293179 C144.176658,31.7293179 145.472405,31.4595341 146.108409,31.2793203 C146.745946,31.0995667 147.442136,30.8667459 148.003406,30.5291711 C148.003406,30.5291711 148.702353,30.1073942 149.220437,29.5483482 C149.738675,28.9886887 150.094427,28.567372 150.515112,28.1460553 C150.903331,27.7563335 151.01191,27.700659 151.138712,27.6190643 C151.251579,27.546212 151.300432,27.5216722 151.413145,27.4893104 C151.526931,27.4567953 151.551281,27.4808749 151.583747,27.4893104 C151.61606,27.4969791 151.664607,27.546212 151.664607,27.546212 L151.664607,27.5948313 L151.639951,27.6268864 C151.639951,27.6268864 151.284658,27.9675287 151.106246,28.2593982 C150.927987,28.5512678 150.911754,28.5512678 150.814354,28.7374631 C150.717415,28.9239651 150.653248,29.1512645 150.653248,29.1512645 C150.653248,29.1512645 150.636708,29.1834729 150.661364,29.2402211 C150.684948,29.2969692 150.725225,29.2969692 150.725225,29.2969692 L150.765502,29.2969692 L150.814354,29.2888404 C150.814354,29.2888404 151.486348,29.2481965 152.157729,28.640071 C152.829263,28.0324056 153.363733,27.3597099 153.363733,27.3597099 L153.743989,26.8572587 C153.743989,26.8572587 153.874314,26.7275048 153.946291,26.6865541 C154.020106,26.6462169 154.100353,26.6462169 154.100353,26.6462169 L154.173556,26.6546524 C154.173556,26.6546524 154.206022,26.6707566 154.213526,26.6946829 C154.221796,26.7190692 154.213526,26.7515844 154.213526,26.7515844 L154.18933,26.7922284 C154.18933,26.7922284 154.059005,27.0190676 154.00127,27.1652324 C153.945219,27.3107838 153.871251,27.4701387 153.854711,27.6317943 C153.838938,27.7943701 153.842,27.8948297 153.857162,27.9595532 C153.874314,28.0245836 153.881818,28.056792 153.914437,28.0728962 C153.946291,28.0890004 153.98764,28.1135401 153.98764,28.1135401 L154.035421,28.1135401 L154.174628,28.1132334 C154.174628,28.1132334 154.432981,28.0718226 154.748303,27.9661483 C155.064391,27.8610875 155.201455,27.8055664 155.338824,27.7077141 C155.476194,27.6112423 155.532857,27.5537272 155.55782,27.4567953 C155.581404,27.3597099 155.581404,27.246367 155.574206,27.1971341 C155.565324,27.1488215 155.532857,27.0273498 155.484617,26.946522 L155.496409,26.9650802 C155.496409,26.9650802 155.380786,26.6817995 155.145404,26.4759724 C154.910942,26.2702987 154.793481,26.2261272 154.719972,26.1968328 L154.646769,26.1670784 L154.646769,26.0348705 C154.646769,26.0348705 155.610807,26.0615575 156.497661,25.8433072 C157.275783,25.6522039 157.907193,25.4023587 158.245487,25.0486796 C158.3801,24.9080362 158.803542,24.489787 158.627121,24.0927033 C158.562341,23.9469985 158.266008,23.7649443 158.113937,23.8867228 L158.02542,23.960342 L157.951605,24.0485317 C157.951605,24.0485317 157.878249,24.1813531 157.745627,24.1368748 C157.613617,24.0927033 157.437655,23.7250672 157.511011,23.4453142 C157.583907,23.1661746 157.745627,23.0335066 157.922661,22.9451635 C158.098316,22.8566671 158.231398,22.8566671 158.407513,22.8566671 C158.583475,22.8566671 158.892671,22.9551328 158.995277,22.9743045 C159.303402,23.0335066 159.846755,23.2103461 159.846755,23.2103461 C159.846755,23.2103461 160.977873,23.5040562 161.63884,23.5776754 C162.586338,23.6833497 162.431816,23.6516014 162.696142,23.6516014 C162.960468,23.6516014 163.108098,23.636264 163.108098,23.636264 L163.342254,23.6224604 C163.342254,23.6224604 163.548232,23.5776754 163.666918,23.4601914 C163.666918,23.4601914 164.730806,22.5741533 165.014581,22.362498 C165.298968,22.1509961 165.52026,22.0137269 165.996383,21.8390346 C166.473731,21.6646491 166.968844,21.563576 167.444967,21.5174106 C167.921703,21.471552 168.234422,21.4901102 168.435805,21.508515 C168.637955,21.5272265 168.903659,21.6002323 168.903659,21.6002323 C168.903659,21.6002323 168.959096,21.6187904 168.967213,21.646551 C168.976555,21.6735447 168.959096,21.710201 168.959096,21.710201 L168.921423,21.7381149 L168.857562,21.7563664 C168.857562,21.7563664 168.288634,21.7930226 167.628433,21.9585125 C166.968844,22.123849 166.309715,22.4092769 166.001131,22.6301346 C165.625929,22.8989981 165.587337,22.9212373 165.339551,23.2155608 C165.092531,23.5098844 164.996203,23.6591167 164.931883,23.7782878 C164.868329,23.8976123 164.785631,24.0707709 164.804468,24.1354944 C164.82162,24.1994511 164.8864,24.3374872 164.8864,24.3374872 C164.8864,24.3374872 164.905236,24.3834992 164.969097,24.4014439 C165.033417,24.4198487 165.061289,24.428591 165.116727,24.428591 C165.1714,24.428591 165.494073,24.3408614 165.494073,24.3408614 C165.494073,24.3408614 166.079081,24.1318135 166.861491,24.0321208 C167.64436,23.9328882 168.338253,23.9328882 168.338253,23.9328882 L169.044091,23.9216919 L169.352675,23.9109558 L169.496171,23.8997595 L169.616848,23.88887 C169.802304,23.8384102 169.815934,23.7289016 169.815934,23.7289016 C169.815934,23.7289016 169.889137,23.3108057 169.965708,23.1940886 C170.076737,23.028752 170.053,23.0020651 170.185163,23.0020651 C170.317785,23.0020651 170.565112,23.0496108 170.675528,23.0937824 C170.786098,23.1379539 170.895595,23.1824322 170.895595,23.1824322 L171.083196,23.3701612 L171.171713,23.6016017 C171.171713,23.6016017 171.284427,24.1597274 171.654421,24.6321175 C172.023803,25.1040474 172.264545,25.6324188 173.19872,25.8818039 C174.131976,26.132416 174.696156,26.1788882 175.380554,26.1971396 C176.065106,26.2155444 176.536481,26.2525074 176.536481,26.2525074 C176.536481,26.2525074 176.555011,26.2437651 176.674617,26.2713723 C176.794987,26.2985194 177.238644,26.456494 177.238644,26.456494 L177.840651,26.6969835 C177.840651,26.6969835 178.228869,26.817535 178.366852,26.8363999 C178.5056,26.8544979 178.615863,26.8733629 178.663184,26.8267374 C178.708362,26.7802652 178.736846,26.7989768 178.727351,26.6969835 C178.718316,26.5954503 178.691516,26.4839478 178.672679,26.456494 C178.653842,26.4284267 178.635312,26.4284267 178.608359,26.4005127 C178.579874,26.3727521 178.450162,26.3452983 178.450162,26.3452983 C178.450162,26.3452983 178.200691,26.2344093 178.024576,26.0765881 C177.850146,25.9189203 177.672959,25.6971423 177.414453,25.4745975 C177.155334,25.2528196 177.064213,25.2060407 176.850425,25.0486796 C176.638475,24.8914719 176.286398,24.6969944 176.045656,24.6502155 C175.805987,24.6040502 175.685769,24.5954612 175.538139,24.6040502 C175.389284,24.6135593 175.232618,24.6410131 175.084375,24.7152459 C174.936132,24.789632 174.904585,24.781043 174.821887,24.8925455 C174.737964,25.0034345 174.723875,24.983956 174.714993,25.0765936 C174.705498,25.1693845 174.714993,25.2245989 174.714993,25.2245989 L174.73337,25.271071 C174.73337,25.271071 173.844679,25.3236781 172.929493,24.3874869 C172.929493,24.3874869 172.391347,23.9242993 172.126409,23.2720022 C171.862849,22.6201653 171.758099,22.2042167 171.758099,22.2042167 L171.531753,21.4569815 C171.531753,21.4569815 171.504494,21.3626569 171.531753,21.3439453 C171.560544,21.3247736 171.750136,21.333976 171.750136,21.333976 L171.937737,21.352841 C171.937737,21.352841 171.994246,21.352841 172.023191,21.3815218 C172.05091,21.4095891 172.108032,21.5040671 172.108032,21.5040671 C172.108032,21.5040671 172.278787,21.8542186 172.447398,22.1187877 C172.618,22.3836635 172.712489,22.5250738 172.976049,22.808968 C173.24114,23.0920952 173.514808,23.3853452 173.863515,23.602982 C174.213142,23.8200054 174.39186,23.8861093 174.608865,23.905281 C174.826481,23.9242993 175.137975,23.9810474 175.495718,23.8959252 C175.855605,23.8111097 176.157911,23.7258341 176.28992,23.6124912 C176.42193,23.4988415 176.459603,23.4233818 176.506312,23.3569711 C176.553021,23.2911739 176.581812,23.2247632 176.581812,23.2247632 L176.619025,23.18688 L176.658077,23.1683218 C176.658077,23.1683218 177.120877,23.1683218 177.657491,23.4988415 C178.19579,23.8295145 178.366239,23.9620291 178.366239,23.9620291 L178.469458,24.0376422 C178.469458,24.0376422 178.507284,24.0759856 178.516626,24.1229178 C178.527193,24.1698501 178.516626,24.2175492 178.516626,24.2175492 C178.516626,24.2175492 178.488448,24.4065052 178.507284,24.5384063 C178.527193,24.6713811 178.602539,24.9359502 178.733936,25.087023 C178.865946,25.2382491 178.998262,25.3043531 179.168864,25.3236781 C179.338547,25.3419295 179.474385,25.3155493 179.530436,25.2322676 C179.567037,25.176593 179.661526,25.1095689 179.631357,24.8403986 C179.606395,24.6112587 179.501645,24.5126396 179.501645,24.5126396 L179.409912,24.4523639 C179.409912,24.4523639 179.391075,24.4242965 179.40057,24.3874869 C179.409912,24.3503706 179.514049,24.2505245 179.514049,24.2505245 C179.514049,24.2505245 180.040097,24.294696 180.170116,24.1741445 C180.299522,24.0534397 180.317746,23.9979185 180.317746,23.9979185 C180.317746,23.9979185 180.336583,23.9606488 180.308864,23.9236858 C180.280532,23.8861093 180.234436,23.8770603 180.234436,23.8770603 C180.234436,23.8770603 180.206717,23.8302814 180.234436,23.7655578 C180.262308,23.7008342 180.354654,23.6632578 180.354654,23.6632578 L180.43781,23.6358039 L180.52112,23.6358039 L180.698154,23.8212324 C180.698154,23.8212324 180.762628,23.9236858 180.762628,24.0164767 L180.762628,24.0164767 Z M159.600807,27.0190676 C159.555936,26.9853255 159.522857,27.0075646 159.522857,27.0075646 C159.522857,27.0075646 159.388856,26.9627796 159.26726,26.9405404 C159.145205,26.9181479 159.088542,26.8847125 159.021924,26.8736696 C158.95546,26.8630869 158.743969,26.7963694 158.577043,26.7291919 C158.410116,26.6621677 158.188058,26.5506653 158.188058,26.5506653 L157.843026,26.3614025 C157.843026,26.3614025 157.787588,26.3391633 157.73261,26.3391633 C157.676559,26.3391633 157.644093,26.3727521 157.644093,26.3727521 C157.644093,26.3727521 157.409936,26.4951441 157.242857,26.5399291 C157.076696,26.5841007 156.965055,26.6064932 156.965055,26.6064932 C156.965055,26.6064932 156.942543,26.6506647 156.954488,26.7291919 C156.965055,26.8066455 157.053572,26.8291913 157.053572,26.8291913 C157.053572,26.8291913 157.286656,26.9992824 157.932156,27.1635453 C158.722223,27.3641577 159.410756,27.1965206 159.410756,27.1965206 L159.590087,27.1409994 L159.633886,27.0968279 C159.633886,27.0968279 159.645065,27.0518895 159.600807,27.0190676 L159.600807,27.0190676 Z M161.869474,25.882264 C161.827666,25.882264 161.701322,25.8712211 161.701322,25.8712211 C161.701322,25.8712211 161.62475,25.8712211 161.379262,25.8380925 C161.135457,25.8045037 161.223974,25.8158533 160.445546,25.6827252 C159.667424,25.5485235 159.010592,25.2925433 159.010592,25.2925433 L158.95546,25.2925433 L158.911508,25.3144757 C158.911508,25.3144757 158.922381,25.314169 158.722223,25.5150881 C158.610734,25.6265906 158.489138,25.7158539 158.489138,25.7158539 C158.489138,25.7158539 158.4556,25.72659 158.443655,25.7825713 C158.433088,25.8380925 158.4556,25.8270496 158.489138,25.8712211 C158.522217,25.9158528 158.588222,25.9161595 158.833864,25.9937665 C159.077975,26.0718335 159.911688,26.1943789 160.257486,26.216618 C160.600987,26.2394706 160.812324,26.2610963 161.223974,26.2499 C161.635317,26.2394706 161.824603,26.1715262 161.902553,26.138551 C162.225226,26.0002081 162.04712,25.882264 161.869474,25.882264 L161.869474,25.882264 Z M163.225406,24.6239887 C163.225406,24.6239887 163.137501,24.6239887 162.836575,24.6129458 C162.53626,24.6019029 162.102558,24.579357 161.212948,24.3785913 C160.323491,24.1782856 159.689477,23.9111092 159.689477,23.9111092 C159.689477,23.9111092 159.478751,23.8216925 159.43434,23.8333489 C159.388856,23.8445451 159.410756,23.966477 159.410756,24.0115687 C159.410756,24.1673961 159.322239,24.3785913 159.322239,24.3785913 C159.322239,24.3785913 159.28916,24.4011372 159.299727,24.4571184 C159.311672,24.5129464 159.344751,24.50129 159.344751,24.50129 L159.45578,24.5462284 L159.84507,24.6687737 C159.84507,24.6687737 159.967738,24.7135588 160.712322,24.8914719 C161.457671,25.0698451 161.96917,25.0920843 162.302717,25.0920843 C162.480822,25.0920843 162.936271,25.0137105 163.047759,24.9581893 C163.158942,24.902208 163.258944,24.8135582 163.258944,24.8135582 C163.258944,24.8135582 163.303356,24.7135588 163.303356,24.6687737 C163.303356,24.6239887 163.225406,24.6239887 163.225406,24.6239887 Z M163.180075,32.2217998 C163.010086,32.2064625 162.790019,32.4339152 162.678377,32.5331478 C162.448968,32.7385148 161.961207,33.0181145 161.984638,33.3754745 C161.997502,33.5653508 162.633813,33.5517005 162.662144,33.4072228 C162.712069,33.1474083 163.12816,32.7549258 163.365379,32.3975657 C163.454508,32.2648978 163.256953,32.2283949 163.180075,32.2217998 L163.180075,32.2217998 Z M168.943476,26.0568029 C168.867517,26.0568029 168.715445,26.0982137 168.542546,26.3767398 C168.510692,26.4270463 168.435805,26.6669223 168.394303,26.8135473 L168.296445,27.3750472 C168.28404,27.46201 168.170255,28.2308708 168.000265,28.4644585 C167.797197,28.7440582 167.030714,29.2135341 167.000239,29.2317855 C166.988293,29.2402211 165.778001,30.0277934 165.489479,30.2570867 C165.371405,30.3504911 165.347821,30.4241103 165.350271,30.4363802 C165.350271,30.4363802 165.357316,30.4411347 165.378143,30.4411347 C165.41061,30.4411347 165.481974,30.430552 165.608165,30.3576996 C166.238963,29.9934378 167.266249,29.4903731 167.276356,29.4859253 L168.933062,28.6621568 L168.806259,27.7501986 C168.805187,27.709708 168.801052,26.7477501 169.102898,26.2558816 C169.131995,26.2097162 169.110708,26.1624772 169.100754,26.1437656 C169.077017,26.101588 169.023264,26.0568029 168.943476,26.0568029 Z M176.369095,34.0089066 L176.483953,33.9510848 L176.529437,33.9049195 L176.529437,33.8250119 C176.529437,33.8250119 176.506924,33.7788465 176.438163,33.7556871 C176.368483,33.7331413 176.311054,33.7331413 176.311054,33.7331413 L176.139533,33.7443375 C176.139533,33.7443375 176.058367,33.7331413 176.023757,33.7331413 C175.990218,33.7331413 175.920538,33.7443375 175.920538,33.7443375 C175.920538,33.7443375 175.748252,33.8021593 175.3925,34.020563 C175.036594,34.2394268 174.990039,34.6072162 174.990039,34.6072162 L174.979472,34.7452523 L175.024649,34.8368162 C175.024649,34.8368162 175.254977,34.8949447 175.369375,34.9404966 C175.485151,34.9863552 175.633547,34.9404966 175.680256,34.9059876 C175.725587,34.8719387 175.713948,34.8368162 175.713948,34.8368162 L175.771683,34.6645779 C175.771683,34.6645779 175.821454,34.5708667 175.920538,34.3883524 C176.058367,34.1354397 176.369095,34.0089066 176.369095,34.0089066 L176.369095,34.0089066 Z M178.011559,32.9849858 C177.827634,32.9849858 177.851064,33.3260883 177.833453,33.4280816 C177.75489,33.8750116 177.537733,33.8380487 177.15855,34.0237838 C176.760836,34.2184147 176.472161,34.4834439 176.403093,34.929147 C176.401562,34.9947908 176.433416,35.4458619 176.563434,35.3535311 C176.625611,35.3101265 176.621476,35.2374275 176.701876,35.2055258 C177.042161,35.0694836 177.392706,35.2702494 177.735594,35.2395747 C177.974345,35.2185626 178.478953,34.8983189 178.252453,34.5958666 C178.165621,34.4788427 177.91079,34.638351 178.161486,34.3541501 C178.333773,34.1584457 178.620763,34.2105926 178.733936,34.0362071 C178.874982,33.8171899 178.759205,33.5613631 178.666553,33.353082 C178.553227,33.0995558 178.268227,32.9849858 178.011559,32.9849858 L178.011559,32.9849858 Z" id="LOGO"></path>
        </g>
    </g>
</svg>