<?xml version="1.0" encoding="UTF-8" standalone="no"?>
<svg width="29px" height="23px" viewBox="0 0 29 23" version="1.1" xmlns="http://www.w3.org/2000/svg" xmlns:xlink="http://www.w3.org/1999/xlink">
    <!-- Generator: Sketch 39.1 (31720) - http://www.bohemiancoding.com/sketch -->
    <title>twitter</title>
    <desc>Created with Sketch.</desc>
    <defs></defs>
    <g id="Symbols" stroke="none" stroke-width="1" fill="none" fill-rule="evenodd">
        <g id="footer" transform="translate(-140.000000, -107.000000)" fill="#AC9E94">
            <g id="ICONS" transform="translate(102.000000, 101.000000)">
                <path d="M66.3955,8.69346429 C65.3521667,9.14853571 64.2271667,9.45903571 63.0505,9.59703571 C64.2538333,8.88567857 65.1771667,7.76196429 65.6105,6.42139286 C64.4855,7.08017857 63.2388333,7.55660714 61.9105,7.81289286 C60.8505,6.69739286 59.3355,5.99917857 57.6588333,5.99917857 C54.4438333,5.99917857 51.8355,8.57189286 51.8355,11.7409643 C51.8355,12.19275 51.8838333,12.62975 51.9855,13.0486786 C47.1438333,12.8104643 42.8521667,10.52525 39.9771667,7.04896429 C39.4755,7.90160714 39.1888333,8.88567857 39.1888333,9.93875 C39.1888333,11.9298929 40.2171667,13.68775 41.7805,14.7178214 C40.8255,14.68825 39.9271667,14.4286786 39.1405,13.9998929 L39.1405,14.0705357 C39.1405,16.8551786 41.1488333,19.1765357 43.8155,19.70225 C43.3255,19.8369643 42.8121667,19.9043214 42.2788333,19.9043214 C41.9038333,19.9043214 41.5371667,19.8698214 41.1838333,19.8024643 C41.9238333,22.08275 44.0755,23.7436786 46.6255,23.7880357 C44.6305,25.3290357 42.1188333,26.2473929 39.3905,26.2473929 C38.9205,26.2473929 38.4555,26.2211071 38.0005,26.1685357 C40.5788333,27.7949643 43.6405,28.7461786 46.9305,28.7461786 C57.6471667,28.7461786 63.5055,19.9979643 63.5055,12.4096071 C63.5055,12.15825 63.5005,11.9101786 63.4888333,11.6670357 C64.6271667,10.8554643 65.6171667,9.84346429 66.3955,8.69346429" id="twitter"></path>
            </g>
        </g>
    </g>
</svg>