<?xml version="1.0" encoding="UTF-8" standalone="no"?>
<svg width="139px" height="70px" viewBox="0 0 139 70" version="1.1" xmlns="http://www.w3.org/2000/svg" xmlns:xlink="http://www.w3.org/1999/xlink">
    <!-- Generator: Sketch 43.1 (39012) - http://www.bohemiancoding.com/sketch -->
    <title>MARIGOLD LOGO</title>
    <desc>Created with Sketch.</desc>
    <defs></defs>
    <g id="3.0-FOOD-&amp;-DRINK" stroke="none" stroke-width="1" fill="none" fill-rule="evenodd">
        <g id="3.6-MARIGOLD" transform="translate(-101.000000, -255.000000)">
            <g id="LEFT-NAV" transform="translate(101.000000, 255.000000)">
                <g id="MARIGOLD-LOGO">
                    <path d="M11.4435649,57.4175313 L4.77133886,40.8228612 L1.54992911,56.4691931 L-9.04065037e-05,56.4691931 L4.30890959,35.6658894 L11.4440169,53.4083687 L18.6048901,35.667251 L22.912986,56.4691931 L21.3631925,56.4691931 L21.3331324,56.3223698 L18.1411047,40.8221804 L11.4435649,57.4175313 Z M100.018433,56.7260773 C94.5027324,56.7260773 89.8431811,52.0946741 89.8431811,46.6122854 C89.8431811,41.1301237 94.5027324,36.4984936 100.018433,36.4984936 C105.534134,36.4984936 110.193685,41.1301237 110.193685,46.6122854 C110.193685,52.0946741 105.534134,56.7260773 100.018433,56.7260773 L100.018433,56.7260773 Z M77.1060348,56.7260773 C71.645934,56.7260773 67.0331681,52.1296212 67.0331681,46.6894414 C67.0331681,41.0702143 71.6206202,36.4984936 77.2592738,36.4984936 C80.6350527,36.4984936 83.5757502,38.086092 85.7638137,41.0899572 L85.8680072,41.2324689 L84.5776803,42.2620478 L84.4671584,42.0961624 C82.7137242,39.4683193 80.1267421,38.0211902 77.1828803,38.0211902 C72.6245844,38.0211902 68.6263567,42.0360261 68.6263567,46.6122854 C68.6263567,51.2691047 72.5448007,55.2033807 77.1828803,55.2033807 C79.1033405,55.2033807 81.0771405,54.4615483 82.7408462,53.1142681 C84.2153763,51.8613906 84.9029177,50.41585 85.0154738,48.3099447 L78.123786,48.3099447 L78.123786,46.787248 L86.6129567,46.787248 L86.617025,46.96743 C86.6604202,49.0497347 86.4486429,51.458137 84.5498803,53.53613 C82.7130462,55.533563 79.93056,56.7260773 77.1060348,56.7260773 L77.1060348,56.7260773 Z M128.534453,56.4691931 L124.875927,56.4691931 L124.875927,36.7551508 L128.534453,36.7551508 C131.302248,36.7551508 133.599477,37.1783742 135.814662,39.2416168 C137.830275,41.1373854 138.940015,43.7640939 138.940015,46.6377015 C138.940015,49.4116872 137.86689,51.9737207 135.919082,53.8522427 C133.542747,56.1523996 130.965484,56.4691931 128.534453,56.4691931 L128.534453,56.4691931 Z M121.000427,56.4691931 L114.500877,56.4691931 L114.500877,36.7551508 L116.094066,36.7551508 L116.094066,54.9469504 L121.000427,54.9469504 L121.000427,56.4691931 Z M60.6470787,56.4691931 L62.2402673,56.4691931 L62.2402673,36.7551508 L60.6470787,36.7551508 L60.6470787,56.4691931 Z M56.3785356,56.4691931 L54.5270104,56.4691931 L48.2405941,47.3091858 L47.9067681,47.3091858 L47.9067681,56.4691931 L46.3135795,56.4691931 L46.3135795,36.7551508 L48.8992055,36.7551508 C50.3599486,36.7551508 52.0155177,36.7551508 53.4021275,37.7649868 C55.0692234,38.9434315 55.4200007,40.7570517 55.4200007,42.0707463 C55.4200007,43.6106896 54.9320315,44.9064567 54.0085291,45.8189401 C53.0599389,46.7563856 51.7015811,47.2676577 50.0654494,47.3078242 L56.3785356,56.4691931 Z M42.51176,56.4691931 L40.8641015,56.4691931 L38.2834478,50.1060913 L30.070695,50.1060913 L27.4898153,56.4691931 L25.8426088,56.4691931 L25.9447681,56.2161668 L34.1902933,35.8074934 L42.51176,56.4691931 Z M100.018433,38.0211902 C95.3663405,38.0211902 91.4363698,41.9552392 91.4363698,46.6122854 C91.4363698,51.2691047 95.3663405,55.2033807 100.018433,55.2033807 C104.670526,55.2033807 108.600497,51.2691047 108.600497,46.6122854 C108.600497,41.9552392 104.670526,38.0211902 100.018433,38.0211902 L100.018433,38.0211902 Z M126.469116,54.9469504 L128.509139,54.9469504 C131.33502,54.9469504 133.230167,54.2641197 134.845957,52.6649478 C136.458357,51.0460331 137.346827,48.9054076 137.346827,46.6377015 C137.346827,44.1879981 136.378799,41.9491121 134.620619,40.3331475 C133.010253,38.8735372 131.239415,38.2776205 128.509139,38.2776205 L126.469116,38.2776205 L126.469116,54.9469504 Z M30.6802608,48.5833947 L37.675012,48.5833947 L34.1896153,39.9178666 L30.6802608,48.5833947 Z M47.9067681,45.7867161 L49.2823031,45.7867161 C50.5267486,45.7867161 51.630612,45.722495 52.5355811,44.9336883 C53.3578283,44.2683311 53.826586,43.2076628 53.826586,42.0194602 C53.826586,40.8314845 53.3182754,39.3351117 51.8909828,38.6983477 C50.990308,38.2685433 49.8328787,38.2730819 48.8101551,38.2769397 L47.9067681,38.2776205 L47.9067681,45.7867161 Z" id="Fill-1" fill="#E55424"></path>
                    <path d="M93.3245774,13.8832035 C92.651275,12.7127014 91.6683302,12.0593715 90.4017351,11.9413682 C88.0161335,11.7187504 84.646005,13.3717045 80.3596067,16.8568871 C83.8402571,12.5931096 85.4960522,9.21617241 85.2835969,6.79483514 C85.1674246,5.47365187 84.4877937,4.44384601 83.2630115,3.73401068 C82.0972197,3.05798784 80.920579,2.98582428 79.7649579,3.51933542 C77.5396018,4.54664505 75.3994538,7.79332474 73.3847449,13.1715528 C74.3258766,7.48129674 74.0914977,3.58174102 72.6725676,1.57023835 C71.9375628,0.527951372 70.8825189,0.000113464726 69.536366,0.000113464726 C68.1219563,0.000113464726 67.020579,0.550644318 66.2625205,1.63650175 C64.8340977,3.68136305 64.615314,7.59544225 65.5955465,13.2809328 C63.5690847,7.83757598 61.4149237,4.55367987 59.1746506,3.51933542 C58.0190294,2.98582428 56.8423888,3.05798784 55.6763709,3.73401068 C54.4518148,4.44384601 53.7721839,5.47365187 53.6562376,6.79483514 C53.4437823,9.21617241 55.0993514,12.5931096 58.5804538,16.857114 C54.2942815,13.3719315 50.923701,11.7187504 48.5378733,11.9413682 C47.2715042,12.0593715 46.2885595,12.7127014 45.6152571,13.8832035 C44.9082782,15.1129342 44.8325628,16.3460689 45.3899189,17.5481142 C46.6404668,20.2453977 51.0240522,22.7777034 58.4190782,25.0749103 C63.8995205,26.7777889 69.0856896,27.7113767 69.1374473,27.7204539 L69.3388278,27.7563087 L69.2915904,27.8116795 L69.3991741,27.7923905 L69.3862912,27.861377 L69.4699172,27.7905751 L69.5322977,27.8436766 L69.5388522,27.861377 L69.5422424,27.851846 L69.5533172,27.861377 L69.5483449,27.8341455 L69.5616798,27.7962483 L69.648018,27.8116795 L69.6007807,27.7563087 L69.8023872,27.7204539 C69.8539189,27.7113767 75.040314,26.7777889 80.5209823,25.0749103 C87.9155563,22.7777034 92.2993676,20.2453977 93.5499156,17.5481142 C94.1070457,16.3460689 94.0315563,15.1129342 93.3245774,13.8832035 M79.919779,3.85723338 C80.9741449,3.3704697 82.0074912,3.43537152 83.0779042,4.05602358 C84.1917124,4.7018648 84.8098668,5.63431792 84.9145124,6.82751299 C85.4605676,13.0465146 73.3619172,23.1133321 70.8759644,25.2809622 C71.5341237,22.032921 74.3358213,6.43515196 79.919779,3.85723338 M66.5656083,1.85004237 C67.2502115,0.869253269 68.2501075,0.372050838 69.536366,0.372050838 C70.772675,0.372050838 71.6993416,0.834533063 72.3703839,1.78536747 C75.9222294,6.8207051 70.5812392,21.7356434 69.5338798,24.8790702 C68.4603026,21.7537978 62.9959075,6.96162829 66.5656083,1.85004237 M54.0253221,6.82751299 C54.1299676,5.63431792 54.7478961,4.7018648 55.8617042,4.05602358 C56.9325693,3.43537152 57.9654636,3.3704697 59.0200554,3.85723338 C64.6037872,6.43515196 67.4054847,22.032921 68.0638701,25.2809622 C65.5779172,23.1133321 53.4792668,13.0465146 54.0253221,6.82751299 M45.725553,17.3913059 C45.2219888,16.3054485 45.2931839,15.187594 45.9362002,14.0692857 C46.5543546,12.9943209 47.4166067,12.4195086 48.5722278,12.311944 C54.691618,11.7409895 64.8858554,23.8426834 67.0732408,26.3250647 C63.8409823,25.6957893 48.3498278,23.0511534 45.725553,17.3913059 M93.2140554,17.3913059 C90.5897807,23.0511534 75.0986262,25.6957893 71.8668197,26.3250647 C74.054205,23.8426834 84.2482164,11.7409895 90.3676067,12.311944 C91.5230018,12.4195086 92.3854798,12.9943209 93.0036343,14.0692857 C93.6468766,15.187594 93.7176197,16.3054485 93.2140554,17.3913059" id="Fill-4" fill="#B79D48"></path>
                    <path d="M96.1358807,20.6430915 C95.7875896,19.3375664 95.0062514,18.450953 93.8135636,18.0079867 C91.5061636,17.1506473 87.6826465,17.9380925 82.4343229,20.3356021 C87.119866,17.016532 89.7156628,14.0977653 90.1455457,11.6408001 C90.3738221,10.3345942 89.98304,9.16341131 88.9831441,8.15947541 C88.0311636,7.20364855 86.9130611,6.82808031 85.6591229,7.04320943 C83.1982579,7.46507128 80.2281782,10.1373925 76.8144286,14.9821094 C79.2915668,9.65312507 80.1167522,5.754704 79.2551782,3.38147578 C78.8022416,2.13563308 77.8803213,1.31732547 76.514505,0.94992669 C75.2142335,0.600001474 74.0588384,0.836235034 73.080188,1.65181949 C71.2664075,3.16339657 70.0572205,6.63655185 69.4698042,11.9932216 C68.882614,6.63655185 67.673427,3.16339657 65.8596465,1.65181949 C64.8809961,0.836235034 63.725827,0.600001474 62.4253294,0.94992669 C61.0592872,1.31732547 60.1378189,2.13563308 59.6848823,3.38147578 C58.8230823,5.754704 59.6482676,9.65312507 62.1254059,14.9821094 C58.7116563,10.1373925 55.7413506,7.46507128 53.2807115,7.04320943 C52.0267733,6.82808031 50.9088969,7.20364855 49.9569164,8.15947541 C48.9567945,9.16341131 48.5660124,10.3345942 48.7945148,11.6408001 C49.2241717,14.0977653 51.8199685,17.016532 56.5055115,20.3356021 C51.257414,17.9380925 47.4336709,17.1506473 45.1262709,18.0079867 C43.9335831,18.450953 43.1524709,19.3375664 42.8039538,20.6430915 C42.4380335,22.0148801 42.6825831,23.2253218 43.5308221,24.2417388 C45.434105,26.521926 50.3212546,27.8290396 58.0562091,28.1263172 C63.7888855,28.3471195 69.0392433,27.9007493 69.091227,27.8962107 L69.4698042,27.8635329 L69.8483815,27.8962107 C69.9005912,27.9007493 75.1507229,28.3471195 80.8836254,28.1263172 C88.6185798,27.8290396 93.5057294,26.521926 95.4090124,24.2417388 C96.2572514,23.2253218 96.502027,22.0148801 96.1358807,20.6430915 M85.7215034,7.4097005 C86.8655977,7.21363345 87.8469603,7.54449659 88.7209652,8.42248665 C89.6304546,9.33565076 89.9871083,10.3969998 89.7805294,11.5765791 C88.704918,17.7256865 74.4234026,24.305506 71.4634937,25.753089 C72.9364416,22.7868941 79.6638156,8.4483566 85.7215034,7.4097005 M73.317053,1.93797753 C74.2098172,1.19364892 75.2244042,0.987823909 76.4186741,1.30915601 C77.6608595,1.6434231 78.4982498,2.38366697 78.9068872,3.50901013 C81.0375424,9.37422877 71.9462644,22.2422634 70.1035538,24.9817558 C70.0572205,24.2206344 69.9523489,22.7939289 69.8755034,21.0070864 C69.8845441,19.5340873 69.8644286,17.9067762 69.7893912,16.2381639 C69.8456693,10.6720383 70.5356969,4.25560803 73.317053,1.93797753 M60.0329473,3.50901013 C60.4415847,2.38366697 61.278975,1.6434231 62.5211603,1.30915601 C63.7154302,0.987823909 64.7300172,1.19364892 65.6230075,1.93797753 C68.4041376,4.25560803 69.0941652,10.6720383 69.1506693,16.2381639 C69.0754059,17.9067762 69.0552904,19.5340873 69.0643311,21.0070864 C68.9872595,22.7939289 68.882614,24.2206344 68.8362807,24.9817558 C66.9937961,22.2422634 57.902292,9.37422877 60.0329473,3.50901013 M49.159079,11.5765791 C48.9529522,10.3969998 49.3093798,9.33565076 50.2188693,8.42248665 C51.0928741,7.54449659 52.0740107,7.21363345 53.218105,7.4097005 C59.2762449,8.4483566 66.0033928,22.7868941 67.4763408,25.753089 C64.5166579,24.305506 50.2351424,17.7256865 49.159079,11.5765791 M43.8149246,24.003009 C43.0487294,23.0850794 42.8288156,21.9867408 43.1617376,20.7393096 C43.4820026,19.5404413 44.1663798,18.7611656 45.2551002,18.3567773 C51.0185148,16.2152441 63.9848416,25.2552057 66.7377197,27.084711 C63.4534774,27.3168598 47.8086319,28.7882704 43.8149246,24.003009 M95.1249099,24.003009 C91.1312026,28.7882704 75.4863571,27.3168598 72.2021148,27.084711 C74.9547668,25.2552057 87.9210937,16.2152441 93.6847343,18.3567773 C94.7734546,18.7611656 95.4580579,19.5404413 95.7783229,20.7393096 C96.1110189,21.9867408 95.8913311,23.0850794 95.1249099,24.003009" id="Fill-6" fill="#E55424"></path>
                    <path d="M19.9355156,67.504137 L20.5292603,68.967832 L20.817205,68.967832 L18.9656798,64.3700144 L17.1080522,68.967832 L17.3962229,68.967832 L17.9899676,67.504137 L19.9355156,67.504137 Z M19.82974,67.2390834 L18.0957433,67.2390834 L18.9656798,65.0902885 L19.82974,67.2390834 Z M27.390888,67.2095826 C27.390888,67.6110208 27.390888,68.0358328 27.1617075,68.331068 C26.9440538,68.6145029 26.5087465,68.762007 26.167688,68.762007 C25.8266294,68.762007 25.3915481,68.6145029 25.1736685,68.331068 C24.944488,68.0358328 24.944488,67.6110208 24.944488,67.2095826 L24.944488,64.5177454 L24.6630977,64.5177454 L24.6630977,67.2921849 C24.6630977,67.7467246 24.6630977,68.1361356 24.9621172,68.5082999 C25.2618148,68.8505095 25.7208538,69.0270606 26.167688,69.0270606 C26.6147481,69.0270606 27.0733351,68.8505095 27.3734847,68.5082999 C27.6725042,68.1361356 27.6725042,67.7467246 27.6725042,67.2921849 L27.6725042,64.5177454 L27.390888,64.5177454 L27.390888,67.2095826 Z M33.1206262,64.7825721 L34.2672067,64.7825721 L34.2672067,64.5177454 L31.6928815,64.5177454 L31.6928815,64.7825721 L32.8392359,64.7825721 L32.8392359,68.967832 L33.1206262,68.967832 L33.1206262,64.7825721 Z M38.5872815,66.4067062 L38.5872815,64.5177454 L38.3058912,64.5177454 L38.3058912,68.967832 L38.5872815,68.967832 L38.5872815,66.6715329 L41.2807172,66.6715329 L41.2807172,68.967832 L41.5621075,68.967832 L41.5621075,64.5177454 L41.2807172,64.5177454 L41.2807172,66.4067062 L38.5872815,66.4067062 Z M48.18574,64.7825721 L48.18574,64.5177454 L46.0700018,64.5177454 L46.0700018,68.967832 L48.18574,68.967832 L48.18574,68.7027784 L46.351166,68.7027784 L46.351166,66.6656327 L48.1387286,66.6656327 L48.1387286,66.401033 L46.351166,66.401033 L46.351166,64.7825721 L48.18574,64.7825721 Z M56.4093416,64.5177454 L56.1279514,64.5177454 L56.1279514,68.4014161 L52.4063676,64.4587438 L52.4063676,68.967832 L52.6879839,68.967832 L52.6879839,65.1433899 L56.4093416,69.11579 L56.4093416,64.5177454 Z M61.8820993,64.7825721 L63.0284538,64.7825721 L63.0284538,64.5177454 L60.4541286,64.5177454 L60.4541286,64.7825721 L61.6007091,64.7825721 L61.6007091,68.967832 L61.8820993,68.967832 L61.8820993,64.7825721 Z M67.0671384,68.967832 L67.3485286,68.967832 L67.3485286,64.5177454 L67.0671384,64.5177454 L67.0671384,68.967832 Z M75.3777563,65.0365062 C74.9840359,64.6709228 74.443179,64.4587438 73.9079725,64.4587438 C72.64974,64.4587438 71.5924359,65.4853726 71.5924359,66.7489158 C71.5924359,67.9943047 72.6675953,69.0270606 73.9020961,69.0270606 C74.4488294,69.0270606 74.9605302,68.8210087 75.3777563,68.4728989 L75.3777563,68.0830341 C75.0486766,68.4844723 74.401818,68.762007 73.8905693,68.762007 C73.3671156,68.762007 72.8380115,68.5021728 72.4675709,68.1479359 C72.0973563,67.7821256 71.8738262,67.291958 71.8738262,66.7722896 C71.8738262,65.6800781 72.7851237,64.7235705 73.8905693,64.7235705 C74.4375286,64.7235705 75.0369237,65.0070053 75.3777563,65.426144 L75.3777563,65.0365062 Z M85.0795042,68.967832 L85.3608945,68.967832 L85.3608945,64.5177454 L85.0795042,64.5177454 L85.0795042,68.967832 Z M93.8586538,64.5177454 L93.5772636,64.5177454 L93.5772636,68.4014161 L89.8556798,64.4587438 L89.8556798,68.967832 L90.1372961,68.967832 L90.1372961,65.1433899 L93.8586538,69.11579 L93.8586538,64.5177454 Z M98.3692603,68.967832 L99.1682278,68.967832 C99.8272912,68.967832 100.350519,68.8502826 100.838714,68.3784962 C101.285548,67.9473303 101.520153,67.3629869 101.520153,66.7489158 C101.520153,66.1112441 101.279446,65.5146465 100.815208,65.0778073 C100.327013,64.6237215 99.8155384,64.5177454 99.1682278,64.5177454 L98.3692603,64.5177454 L98.3692603,68.967832 Z M98.6506506,68.7027784 L98.6506506,64.7825721 L99.1623514,64.7825721 C99.7154132,64.7825721 100.174226,64.8828749 100.597555,65.2670665 C101.015007,65.6508042 101.238537,66.182046 101.238537,66.7489158 C101.238537,67.2803846 101.026986,67.7877989 100.650442,68.1656364 C100.226888,68.585002 99.7447953,68.7027784 99.1623514,68.7027784 L98.6506506,68.7027784 Z M105.771971,68.967832 L106.053361,68.967832 L106.053361,64.5177454 L105.771971,64.5177454 L105.771971,68.967832 Z M112.908208,67.504137 L113.501953,68.967832 L113.790124,68.967832 L111.938147,64.3700144 L110.080971,68.967832 L110.36869,68.967832 L110.96266,67.504137 L112.908208,67.504137 Z M112.802659,67.2390834 L111.068436,67.2390834 L111.938147,65.0902885 L112.802659,67.2390834 Z M121.831782,64.5177454 L121.550166,64.5177454 L121.550166,68.4014161 L117.828808,64.4587438 L117.828808,68.967832 L118.109973,68.967832 L118.109973,65.1433899 L121.831782,69.11579 L121.831782,64.5177454 Z" id="Fill-8" fill="#020000"></path>
                </g>
            </g>
        </g>
    </g>
</svg>