<?xml version="1.0" encoding="utf-8"?>
<!-- Generator: Adobe Illustrator 16.0.0, SVG Export Plug-In . SVG Version: 6.00 Build 0)  -->
<!DOCTYPE svg PUBLIC "-//W3C//DTD SVG 1.1//EN" "http://www.w3.org/Graphics/SVG/1.1/DTD/svg11.dtd">
<svg version="1.1" id="Layer_1" xmlns="http://www.w3.org/2000/svg" xmlns:xlink="http://www.w3.org/1999/xlink" x="0px" y="0px"
	 width="21.901px" height="21.901px" viewBox="0 0 21.901 21.901" enable-background="new 0 0 21.901 21.901" xml:space="preserve">
<path fill="#AC9E94" d="M7.835,7.232h-1c0,3.769-3.066,6.834-6.835,6.834v1c3.769,0,6.835,3.066,6.835,6.835h1
	c0-3.769,3.066-6.835,6.835-6.835v-1C10.901,14.066,7.835,11.001,7.835,7.232 M7.335,19.146c-0.794-2.108-2.472-3.786-4.58-4.58
	c2.108-0.794,3.786-2.472,4.58-4.579c0.794,2.107,2.472,3.785,4.58,4.579C9.807,15.36,8.129,17.038,7.335,19.146"/>
<path fill="#AC9E94" d="M16.983,0h-1c0,2.712-2.206,4.918-4.918,4.918v1c2.712,0,4.918,2.207,4.918,4.919h1
	c0-2.712,2.206-4.919,4.918-4.919v-1C19.189,4.918,16.983,2.712,16.983,0 M16.483,8.456c-0.597-1.353-1.686-2.441-3.038-3.038
	c1.353-0.597,2.441-1.685,3.038-3.037c0.597,1.353,1.686,2.44,3.038,3.037C18.169,6.015,17.08,7.104,16.483,8.456"/>
</svg>
