<?xml version="1.0" encoding="utf-8"?>
<!-- Generator: Adobe Illustrator 16.0.0, SVG Export Plug-In . SVG Version: 6.00 Build 0)  -->
<!DOCTYPE svg PUBLIC "-//W3C//DTD SVG 1.1//EN" "http://www.w3.org/Graphics/SVG/1.1/DTD/svg11.dtd">
<svg version="1.1" id="Layer_1" xmlns="http://www.w3.org/2000/svg" xmlns:xlink="http://www.w3.org/1999/xlink" x="0px" y="0px"
	 width="30.273px" height="21.787px" viewBox="0 0 30.273 21.787" enable-background="new 0 0 30.273 21.787" xml:space="preserve">
<rect x="9.335" fill="#AC9E94" width="1" height="3.562"/>
<rect x="4.027" y="2.359" transform="matrix(0.5003 0.8659 -0.8659 0.5003 5.3777 -3.6)" fill="#AC9E94" width="3.561" height="0.999"/>
<rect x="1.079" y="5.307" transform="matrix(0.8661 0.4999 -0.4999 0.8661 3.2862 -0.6517)" fill="#AC9E94" width="3.561" height="0.999"/>
<rect y="9.335" fill="#AC9E94" width="3.561" height="1"/>
<rect x="1.079" y="13.363" transform="matrix(0.8661 -0.4999 0.4999 0.8661 -6.5479 3.2864)" fill="#AC9E94" width="3.561" height="1"/>
<rect x="15.031" y="5.307" transform="matrix(-0.8661 0.4999 -0.4999 -0.8661 34.2745 2.4316)" fill="#AC9E94" width="3.561" height="0.999"/>
<rect x="13.363" y="1.079" transform="matrix(0.8658 0.5003 -0.5003 0.8658 3.2904 -6.5523)" fill="#AC9E94" width="0.999" height="3.561"/>
<path fill="#AC9E94" d="M24.457,10.69c-0.504,0-1.007,0.063-1.5,0.189c-1.332-1.526-3.264-2.395-5.353-2.395
	c-0.931,0-1.812,0.188-2.627,0.503c-0.41-2.398-2.516-4.236-5.062-4.236c-2.839,0-5.148,2.28-5.148,5.083
	c0,1.557,0.714,2.98,1.903,3.934c-1.396,0.725-2.356,2.121-2.356,3.743c0,2.357,2.008,4.275,4.477,4.275h15.666
	c3.207,0,5.816-2.489,5.816-5.549S27.664,10.69,24.457,10.69 M5.768,9.835c0-2.251,1.861-4.083,4.148-4.083
	c2.149,0,3.901,1.622,4.108,3.684c-1.609,0.918-2.81,2.431-3.23,4.254c-0.618-0.298-1.299-0.454-2.003-0.454
	c-0.336,0-0.661,0.042-0.977,0.109C6.549,12.611,5.768,11.294,5.768,9.835 M24.457,20.787H8.791c-1.917,0-3.477-1.47-3.477-3.275
	c0-1.807,1.56-3.276,3.477-3.276c0.756,0,1.477,0.229,2.085,0.66l0.692,0.491l0.094-0.845c0.318-2.883,2.873-5.057,5.942-5.057
	c1.896,0,3.641,0.829,4.783,2.275l0.214,0.27l0.328-0.104c0.5-0.156,1.015-0.236,1.527-0.236c2.656,0,4.816,2.04,4.816,4.548
	S27.113,20.787,24.457,20.787"/>
</svg>
