<?xml version="1.0" encoding="utf-8"?>
<!-- Generator: Adobe Illustrator 16.0.0, SVG Export Plug-In . SVG Version: 6.00 Build 0)  -->
<!DOCTYPE svg PUBLIC "-//W3C//DTD SVG 1.1//EN" "http://www.w3.org/Graphics/SVG/1.1/DTD/svg11.dtd">
<svg version="1.1" id="Layer_1" xmlns="http://www.w3.org/2000/svg" xmlns:xlink="http://www.w3.org/1999/xlink" x="0px" y="0px"
	 width="25.958px" height="13.301px" viewBox="0 0 25.958 13.301" enable-background="new 0 0 25.958 13.301" xml:space="preserve">
<path fill="#AC9E94" d="M20.142,13.301H4.477C2.008,13.301,0,11.383,0,9.025c0-2.358,2.008-4.276,4.477-4.276
	c0.703,0,1.384,0.155,2.002,0.454C7.175,2.189,9.977,0,13.29,0c2.09,0,4.021,0.868,5.352,2.396c0.492-0.128,0.996-0.191,1.5-0.191
	c3.207,0,5.816,2.489,5.816,5.549C25.958,10.812,23.349,13.301,20.142,13.301 M4.477,5.749C2.56,5.749,1,7.219,1,9.025
	c0,1.806,1.56,3.275,3.477,3.275h15.665c2.656,0,4.816-2.04,4.816-4.548s-2.16-4.549-4.816-4.549c-0.514,0-1.027,0.08-1.526,0.237
	l-0.329,0.104l-0.214-0.271C16.931,1.829,15.188,1,13.29,1c-3.069,0-5.625,2.174-5.943,5.056L7.253,6.9L6.561,6.409
	C5.952,5.978,5.231,5.749,4.477,5.749"/>
</svg>
