<?xml version="1.0" encoding="utf-8"?>
<!-- Generator: Adobe Illustrator 16.0.0, SVG Export Plug-In . SVG Version: 6.00 Build 0)  -->
<!DOCTYPE svg PUBLIC "-//W3C//DTD SVG 1.1//EN" "http://www.w3.org/Graphics/SVG/1.1/DTD/svg11.dtd">
<svg version="1.1" id="Layer_1" xmlns="http://www.w3.org/2000/svg" xmlns:xlink="http://www.w3.org/1999/xlink" x="0px" y="0px"
	 width="10.046px" height="16.857px" viewBox="0 0 10.046 16.857" enable-background="new 0 0 10.046 16.857" xml:space="preserve">
<path fill="#AC9E94" d="M2.75,8.421L2.329,9.08C1.94,9.687,0,12.784,0,14.107c0,1.516,1.233,2.75,2.75,2.75s2.75-1.234,2.75-2.75
	c0-1.323-1.94-4.42-2.329-5.027L2.75,8.421z M2.75,15.857c-0.965,0-1.75-0.785-1.75-1.75c0-0.674,0.949-2.475,1.75-3.809
	c0.801,1.334,1.75,3.134,1.75,3.809C4.5,15.072,3.715,15.857,2.75,15.857"/>
<path fill="#AC9E94" d="M7.717,0.658L7.296,0L6.875,0.658c-0.39,0.608-2.33,3.705-2.33,5.028c0,1.516,1.234,2.75,2.751,2.75
	s2.75-1.234,2.75-2.75C10.046,4.363,8.105,1.266,7.717,0.658 M7.296,7.436c-0.966,0-1.751-0.785-1.751-1.75
	c0-0.674,0.95-2.475,1.751-3.809c0.801,1.334,1.75,3.134,1.75,3.809C9.046,6.651,8.261,7.436,7.296,7.436"/>
</svg>
