<?xml version="1.0" encoding="utf-8"?>
<!-- Generator: Adobe Illustrator 16.0.0, SVG Export Plug-In . SVG Version: 6.00 Build 0)  -->
<!DOCTYPE svg PUBLIC "-//W3C//DTD SVG 1.1//EN" "http://www.w3.org/Graphics/SVG/1.1/DTD/svg11.dtd">
<svg version="1.1" id="Layer_1" xmlns="http://www.w3.org/2000/svg" xmlns:xlink="http://www.w3.org/1999/xlink" x="0px" y="0px"
	 width="23.192px" height="14.44px" viewBox="0 0 23.192 14.44" enable-background="new 0 0 23.192 14.44" xml:space="preserve">
<path fill="#AC9E94" d="M19.322,12c-1.133,0-1.718,0.436-2.233,0.819c-0.466,0.347-0.835,0.621-1.637,0.621
	c-0.8,0-1.167-0.274-1.633-0.621C13.305,12.436,12.721,12,11.589,12s-1.716,0.436-2.23,0.819c-0.466,0.347-0.833,0.621-1.633,0.621
	s-1.167-0.274-1.632-0.621C5.579,12.436,4.995,12,3.863,12s-1.716,0.436-2.23,0.819C1.167,13.166,0.801,13.44,0,13.44v1
	c1.132,0,1.716-0.436,2.23-0.819C2.696,13.274,3.063,13,3.863,13s1.168,0.274,1.633,0.621c0.515,0.384,1.099,0.819,2.229,0.819
	c1.132,0,1.716-0.436,2.23-0.819C10.422,13.274,10.789,13,11.589,13s1.167,0.274,1.633,0.621c0.515,0.384,1.099,0.819,2.23,0.819
	c1.134,0,1.719-0.436,2.234-0.819C18.152,13.274,18.521,13,19.322,13s1.171,0.274,1.637,0.621c0.516,0.384,1.101,0.819,2.233,0.819
	v-1c-0.802,0-1.17-0.274-1.636-0.621C21.041,12.436,20.456,12,19.322,12"/>
<path fill="#AC9E94" d="M19.322,8c-1.133,0-1.718,0.436-2.233,0.819c-0.466,0.347-0.835,0.621-1.637,0.621
	c-0.8,0-1.167-0.274-1.633-0.621C13.305,8.436,12.721,8,11.589,8s-1.716,0.436-2.23,0.819C8.893,9.166,8.525,9.44,7.726,9.44
	S6.559,9.166,6.094,8.819C5.579,8.436,4.995,8,3.863,8s-1.716,0.436-2.23,0.819C1.167,9.166,0.801,9.44,0,9.44v1
	c1.132,0,1.716-0.436,2.23-0.819C2.696,9.274,3.063,9,3.863,9s1.168,0.274,1.633,0.621c0.515,0.384,1.099,0.819,2.229,0.819
	c1.132,0,1.716-0.436,2.23-0.819C10.422,9.274,10.789,9,11.589,9s1.167,0.274,1.633,0.621c0.515,0.384,1.099,0.819,2.23,0.819
	c1.134,0,1.719-0.436,2.234-0.819C18.152,9.274,18.521,9,19.322,9s1.171,0.274,1.637,0.621c0.516,0.384,1.101,0.819,2.233,0.819v-1
	c-0.802,0-1.17-0.274-1.636-0.621C21.041,8.436,20.456,8,19.322,8"/>
<path fill="#AC9E94" d="M19.322,4c-1.133,0-1.718,0.436-2.233,0.819c-0.466,0.347-0.835,0.621-1.637,0.621
	c-0.8,0-1.167-0.274-1.633-0.621C13.305,4.436,12.721,4,11.589,4s-1.716,0.436-2.23,0.819C8.893,5.166,8.525,5.44,7.726,5.44
	S6.559,5.166,6.094,4.819C5.579,4.436,4.995,4,3.863,4s-1.716,0.436-2.23,0.819C1.167,5.166,0.801,5.44,0,5.44v1
	c1.132,0,1.716-0.436,2.23-0.819C2.696,5.274,3.063,5,3.863,5s1.168,0.274,1.633,0.621C6.011,6.005,6.595,6.44,7.726,6.44
	c1.132,0,1.716-0.436,2.23-0.819C10.422,5.274,10.789,5,11.589,5s1.167,0.274,1.633,0.621c0.515,0.384,1.099,0.819,2.23,0.819
	c1.134,0,1.719-0.436,2.234-0.819C18.152,5.274,18.521,5,19.322,5s1.171,0.274,1.637,0.621c0.516,0.384,1.101,0.819,2.233,0.819v-1
	c-0.802,0-1.17-0.274-1.636-0.621C21.041,4.436,20.456,4,19.322,4"/>
<path fill="#AC9E94" d="M21.557,0.819C21.041,0.436,20.455,0,19.322,0s-1.718,0.436-2.233,0.819
	c-0.466,0.347-0.835,0.621-1.637,0.621c-0.8,0-1.167-0.274-1.633-0.621C13.305,0.436,12.721,0,11.589,0s-1.716,0.436-2.23,0.819
	C8.893,1.166,8.525,1.44,7.726,1.44c-0.799,0-1.167-0.274-1.632-0.621C5.578,0.436,4.994,0,3.863,0c-1.132,0-1.716,0.436-2.23,0.819
	C1.167,1.166,0.8,1.44,0,1.44v1c1.132,0,1.716-0.436,2.23-0.819C2.696,1.274,3.063,1,3.863,1c0.799,0,1.168,0.274,1.632,0.621
	c0.516,0.384,1.1,0.819,2.23,0.819c1.132,0,1.716-0.436,2.229-0.819C10.422,1.274,10.789,1,11.589,1s1.167,0.274,1.633,0.621
	c0.515,0.384,1.099,0.819,2.23,0.819c1.134,0,1.719-0.436,2.234-0.819C18.152,1.274,18.521,1,19.322,1s1.171,0.274,1.637,0.621
	c0.516,0.384,1.101,0.819,2.233,0.819v-1C22.391,1.44,22.022,1.166,21.557,0.819"/>
</svg>
