<?xml version="1.0" encoding="utf-8"?>
<!-- Generator: Adobe Illustrator 16.0.0, SVG Export Plug-In . SVG Version: 6.00 Build 0)  -->
<!DOCTYPE svg PUBLIC "-//W3C//DTD SVG 1.1//EN" "http://www.w3.org/Graphics/SVG/1.1/DTD/svg11.dtd">
<svg version="1.1" id="Layer_1" xmlns="http://www.w3.org/2000/svg" xmlns:xlink="http://www.w3.org/1999/xlink" x="0px" y="0px"
	 width="26.601px" height="16.531px" viewBox="0 0 26.601 16.531" enable-background="new 0 0 26.601 16.531" xml:space="preserve">
<path fill="#AC9E94" d="M11.495,3.23L8.266,0l-3.23,3.23l3.23,3.232L11.495,3.23z M8.266,1.414l1.816,1.816L8.266,5.048L6.449,3.23
	L8.266,1.414z"/>
<path fill="#AC9E94" d="M3.23,5.035L0,8.266l3.23,3.23l3.231-3.23L3.23,5.035z M1.414,8.266L3.23,6.449l1.817,1.816L3.23,10.082
	L1.414,8.266z"/>
<path fill="#AC9E94" d="M21.566,3.23L18.335,0l-3.23,3.23l3.23,3.232L21.566,3.23z M18.335,1.414l1.817,1.816l-1.817,1.818
	L16.519,3.23L18.335,1.414z"/>
<path fill="#AC9E94" d="M13.301,5.035l-3.231,3.23l3.231,3.23l3.23-3.23L13.301,5.035z M11.483,8.266l1.817-1.816l1.816,1.816
	l-1.816,1.816L11.483,8.266z"/>
<path fill="#AC9E94" d="M5.035,13.301l3.23,3.23l3.229-3.23l-3.229-3.231L5.035,13.301z M8.266,15.117l-1.816-1.816l1.816-1.817
	l1.816,1.817L8.266,15.117z"/>
<path fill="#AC9E94" d="M23.37,5.035l-3.23,3.23l3.23,3.23l3.23-3.23L23.37,5.035z M21.554,8.266l1.816-1.816l1.816,1.816
	l-1.816,1.816L21.554,8.266z"/>
<path fill="#AC9E94" d="M15.104,13.301l3.23,3.23l3.231-3.23l-3.231-3.231L15.104,13.301z M18.335,15.117l-1.816-1.816l1.816-1.817
	l1.817,1.817L18.335,15.117z"/>
</svg>
