<?xml version="1.0" encoding="utf-8"?>
<!-- Generator: Adobe Illustrator 16.0.0, SVG Export Plug-In . SVG Version: 6.00 Build 0)  -->
<!DOCTYPE svg PUBLIC "-//W3C//DTD SVG 1.1//EN" "http://www.w3.org/Graphics/SVG/1.1/DTD/svg11.dtd">
<svg version="1.1" id="Layer_1" xmlns="http://www.w3.org/2000/svg" xmlns:xlink="http://www.w3.org/1999/xlink" x="0px" y="0px"
	 width="14.592px" height="16.858px" viewBox="0 0 14.592 16.858" enable-background="new 0 0 14.592 16.858" xml:space="preserve">
<path fill="#AC9E94" d="M2.75,8.421L2.329,9.08C1.94,9.688,0,12.785,0,14.108c0,1.516,1.233,2.75,2.75,2.75s2.75-1.234,2.75-2.75
	c0-1.323-1.94-4.42-2.329-5.028L2.75,8.421z M2.75,15.858c-0.965,0-1.75-0.785-1.75-1.75c0-0.674,0.949-2.476,1.75-3.809
	c0.801,1.333,1.75,3.133,1.75,3.809C4.5,15.073,3.715,15.858,2.75,15.858"/>
<path fill="#AC9E94" d="M10.046,5.686c0-1.322-1.94-4.42-2.329-5.028L7.296,0L6.875,0.658c-0.39,0.608-2.33,3.705-2.33,5.028
	c0,1.516,1.234,2.75,2.751,2.75S10.046,7.202,10.046,5.686 M7.296,7.436c-0.966,0-1.751-0.785-1.751-1.75
	c0-0.674,0.95-2.475,1.751-3.809c0.801,1.334,1.75,3.134,1.75,3.809C9.046,6.651,8.261,7.436,7.296,7.436"/>
<path fill="#AC9E94" d="M12.262,9.08l-0.421-0.658L11.42,9.08c-0.389,0.608-2.329,3.705-2.329,5.028c0,1.516,1.233,2.75,2.75,2.75
	s2.751-1.234,2.751-2.75C14.592,12.785,12.651,9.688,12.262,9.08 M11.841,15.858c-0.965,0-1.75-0.785-1.75-1.75
	c0-0.674,0.949-2.476,1.75-3.81c0.802,1.334,1.751,3.134,1.751,3.81C13.592,15.073,12.807,15.858,11.841,15.858"/>
</svg>
