<?xml version="1.0" encoding="utf-8"?>
<!-- Generator: Adobe Illustrator 16.0.0, SVG Export Plug-In . SVG Version: 6.00 Build 0)  -->
<!DOCTYPE svg PUBLIC "-//W3C//DTD SVG 1.1//EN" "http://www.w3.org/Graphics/SVG/1.1/DTD/svg11.dtd">
<svg version="1.1" id="Layer_1" xmlns="http://www.w3.org/2000/svg" xmlns:xlink="http://www.w3.org/1999/xlink" x="0px" y="0px"
	 width="20.185px" height="22.73px" viewBox="0 0 20.185 22.73" enable-background="new 0 0 20.185 22.73" xml:space="preserve">
<polygon fill="#AC9E94" points="20.071,13.558 19.813,12.591 15.307,13.799 11.092,11.366 15.308,8.932 19.812,10.14 20.072,9.173 
	16.532,8.224 20.185,6.116 19.685,5.25 16.031,7.36 16.98,3.818 16.014,3.56 14.807,8.067 10.592,10.499 10.592,5.632 13.891,2.333 
	13.184,1.626 10.592,4.218 10.592,0 9.592,0 9.592,4.218 7.001,1.626 6.294,2.333 9.592,5.632 9.592,10.5 5.378,8.067 4.171,3.56 
	3.204,3.818 4.153,7.36 0.5,5.25 0,6.116 3.652,8.224 0.112,9.173 0.372,10.14 4.877,8.932 9.092,11.366 4.878,13.799 0.371,12.591 
	0.113,13.558 3.653,14.506 0,16.617 0.5,17.481 4.153,15.371 3.204,18.912 4.171,19.17 5.378,14.664 9.592,12.231 9.592,17.098 
	6.294,20.397 7.001,21.104 9.592,18.512 9.592,22.73 10.592,22.73 10.592,18.512 13.184,21.104 13.891,20.397 10.592,17.098 
	10.592,12.232 14.807,14.664 16.014,19.17 16.98,18.912 16.031,15.371 19.685,17.481 20.185,16.617 16.531,14.506 "/>
</svg>
