<?xml version="1.0" encoding="utf-8"?>
<!-- Generator: Adobe Illustrator 16.0.0, SVG Export Plug-In . SVG Version: 6.00 Build 0)  -->
<!DOCTYPE svg PUBLIC "-//W3C//DTD SVG 1.1//EN" "http://www.w3.org/Graphics/SVG/1.1/DTD/svg11.dtd">
<svg version="1.1" id="Layer_1" xmlns="http://www.w3.org/2000/svg" xmlns:xlink="http://www.w3.org/1999/xlink" x="0px" y="0px"
	 width="27.737px" height="27.735px" viewBox="0 0 27.737 27.735" enable-background="new 0 0 27.737 27.735" xml:space="preserve">
<path fill="#AC9E94" d="M6.929,13.867c0,3.838,3.164,6.961,7.054,6.961c3.891,0,7.056-3.123,7.056-6.961s-3.165-6.961-7.056-6.961
	C10.093,6.906,6.929,10.029,6.929,13.867 M20.038,13.867c0,3.287-2.717,5.961-6.056,5.961s-6.054-2.674-6.054-5.961
	s2.715-5.961,6.054-5.961S20.038,10.58,20.038,13.867"/>
<rect x="13.369" fill="#AC9E94" width="1" height="5.021"/>
<rect x="13.369" y="22.714" fill="#AC9E94" width="1" height="5.021"/>
<rect x="5.68" y="3.532" transform="matrix(0.5001 0.866 -0.866 0.5001 7.5852 -5.077)" fill="#AC9E94" width="5.021" height="0.999"/>
<rect x="17.037" y="23.203" transform="matrix(-0.5001 -0.866 0.866 -0.5001 8.7966 52.4844)" fill="#AC9E94" width="5.021" height="0.999"/>
<rect x="1.523" y="7.689" transform="matrix(-0.8661 -0.4999 0.4999 -0.8661 3.4324 17.2965)" fill="#AC9E94" width="5.02" height="0.999"/>
<rect x="21.194" y="19.047" transform="matrix(-0.8661 -0.4999 0.4999 -0.8661 34.4647 48.3246)" fill="#AC9E94" width="5.021" height="0.998"/>
<rect y="13.367" fill="#AC9E94" width="5.021" height="1"/>
<rect x="22.716" y="13.367" fill="#AC9E94" width="5.021" height="1"/>
<rect x="3.534" y="17.036" transform="matrix(-0.5003 -0.8658 0.8658 -0.5003 -10.8722 32.8176)" fill="#AC9E94" width="0.999" height="5.02"/>
<rect x="23.205" y="5.678" transform="matrix(0.5003 0.8658 -0.8658 0.5003 18.934 -16.4327)" fill="#AC9E94" width="0.999" height="5.021"/>
<rect x="7.69" y="21.193" transform="matrix(-0.8658 -0.5003 0.5003 -0.8658 3.4213 48.3237)" fill="#AC9E94" width="0.999" height="5.021"/>
<rect x="19.048" y="1.521" transform="matrix(-0.8658 -0.5003 0.5003 -0.8658 34.455 17.302)" fill="#AC9E94" width="0.999" height="5.021"/>
</svg>
