<?xml version="1.0" encoding="utf-8"?>
<!-- Generator: Adobe Illustrator 16.0.0, SVG Export Plug-In . SVG Version: 6.00 Build 0)  -->
<!DOCTYPE svg PUBLIC "-//W3C//DTD SVG 1.1//EN" "http://www.w3.org/Graphics/SVG/1.1/DTD/svg11.dtd">
<svg version="1.1" id="Layer_1" xmlns="http://www.w3.org/2000/svg" xmlns:xlink="http://www.w3.org/1999/xlink" x="0px" y="0px"
	 width="20.755px" height="18.16px" viewBox="0 0 20.755 18.16" enable-background="new 0 0 20.755 18.16" xml:space="preserve">
<path fill="#AC9E94" d="M12.418,3.315C12.418,1.487,10.931,0,9.102,0S5.786,1.487,5.786,3.315h1C6.786,2.039,7.825,1,9.102,1
	c1.277,0,2.316,1.039,2.316,2.315c0,1.277-1.039,2.316-2.316,2.316H0v1h9.102C10.931,6.632,12.418,5.145,12.418,3.315"/>
<path fill="#AC9E94" d="M20.755,6.132c0-1.829-1.487-3.316-3.316-3.316s-3.315,1.487-3.315,3.316h1c0-1.277,1.039-2.316,2.315-2.316
	c1.277,0,2.316,1.039,2.316,2.316s-1.039,2.316-2.316,2.316H0v1h17.438C19.268,9.448,20.755,7.961,20.755,6.132"/>
<path fill="#AC9E94" d="M17.438,11.528H0v1h17.438c1.277,0,2.316,1.039,2.316,2.315c0,1.277-1.039,2.316-2.316,2.316
	c-1.276,0-2.315-1.039-2.315-2.316h-1c0,1.829,1.487,3.316,3.315,3.316c1.829,0,3.316-1.487,3.316-3.316
	C20.755,13.016,19.268,11.528,17.438,11.528"/>
</svg>
